<?xml version="1.0" encoding="UTF-8" standalone="no"?>
<!-- Created with Inkscape (http://www.inkscape.org/) -->

<svg
   version="1.1"
   id="svg19146"
   xml:space="preserve"
   width="400"
   height="600"
   viewBox="0 0 400.00001 600"
   sodipodi:docname="fill-in-luck.svg"
   inkscape:version="1.1.1 (1:1.1+202109281949+c3084ef5ed)"
   inkscape:export-filename="/home/heinrich/Development/klasse-wir-singen/theme/images/fill-in-luck.png"
   inkscape:export-xdpi="96"
   inkscape:export-ydpi="96"
   xmlns:inkscape="http://www.inkscape.org/namespaces/inkscape"
   xmlns:sodipodi="http://sodipodi.sourceforge.net/DTD/sodipodi-0.dtd"
   xmlns="http://www.w3.org/2000/svg"
   xmlns:svg="http://www.w3.org/2000/svg"><defs
     id="defs19150"><linearGradient
       x1="0"
       y1="0"
       x2="1"
       y2="0"
       gradientUnits="userSpaceOnUse"
       gradientTransform="matrix(52.668427,-590.13829,-590.13829,-52.668427,537.08936,462.27234)"
       spreadMethod="pad"
       id="linearGradient19174"><stop
         style="stop-opacity:1;stop-color:#cceffc"
         offset="0"
         id="stop19166" /><stop
         style="stop-opacity:1;stop-color:#99def9"
         offset="0.999939"
         id="stop19168" /><stop
         style="stop-opacity:1;stop-color:#99def9"
         offset="0.99994351"
         id="stop19170" /><stop
         style="stop-opacity:1;stop-color:#99def9"
         offset="1"
         id="stop19172" /></linearGradient><clipPath
       clipPathUnits="userSpaceOnUse"
       id="clipPath19188"><path
         d="M 0,0 H 1133.858 V 1814.173 H 0 Z"
         id="path19186" /></clipPath><radialGradient
       fx="0"
       fy="0"
       cx="0"
       cy="0"
       r="1"
       gradientUnits="userSpaceOnUse"
       gradientTransform="matrix(47.751511,0,0,-47.751511,282.77376,1231.5898)"
       spreadMethod="pad"
       id="radialGradient19246"><stop
         style="stop-opacity:1;stop-color:#e6ea08"
         offset="0"
         id="stop19240" /><stop
         style="stop-opacity:1;stop-color:#e6ea08"
         offset="0.26303688"
         id="stop19242" /><stop
         style="stop-opacity:1;stop-color:#50af37"
         offset="1"
         id="stop19244" /></radialGradient><clipPath
       clipPathUnits="userSpaceOnUse"
       id="clipPath19256"><path
         d="M 0,0 H 1133.858 V 1814.173 H 0 Z"
         id="path19254" /></clipPath><radialGradient
       fx="0"
       fy="0"
       cx="0"
       cy="0"
       r="1"
       gradientUnits="userSpaceOnUse"
       gradientTransform="matrix(-28.899353,-38.631927,-29.000412,38.497299,283.95235,1225.3068)"
       spreadMethod="pad"
       id="radialGradient19284"><stop
         style="stop-opacity:1;stop-color:#b3e6fa"
         offset="0"
         id="stop19274" /><stop
         style="stop-opacity:1;stop-color:#b3e6fa"
         offset="0.00011232"
         id="stop19276" /><stop
         style="stop-opacity:1;stop-color:#b3e6fa"
         offset="0.00137329"
         id="stop19278" /><stop
         style="stop-opacity:1;stop-color:#b3e6fa"
         offset="0.08304635"
         id="stop19280" /><stop
         style="stop-opacity:1;stop-color:#0994dc"
         offset="1"
         id="stop19282" /></radialGradient><clipPath
       clipPathUnits="userSpaceOnUse"
       id="clipPath19294"><path
         d="M 0,0 H 1133.858 V 1814.173 H 0 Z"
         id="path19292" /></clipPath><radialGradient
       fx="0"
       fy="0"
       cx="0"
       cy="0"
       r="1"
       gradientUnits="userSpaceOnUse"
       gradientTransform="matrix(47.751511,0,0,-47.751511,282.77382,953.2265)"
       spreadMethod="pad"
       id="radialGradient19318"><stop
         style="stop-opacity:1;stop-color:#e6ea08"
         offset="0"
         id="stop19312" /><stop
         style="stop-opacity:1;stop-color:#e6ea08"
         offset="0.26303688"
         id="stop19314" /><stop
         style="stop-opacity:1;stop-color:#50af37"
         offset="1"
         id="stop19316" /></radialGradient><clipPath
       clipPathUnits="userSpaceOnUse"
       id="clipPath19328"><path
         d="M 0,0 H 1133.858 V 1814.173 H 0 Z"
         id="path19326" /></clipPath><radialGradient
       fx="0"
       fy="0"
       cx="0"
       cy="0"
       r="1"
       gradientUnits="userSpaceOnUse"
       gradientTransform="matrix(-21.735779,-38.103912,-28.021591,29.556427,279.50685,948.37083)"
       spreadMethod="pad"
       id="radialGradient19356"><stop
         style="stop-opacity:1;stop-color:#b3e6fa"
         offset="0"
         id="stop19346" /><stop
         style="stop-opacity:1;stop-color:#b3e6fa"
         offset="0.00011232"
         id="stop19348" /><stop
         style="stop-opacity:1;stop-color:#b3e6fa"
         offset="0.00137329"
         id="stop19350" /><stop
         style="stop-opacity:1;stop-color:#b3e6fa"
         offset="0.08304635"
         id="stop19352" /><stop
         style="stop-opacity:1;stop-color:#0994dc"
         offset="1"
         id="stop19354" /></radialGradient><clipPath
       clipPathUnits="userSpaceOnUse"
       id="clipPath19366"><path
         d="M 0,0 H 1133.858 V 1814.173 H 0 Z"
         id="path19364" /></clipPath><radialGradient
       fx="0"
       fy="0"
       cx="0"
       cy="0"
       r="1"
       gradientUnits="userSpaceOnUse"
       gradientTransform="matrix(47.751511,0,0,-47.751511,282.77379,1557.5732)"
       spreadMethod="pad"
       id="radialGradient19390"><stop
         style="stop-opacity:1;stop-color:#e6ea08"
         offset="0"
         id="stop19384" /><stop
         style="stop-opacity:1;stop-color:#e6ea08"
         offset="0.26303688"
         id="stop19386" /><stop
         style="stop-opacity:1;stop-color:#50af37"
         offset="1"
         id="stop19388" /></radialGradient><clipPath
       clipPathUnits="userSpaceOnUse"
       id="clipPath19400"><path
         d="M 0,0 H 1133.858 V 1814.173 H 0 Z"
         id="path19398" /></clipPath><radialGradient
       fx="0"
       fy="0"
       cx="0"
       cy="0"
       r="1"
       gradientUnits="userSpaceOnUse"
       gradientTransform="matrix(-12.71492,-46.71582,-24.63472,24.111847,281.07469,1551.5332)"
       spreadMethod="pad"
       id="radialGradient19428"><stop
         style="stop-opacity:1;stop-color:#b3e6fa"
         offset="0"
         id="stop19418" /><stop
         style="stop-opacity:1;stop-color:#b3e6fa"
         offset="0.00011232"
         id="stop19420" /><stop
         style="stop-opacity:1;stop-color:#b3e6fa"
         offset="0.00137329"
         id="stop19422" /><stop
         style="stop-opacity:1;stop-color:#b3e6fa"
         offset="0.08304635"
         id="stop19424" /><stop
         style="stop-opacity:1;stop-color:#0994dc"
         offset="1"
         id="stop19426" /></radialGradient><clipPath
       clipPathUnits="userSpaceOnUse"
       id="clipPath19438"><path
         d="M 0,0 H 1133.858 V 1814.173 H 0 Z"
         id="path19436" /></clipPath><clipPath
       clipPathUnits="userSpaceOnUse"
       id="clipPath19486"><path
         d="M 0,0 H 1133.858 V 1814.173 H 0 Z"
         id="path19484" /></clipPath><clipPath
       clipPathUnits="userSpaceOnUse"
       id="clipPath19624"><path
         d="M 0,0 H 1133.858 V 1814.173 H 0 Z"
         id="path19622" /></clipPath><clipPath
       clipPathUnits="userSpaceOnUse"
       id="clipPath19810"><path
         d="M 0,0 H 1133.858 V 1814.173 H 0 Z"
         id="path19808" /></clipPath><clipPath
       clipPathUnits="userSpaceOnUse"
       id="clipPath19914"><path
         d="M 0,0 H 1133.858 V 1814.173 H 0 Z"
         id="path19912" /></clipPath><radialGradient
       fx="0"
       fy="0"
       cx="0"
       cy="0"
       r="1"
       gradientUnits="userSpaceOnUse"
       gradientTransform="matrix(-0.741745,84.996353,86.850205,0.7579346,800.08743,905.52269)"
       spreadMethod="pad"
       id="radialGradient19948"><stop
         style="stop-opacity:1;stop-color:#99d420"
         offset="0"
         id="stop19938" /><stop
         style="stop-opacity:1;stop-color:#99d420"
         offset="0.093399"
         id="stop19940" /><stop
         style="stop-opacity:1;stop-color:#087039"
         offset="0.991043"
         id="stop19942" /><stop
         style="stop-opacity:1;stop-color:#087039"
         offset="0.99170582"
         id="stop19944" /><stop
         style="stop-opacity:1;stop-color:#087039"
         offset="1"
         id="stop19946" /></radialGradient><clipPath
       clipPathUnits="userSpaceOnUse"
       id="clipPath19958"><path
         d="M 0,0 H 1133.858 V 1814.173 H 0 Z"
         id="path19956" /></clipPath><radialGradient
       fx="0"
       fy="0"
       cx="0"
       cy="0"
       r="1"
       gradientUnits="userSpaceOnUse"
       gradientTransform="matrix(-2.4927673,-14.896149,15.135895,-2.5328827,803.42764,906.7459)"
       spreadMethod="pad"
       id="radialGradient19994"><stop
         style="stop-opacity:1;stop-color:#f57815"
         offset="0"
         id="stop19984" /><stop
         style="stop-opacity:1;stop-color:#f57815"
         offset="0.0604401"
         id="stop19986" /><stop
         style="stop-opacity:1;stop-color:#ed1c24"
         offset="0.961533"
         id="stop19988" /><stop
         style="stop-opacity:1;stop-color:#ed1c24"
         offset="0.96437958"
         id="stop19990" /><stop
         style="stop-opacity:1;stop-color:#ed1c24"
         offset="1"
         id="stop19992" /></radialGradient><clipPath
       clipPathUnits="userSpaceOnUse"
       id="clipPath20004"><path
         d="M 0,0 H 1133.858 V 1814.173 H 0 Z"
         id="path20002" /></clipPath><radialGradient
       fx="0"
       fy="0"
       cx="0"
       cy="0"
       r="1"
       gradientUnits="userSpaceOnUse"
       gradientTransform="matrix(-23.967956,57.863754,59.125809,24.490707,934.21683,1129.4709)"
       spreadMethod="pad"
       id="radialGradient20108"><stop
         style="stop-opacity:1;stop-color:#99d420"
         offset="0"
         id="stop20098" /><stop
         style="stop-opacity:1;stop-color:#99d420"
         offset="0.093399"
         id="stop20100" /><stop
         style="stop-opacity:1;stop-color:#087039"
         offset="0.991043"
         id="stop20102" /><stop
         style="stop-opacity:1;stop-color:#087039"
         offset="0.99170582"
         id="stop20104" /><stop
         style="stop-opacity:1;stop-color:#087039"
         offset="1"
         id="stop20106" /></radialGradient><clipPath
       clipPathUnits="userSpaceOnUse"
       id="clipPath20118"><path
         d="M 0,0 H 1133.858 V 1814.173 H 0 Z"
         id="path20116" /></clipPath><radialGradient
       fx="0"
       fy="0"
       cx="0"
       cy="0"
       r="1"
       gradientUnits="userSpaceOnUse"
       gradientTransform="matrix(2.4086914,-10.864945,11.03981,2.447464,936.16098,1131.2285)"
       spreadMethod="pad"
       id="radialGradient20154"><stop
         style="stop-opacity:1;stop-color:#f57815"
         offset="0"
         id="stop20144" /><stop
         style="stop-opacity:1;stop-color:#f57815"
         offset="0.0604401"
         id="stop20146" /><stop
         style="stop-opacity:1;stop-color:#ed1c24"
         offset="0.961533"
         id="stop20148" /><stop
         style="stop-opacity:1;stop-color:#ed1c24"
         offset="0.96437958"
         id="stop20150" /><stop
         style="stop-opacity:1;stop-color:#ed1c24"
         offset="1"
         id="stop20152" /></radialGradient><clipPath
       clipPathUnits="userSpaceOnUse"
       id="clipPath20164"><path
         d="M 0,0 H 1133.858 V 1814.173 H 0 Z"
         id="path20162" /></clipPath></defs><sodipodi:namedview
     id="namedview19148"
     pagecolor="#ffffff"
     bordercolor="#666666"
     borderopacity="1.0"
     inkscape:pageshadow="2"
     inkscape:pageopacity="0.0"
     inkscape:pagecheckerboard="0"
     showgrid="false"
     inkscape:zoom="0.49344725"
     inkscape:cx="868.38057"
     inkscape:cy="788.33148"
     inkscape:window-width="1920"
     inkscape:window-height="1043"
     inkscape:window-x="1920"
     inkscape:window-y="0"
     inkscape:window-maximized="1"
     inkscape:current-layer="g19152" /><g
     id="g19152"
     inkscape:groupmode="layer"
     inkscape:label="Vorlagen Homepage 21.10.05_1_Meer und Küste(1)"
     transform="matrix(1.3333333,0,0,-1.3333333,0,2418.8933)"><g
       id="g20769"
       transform="matrix(0.87425807,0,0,0.87425807,-621.89474,721.15524)"><path
         d="m 1050.8174,1112.4634 c 10.867,14.489 -3.942,41.757 -24.152,39.717 0,0 -0.01,-10e-4 -0.01,0 6.128,12.775 22.769,20.333 10.9,45.177 -15.125,15.314 -27.34,11.43 -45.82,-3.103 -15.273,-12.013 -26.544,-24.371 -37.336,-38.654 1.162,2.101 2.284,4.234 3.33,6.418 8.705,18.169 16.048,38.535 14.802,59.057 -0.564,9.29 -5.024,19.962 -12.596,25.686 -14.107,10.663 -41.43,-4.9 -39.853,-25.278 0,0 0,-0.01 10e-4,-0.01 -12.515,5.913 -19.633,22.563 -44.489,10.024 -15.493,-15.62 -11.917,-27.88 2.066,-46.235 11,-14.439 22.365,-25.212 35.422,-35.35 -1.396,0.729 -2.809,1.435 -4.241,2.111 -17.797,8.397 -37.8,15.371 -58.146,13.661 -9.209,-0.774 -19.873,-5.515 -25.707,-13.293 -10.866,-14.489 3.943,-41.758 24.153,-39.717 0.003,10e-4 0.006,10e-4 0.009,10e-4 -6.128,-12.776 -22.77,-20.335 -10.9,-45.177 15.125,-15.313 27.339,-11.431 45.819,3.103 16.179,12.723 27.869,25.827 39.25,41.208 -1.576,-2.725 -3.059,-5.532 -4.435,-8.407 -8.704,-18.169 -16.048,-38.535 -14.802,-59.056 0.564,-9.29 5.025,-19.963 12.597,-25.686 14.106,-10.663 41.429,4.899 39.852,25.278 0,0 -10e-4,0.01 0,0.01 12.514,-5.913 19.632,-22.563 44.489,-10.024 15.493,15.621 11.916,27.879 -2.067,46.234 -10.086,13.24 -20.503,23.376 -32.221,32.789 0.077,-0.038 0.153,-0.079 0.232,-0.116 17.797,-8.397 37.8,-15.37 58.145,-13.661 9.21,0.774 19.874,5.515 25.707,13.293"
         style="fill:#bfe588;fill-opacity:1;fill-rule:nonzero;stroke:none"
         id="path19192" /><g
         id="g20086"><g
           id="g20088"><g
             id="g20094"><g
               id="g20096"><path
                 d="m 927.566,1159.261 c 0.256,-6.348 1.351,-11.719 3.059,-17.246 v 0 c -0.254,0.489 -0.517,0.975 -0.792,1.457 v 0 c -3.417,5.98 -7.752,11.995 -13.927,15.589 v 0 c -2.797,1.627 -6.806,2.409 -10.04,1.35 v 0 c -6.024,-1.973 -7.252,-12.763 -1.048,-16.237 v 0 c 10e-4,0 0.002,0 0.002,0 v 0 c -4.321,-2.433 -10.61,-1.26 -12.194,-10.764 v 0 c 1.262,-7.428 5.543,-8.766 13.759,-8.31 v 0 c 7.193,0.4 13.175,1.811 19.526,3.936 v 0 c -0.999,-0.465 -1.987,-0.972 -2.959,-1.52 v 0 c -6.144,-3.462 -12.337,-7.827 -16.099,-13.96 v 0 c -1.704,-2.777 -2.567,-6.732 -1.546,-9.894 v 0 c 1.904,-5.889 12.861,-6.912 16.501,-0.753 v 0 c 0,10e-4 10e-4,0 0.002,0 v 0 c 2.401,-4.207 1.099,-10.41 10.742,-11.805 v 0 c 7.578,1.368 9.014,5.601 8.69,13.67 v 0 c -0.234,5.821 -1.186,10.818 -2.656,15.87 v 0 c 0.015,-0.027 0.028,-0.054 0.043,-0.08 v 0 c 3.417,-5.981 7.752,-11.996 13.928,-15.59 v 0 c 2.796,-1.627 6.805,-2.409 10.039,-1.349 v 0 c 6.024,1.972 7.253,12.763 1.048,16.236 v 0 c 0,0 -10e-4,0 -0.002,10e-4 v 0 c 4.322,2.432 10.61,1.259 12.195,10.764 v 0 c -1.263,7.426 -5.544,8.766 -13.76,8.308 v 0 c -6.791,-0.377 -12.503,-1.657 -18.464,-3.586 v 0 c 0.754,0.369 1.505,0.755 2.243,1.172 v 0 c 6.143,3.461 12.337,7.826 16.099,13.96 v 0 c 1.704,2.776 2.568,6.732 1.545,9.892 v 0 c -1.903,5.89 -12.861,6.913 -16.5,0.754 v 0 c 0,-10e-4 -10e-4,0 -10e-4,0 v 0 c -2.401,4.207 -1.1,10.41 -10.743,11.805 v 0 c -7.578,-1.368 -9.014,-5.6 -8.69,-13.67"
                 style="fill:url(#radialGradient20108);stroke:none"
                 id="path20110" /></g></g></g></g><g
         id="g20112"><g
           id="g20114"
           clip-path="url(#clipPath20118)"><g
             id="g20120"
             transform="translate(962.5959,1103.6276)"><path
               d="m 0,0 c 6.024,1.972 7.253,12.763 1.049,16.236 -10e-4,0 -0.002,10e-4 -0.003,10e-4 4.322,2.433 10.61,1.259 12.195,10.764 -1.263,7.427 -5.544,8.766 -13.76,8.309 -6.791,-0.378 -12.503,-1.658 -18.464,-3.587 0.755,0.369 1.505,0.756 2.243,1.172 6.143,3.461 12.337,7.826 16.099,13.96 1.704,2.777 2.568,6.732 1.546,9.893 -1.904,5.889 -12.862,6.912 -16.501,0.753 0,-10e-4 -10e-4,-10e-4 -10e-4,-0.002 -2.401,4.207 -1.1,10.41 -10.743,11.805 -7.578,-1.368 -9.014,-5.601 -8.69,-13.671 0.255,-6.348 1.351,-11.718 3.059,-17.245 -0.254,0.489 -0.517,0.975 -0.792,1.456 -3.417,5.98 -7.751,11.995 -13.928,15.589 -2.795,1.627 -6.805,2.409 -10.039,1.35 -6.024,-1.972 -7.252,-12.763 -1.048,-16.236 10e-4,0 0.002,0 0.003,-10e-4 -4.322,-2.433 -10.611,-1.259 -12.195,-10.764 1.262,-7.427 5.544,-8.766 13.76,-8.309 7.192,0.4 13.174,1.81 19.525,3.935 -0.999,-0.465 -1.987,-0.972 -2.959,-1.52 -6.143,-3.461 -12.337,-7.826 -16.099,-13.96 -1.704,-2.777 -2.567,-6.732 -1.546,-9.893 1.904,-5.889 12.862,-6.912 16.501,-0.753 0,0.001 10e-4,0.002 0.002,0.003 2.401,-4.208 1.099,-10.411 10.743,-11.806 7.577,1.369 9.013,5.601 8.689,13.671 -0.234,5.82 -1.186,10.818 -2.656,15.869 0.015,-0.027 0.028,-0.054 0.043,-0.08 3.417,-5.98 7.752,-11.995 13.928,-15.59 C -7.243,-0.277 -3.234,-1.059 0,0 Z"
               style="fill:none;stroke:#231f20;stroke-width:0.84;stroke-linecap:butt;stroke-linejoin:miter;stroke-miterlimit:4;stroke-dasharray:none;stroke-opacity:1"
               id="path20122" /></g><g
             id="g20124"
             transform="translate(946.4126,1130.4609)"><path
               d="m 0,0 c 0,0 1.133,-3.138 -2.191,-5.405 -3.324,-2.268 -16.608,8.343 -16.608,8.343 l 0.441,1.957 z"
               style="fill:#231f20;fill-opacity:1;fill-rule:nonzero;stroke:none"
               id="path20126" /></g><g
             id="g20128"
             transform="translate(946.4126,1130.4609)"><path
               d="m 0,0 c 0,0 1.133,-3.138 -2.191,-5.405 -3.324,-2.268 -16.608,8.343 -16.608,8.343 l 0.441,1.957 z"
               style="fill:none;stroke:#231f20;stroke-width:0.84;stroke-linecap:butt;stroke-linejoin:miter;stroke-miterlimit:4;stroke-dasharray:none;stroke-opacity:1"
               id="path20130" /></g></g></g><g
         id="g20132"><g
           id="g20134"><g
             id="g20140"><g
               id="g20142"><path
                 d="m 930.903,1140.867 c -2.536,-0.89 -3.534,-6.251 -3.534,-6.251 v 0 l 20.164,-6.133 c -0.853,11.038 -7.307,13.058 -11.918,13.058 v 0 c -2.663,0 -4.712,-0.674 -4.712,-0.674 m -4.871,-13.223 c 0,0 7.871,-14.033 20.626,-2.105 v 0 l -19.299,9.006 c 0,0 -2.596,-4.532 -1.327,-6.901"
                 style="fill:url(#radialGradient20154);stroke:none"
                 id="path20156" /></g></g></g></g><g
         id="g20158"><g
           id="g20160"
           clip-path="url(#clipPath20164)"><g
             id="g20166"
             transform="translate(927.3691,1134.6169)"><path
               d="m 0,0 c 0,0 0.998,5.36 3.534,6.25 0,0 15.284,5.028 16.63,-12.384 z m 19.289,-9.077 c -12.755,-11.929 -20.627,2.104 -20.627,2.104 -1.268,2.369 1.328,6.901 1.328,6.901 z"
               style="fill:none;stroke:#231f20;stroke-width:0.84;stroke-linecap:butt;stroke-linejoin:miter;stroke-miterlimit:4;stroke-dasharray:none;stroke-opacity:1"
               id="path20168" /></g><g
             id="g20170"
             transform="translate(929.9197,1133.8333)"><path
               d="m 0,0 c -0.351,-0.991 -1.243,-1.579 -1.993,-1.313 -0.75,0.266 -1.074,1.284 -0.723,2.275 0.351,0.991 1.243,1.579 1.993,1.313 C 0.027,2.01 0.351,0.991 0,0"
               style="fill:#231f20;fill-opacity:1;fill-rule:nonzero;stroke:none"
               id="path20172" /></g><g
             id="g20174"
             transform="translate(929.9197,1133.8333)"><path
               d="m 0,0 c -0.351,-0.991 -1.243,-1.579 -1.993,-1.313 -0.75,0.266 -1.074,1.284 -0.723,2.275 0.351,0.991 1.243,1.579 1.993,1.313 C 0.027,2.01 0.351,0.991 0,0 Z"
               style="fill:none;stroke:#231f20;stroke-width:0.84;stroke-linecap:butt;stroke-linejoin:miter;stroke-miterlimit:4;stroke-dasharray:none;stroke-opacity:1"
               id="path20176" /></g><g
             id="g20178"
             transform="translate(932.2344,1126.2721)"><path
               d="m 0,0 c 0.174,-0.783 -0.32,-1.558 -1.103,-1.731 -0.782,-0.174 -1.558,0.32 -1.731,1.103 -0.174,0.782 0.32,1.558 1.103,1.731 C -0.948,1.277 -0.173,0.783 0,0"
               style="fill:#231f20;fill-opacity:1;fill-rule:nonzero;stroke:none"
               id="path20180" /></g><g
             id="g20182"
             transform="translate(937.248,1127.9371)"><path
               d="m 0,0 c 0.224,-1.01 -0.414,-2.01 -1.423,-2.234 -1.01,-0.224 -2.011,0.413 -2.235,1.423 -0.224,1.01 0.414,2.01 1.424,2.234 C -1.224,1.647 -0.224,1.01 0,0"
               style="fill:#231f20;fill-opacity:1;fill-rule:nonzero;stroke:none"
               id="path20184" /></g><g
             id="g20186"
             transform="translate(941.6082,1124.6401)"><path
               d="m 0,0 c 0.163,-0.734 -0.3,-1.46 -1.034,-1.623 -0.734,-0.163 -1.46,0.3 -1.623,1.034 -0.163,0.734 0.3,1.46 1.034,1.623 C -0.889,1.197 -0.163,0.734 0,0"
               style="fill:#231f20;fill-opacity:1;fill-rule:nonzero;stroke:none"
               id="path20188" /></g><g
             id="g20190"
             transform="translate(939.6948,1135.3541)"><path
               d="m 0,0 c 0.207,-0.932 -0.382,-1.856 -1.314,-2.062 -0.932,-0.207 -1.856,0.381 -2.062,1.313 -0.207,0.933 0.381,1.856 1.313,2.063 C -1.13,1.521 -0.207,0.932 0,0"
               style="fill:#231f20;fill-opacity:1;fill-rule:nonzero;stroke:none"
               id="path20192" /></g><g
             id="g20194"
             transform="translate(936.5374,1139.2587)"><path
               d="M 0,0 C 0.152,-0.685 -0.28,-1.363 -0.965,-1.515 -1.65,-1.667 -2.328,-1.235 -2.48,-0.55 -2.632,0.135 -2.2,0.813 -1.515,0.965 -0.83,1.117 -0.152,0.685 0,0"
               style="fill:#231f20;fill-opacity:1;fill-rule:nonzero;stroke:none"
               id="path20196" /></g><g
             id="g20198"
             transform="translate(944.6765,1135.1794)"><path
               d="M 0,0 C 0.152,-0.685 -0.28,-1.363 -0.965,-1.515 -1.65,-1.667 -2.328,-1.235 -2.48,-0.55 -2.632,0.135 -2.2,0.813 -1.515,0.965 -0.83,1.117 -0.152,0.685 0,0"
               style="fill:#231f20;fill-opacity:1;fill-rule:nonzero;stroke:none"
               id="path20200" /></g><g
             id="g20202"
             transform="translate(920.9432,1135.7925)"><path
               d="M 0,0 C 0.453,2.246 3.154,5.301 5.814,4.865 7.866,4.529 6.829,-0.446 6.29,-2.137 5.737,-3.87 4.67,-5.89 2.853,-5.658 -0.289,-5.257 0,0 0,0"
               style="fill:#231f20;fill-opacity:1;fill-rule:nonzero;stroke:none"
               id="path20204" /></g><g
             id="g20206"
             transform="translate(923.8397,1131.3765)"><path
               d="m 0,0 c -0.309,-0.349 -0.991,-0.252 -1.523,0.219 -0.531,0.47 -0.712,1.135 -0.402,1.484 0.309,0.35 0.991,0.252 1.522,-0.218 C 0.129,1.014 0.309,0.35 0,0"
               style="fill:#ffffff;fill-opacity:1;fill-rule:nonzero;stroke:none"
               id="path20208" /></g><g
             id="g20210"
             transform="translate(925.3817,1139.426)"><path
               d="m 0,0 c 0.231,-0.425 -0.114,-1.058 -0.77,-1.414 -0.655,-0.357 -1.374,-0.301 -1.605,0.124 -0.231,0.426 0.114,1.059 0.77,1.415 C -0.95,0.481 -0.231,0.425 0,0"
               style="fill:#ffffff;fill-opacity:1;fill-rule:nonzero;stroke:none"
               id="path20212" /></g><g
             id="g20214"
             transform="translate(921.1414,1132.5111)"><path
               d="m 0,0 c -1.21,-1.238 -8.413,-1.682 -7.687,-3.224 0.525,0.09 0.727,0.242 0.932,0.615 -0.38,0.147 -0.586,0.013 -0.748,-0.038"
               style="fill:none;stroke:#231f20;stroke-width:0.84;stroke-linecap:round;stroke-linejoin:miter;stroke-miterlimit:4;stroke-dasharray:none;stroke-opacity:1"
               id="path20216" /></g><g
             id="g20218"
             transform="translate(922.4409,1138.4841)"><path
               d="m 0,0 c -2.425,0.65 -6.697,2.475 -8.409,4.437 0.173,0.554 0.189,0.646 0.66,0.826 0.188,-0.513 0.223,-0.735 -0.253,-1.126 -0.097,0.07 -0.22,0.259 -0.335,0.355 -0.022,0.21 0.144,0.187 0.155,0.363"
               style="fill:none;stroke:#231f20;stroke-width:0.84;stroke-linecap:round;stroke-linejoin:miter;stroke-miterlimit:4;stroke-dasharray:none;stroke-opacity:1"
               id="path20220" /></g><g
             id="g20222"
             transform="translate(933.6604,1141.6273)"><path
               d="M 0,0 C -0.309,1.397 -0.43,3.071 -1.046,4.337 -1.481,5.233 -2.282,5.765 -2.902,6.681"
               style="fill:none;stroke:#231f20;stroke-width:0.84;stroke-linecap:round;stroke-linejoin:miter;stroke-miterlimit:4;stroke-dasharray:none;stroke-opacity:1"
               id="path20224" /></g><g
             id="g20226"
             transform="translate(940.2244,1141.1147)"><path
               d="M 0,0 C 1.065,3.344 4.448,5.883 3.316,9.7"
               style="fill:none;stroke:#231f20;stroke-width:0.84;stroke-linecap:round;stroke-linejoin:miter;stroke-miterlimit:4;stroke-dasharray:none;stroke-opacity:1"
               id="path20228" /></g><g
             id="g20230"
             transform="translate(946.0842,1135.1785)"><path
               d="M 0,0 C 1.023,0.833 2.366,1.151 3.381,1.983 4.496,2.896 4.366,3.948 4.564,5.057"
               style="fill:none;stroke:#231f20;stroke-width:0.84;stroke-linecap:round;stroke-linejoin:miter;stroke-miterlimit:4;stroke-dasharray:none;stroke-opacity:1"
               id="path20232" /></g><g
             id="g20234"
             transform="translate(927.4819,1125.6082)"><path
               d="M 0,0 C -0.992,-0.864 -2.023,-1.551 -3.35,-1.702 -4.288,-1.809 -5.137,-1.45 -6.056,-1.78"
               style="fill:none;stroke:#231f20;stroke-width:0.84;stroke-linecap:round;stroke-linejoin:miter;stroke-miterlimit:4;stroke-dasharray:none;stroke-opacity:1"
               id="path20236" /></g><g
             id="g20238"
             transform="translate(931.8728,1121.6818)"><path
               d="M 0,0 C -0.612,-1.984 -3.077,-3.772 -4.125,-5.636 -4.595,-6.47 -4.911,-7.175 -5.086,-8.124"
               style="fill:none;stroke:#231f20;stroke-width:0.84;stroke-linecap:round;stroke-linejoin:miter;stroke-miterlimit:4;stroke-dasharray:none;stroke-opacity:1"
               id="path20240" /></g><g
             id="g20242"
             transform="translate(940.3623,1121.1787)"><path
               d="m 0,0 c 0.751,-0.831 2.472,-1.416 3.386,-2.302 1.393,-1.35 1.968,-3.476 2.758,-5.191"
               style="fill:none;stroke:#231f20;stroke-width:0.84;stroke-linecap:round;stroke-linejoin:miter;stroke-miterlimit:4;stroke-dasharray:none;stroke-opacity:1"
               id="path20244" /></g></g></g></g><g
       id="g19616"
       transform="translate(509.1182,476.6299)" /><g
       id="g19802"
       transform="translate(660.1311,507.3477)" /><path
       d="M 0,0 H 1133.858 V 206.361 H 0 Z"
       style="fill:#ffffff;fill-opacity:1;fill-rule:nonzero;stroke:none"
       id="path19924" /><g
       id="g20834"
       transform="matrix(0.87425807,0,0,0.87425807,-589.81405,682.03187)"><g
         id="g19182"><g
           id="g19194"
           transform="translate(858.2178,782.7258)"><path
             d="m 0,0 c 21.457,-1.452 39.036,30.933 23.934,49.741 -0.002,0.003 -0.005,0.006 -0.006,0.009 16.687,2.159 34.976,-9.526 52.043,18.362 5.467,24.968 -6.299,34.622 -32.725,43.627 -21.843,7.442 -41.439,10.674 -62.643,12.184 2.842,0.202 5.693,0.464 8.544,0.834 23.725,3.082 48.758,8.941 68.39,23.455 8.888,6.57 16.631,17.914 17.435,29.158 1.496,20.945 -31.675,38.09 -50.951,23.341 -0.002,-0.003 -0.006,-0.005 -0.008,-0.007 -2.205,16.288 9.774,34.145 -18.79,50.791 -25.578,5.326 -35.474,-6.163 -44.71,-31.961 -7.267,-20.294 -10.645,-38.58 -12.297,-58.14 -0.177,1.861 -0.388,3.725 -0.641,5.588 -3.148,23.156 -9.139,47.588 -24.001,66.744 -6.726,8.672 -18.345,16.225 -29.865,17.005 -21.458,1.452 -39.037,-30.933 -23.933,-49.741 0.002,-0.003 0.005,-0.006 0.007,-0.009 -16.688,-2.159 -34.978,9.526 -52.044,-18.363 -5.468,-24.967 6.299,-34.621 32.725,-43.626 23.135,-7.883 43.745,-11.05 66.424,-12.438 -3.733,-0.191 -7.486,-0.531 -11.24,-1.019 -23.724,-3.082 -48.756,-8.941 -68.388,-23.454 -8.888,-6.57 -16.631,-17.915 -17.435,-29.158 -1.496,-20.946 31.675,-38.091 50.95,-23.341 0.003,0.002 0.005,0.004 0.009,0.006 2.204,-16.288 -9.773,-34.145 18.79,-50.79 25.577,-5.327 35.473,6.162 44.71,31.96 6.662,18.607 10.02,35.538 11.814,53.297 0.013,-0.102 0.021,-0.204 0.036,-0.306 3.147,-23.156 9.139,-47.588 24,-66.744 C -23.139,8.333 -11.519,0.779 0,0"
             style="fill:#bfe588;fill-opacity:1;fill-rule:nonzero;stroke:none"
             id="path19196" /></g></g><g
         id="g19926"><g
           id="g19928"><g
             id="g19934"><g
               id="g19936"><path
                 d="m 806.864,946.39 c -2.906,-8.118 -4.258,-15.433 -4.918,-23.256 v 0 c -0.071,0.744 -0.156,1.489 -0.257,2.234 v 0 c -1.259,9.263 -3.655,19.035 -9.6,26.698 v 0 c -2.691,3.468 -7.339,6.491 -11.946,6.802 v 0 c -8.584,0.581 -15.615,-12.373 -9.574,-19.896 v 0 c 0.001,-10e-4 0.003,-0.003 0.003,-0.004 v 0 c -1.73,-0.224 -3.504,-0.076 -5.3,0.072 v 0 c -5.135,0.423 -10.461,0.846 -15.517,-7.417 v 0 c -2.188,-9.987 2.519,-13.849 13.089,-17.451 v 0 c 9.254,-3.152 17.499,-4.42 26.57,-4.975 v 0 c -1.493,-0.076 -2.994,-0.212 -4.495,-0.408 v 0 c -9.491,-1.233 -19.503,-3.575 -27.356,-9.381 v 0 c -3.555,-2.628 -6.653,-7.166 -6.974,-11.663 v 0 c -0.598,-8.378 12.67,-15.236 20.38,-9.337 v 0 c 10e-4,10e-4 0.002,0.002 0.003,0.003 v 0 c 0.883,-6.515 -3.909,-13.658 7.517,-20.316 v 0 c 10.23,-2.131 14.19,2.464 17.883,12.784 v 0 c 2.666,7.443 4.009,14.215 4.727,21.319 v 0 c 0.005,-0.042 0.008,-0.082 0.013,-0.122 v 0 c 1.26,-9.263 3.656,-19.036 9.601,-26.698 v 0 c 2.691,-3.469 7.338,-6.491 11.946,-6.802 v 0 c 8.583,-0.581 15.614,12.373 9.574,19.896 v 0 c -10e-4,10e-4 -0.002,0.003 -0.003,0.004 v 0 c 1.73,0.223 3.503,0.075 5.299,-0.073 v 0 c 5.135,-0.423 10.461,-0.847 15.518,7.417 v 0 c 2.187,9.988 -2.519,13.849 -13.09,17.451 v 0 c -8.737,2.977 -16.575,4.27 -25.056,4.874 v 0 c 1.136,0.08 2.276,0.185 3.417,0.334 v 0 c 9.49,1.232 19.503,3.576 27.356,9.381 v 0 c 3.554,2.628 6.653,7.166 6.973,11.664 v 0 c 0.599,8.378 -12.669,15.236 -20.38,9.336 v 0 c -0.001,-10e-4 -0.002,-0.002 -0.003,-0.003 v 0 c -0.882,6.516 3.91,13.658 -7.516,20.316 v 0 c -1.639,0.342 -3.119,0.511 -4.461,0.511 v 0 c -7.032,0 -10.32,-4.63 -13.423,-13.294"
                 style="fill:url(#radialGradient19948);stroke:none"
                 id="path19950" /></g></g></g></g><g
         id="g19952"><g
           id="g19954"
           clip-path="url(#clipPath19958)"><g
             id="g19960"
             transform="translate(822.6592,858.5757)"><path
               d="m 0,0 c 8.583,-0.581 15.615,12.373 9.574,19.897 -10e-4,0.001 -0.002,0.002 -0.003,0.003 6.675,0.864 13.991,-3.81 20.817,7.345 2.187,9.987 -2.519,13.849 -13.09,17.45 -8.737,2.978 -16.575,4.27 -25.057,4.874 1.137,0.081 2.278,0.186 3.418,0.334 9.49,1.233 19.503,3.576 27.356,9.382 3.554,2.628 6.652,7.166 6.973,11.663 0.599,8.378 -12.669,15.236 -20.38,9.336 -0.001,-0.001 -0.002,-0.001 -0.003,-0.002 -0.882,6.515 3.91,13.658 -7.516,20.316 -10.231,2.131 -14.19,-2.465 -17.884,-12.784 -2.906,-8.118 -4.258,-15.433 -4.918,-23.256 -0.072,0.744 -0.156,1.49 -0.257,2.235 -1.259,9.262 -3.656,19.035 -9.6,26.697 -2.691,3.469 -7.339,6.491 -11.946,6.802 -8.584,0.581 -15.615,-12.373 -9.574,-19.896 0.001,-0.001 0.002,-0.002 0.003,-0.003 -6.675,-0.864 -13.991,3.81 -20.817,-7.346 -2.188,-9.987 2.519,-13.848 13.09,-17.45 9.253,-3.153 17.498,-4.42 26.569,-4.975 -1.493,-0.077 -2.994,-0.213 -4.496,-0.408 -9.489,-1.233 -19.502,-3.576 -27.355,-9.382 -3.555,-2.628 -6.653,-7.166 -6.974,-11.663 -0.598,-8.378 12.67,-15.236 20.38,-9.336 10e-4,0.001 0.002,0.001 0.003,0.002 0.883,-6.515 -3.909,-13.658 7.517,-20.316 10.231,-2.131 14.189,2.465 17.883,12.784 2.665,7.443 4.008,14.215 4.726,21.319 0.006,-0.041 0.009,-0.082 0.015,-0.123 1.258,-9.262 3.655,-19.035 9.6,-26.697 C -9.255,3.333 -4.608,0.312 0,0 Z"
               style="fill:none;stroke:#231f20;stroke-width:1.14;stroke-linecap:butt;stroke-linejoin:miter;stroke-miterlimit:4;stroke-dasharray:none;stroke-opacity:1"
               id="path19962" /></g><g
             id="g19964"
             transform="translate(815.937,900.5682)"><path
               d="m 0,0 c 0,0 -0.17,-4.524 -5.505,-5.688 -5.335,-1.163 -16.657,18.943 -16.657,18.943 l 1.549,2.237 z"
               style="fill:#231f20;fill-opacity:1;fill-rule:nonzero;stroke:none"
               id="path19966" /></g><g
             id="g19968"
             transform="translate(815.937,900.5682)"><path
               d="m 0,0 c 0,0 -0.17,-4.524 -5.505,-5.688 -5.335,-1.163 -16.657,18.943 -16.657,18.943 l 1.549,2.237 z"
               style="fill:none;stroke:#231f20;stroke-width:1.14;stroke-linecap:butt;stroke-linejoin:miter;stroke-miterlimit:4;stroke-dasharray:none;stroke-opacity:1"
               id="path19970" /></g></g></g><g
         id="g19972"><g
           id="g19974"><g
             id="g19980"><g
               id="g19982"><path
                 d="m 794.087,915.479 22.254,-17.969 c 7.159,22.593 -14.629,24.037 -14.629,24.037 v 0 c -0.049,0.002 -0.097,0.003 -0.147,0.003 v 0 c -3.602,0 -7.478,-6.071 -7.478,-6.071 m -5.228,-8.094 c 0,0 2.77,-21.66 24.886,-13.134 v 0 l -19.706,21.143 c 0,0 -5.572,-4.383 -5.18,-8.009"
                 style="fill:url(#radialGradient19994);stroke:none"
                 id="path19996" /></g></g></g></g><g
         id="g19998"><g
           id="g20000"
           clip-path="url(#clipPath20004)"><g
             id="g20006"
             transform="translate(794.0874,915.4794)"><path
               d="m 0,0 c 0,0 3.981,6.237 7.624,6.067 0,0 21.789,-1.443 14.63,-24.037 z m 19.657,-21.229 c -22.115,-8.525 -24.885,13.135 -24.885,13.135 -0.392,3.626 5.179,8.009 5.179,8.009 z"
               style="fill:none;stroke:#231f20;stroke-width:1.14;stroke-linecap:butt;stroke-linejoin:miter;stroke-miterlimit:4;stroke-dasharray:none;stroke-opacity:1"
               id="path20008" /></g><g
             id="g20010"
             transform="translate(796.8982,913.1968)"><path
               d="M 0,0 C -0.945,-1.069 -2.367,-1.354 -3.176,-0.639 -3.985,0.077 -3.874,1.523 -2.929,2.591 -1.984,3.66 -0.562,3.946 0.247,3.23 1.056,2.514 0.945,1.068 0,0"
               style="fill:#231f20;fill-opacity:1;fill-rule:nonzero;stroke:none"
               id="path20012" /></g><g
             id="g20014"
             transform="translate(796.8982,913.1968)"><path
               d="M 0,0 C -0.945,-1.069 -2.367,-1.354 -3.176,-0.639 -3.985,0.077 -3.874,1.523 -2.929,2.591 -1.984,3.66 -0.562,3.946 0.247,3.23 1.056,2.514 0.945,1.068 0,0 Z"
               style="fill:none;stroke:#231f20;stroke-width:1.14;stroke-linecap:butt;stroke-linejoin:miter;stroke-miterlimit:4;stroke-dasharray:none;stroke-opacity:1"
               id="path20016" /></g><g
             id="g20018"
             transform="translate(795.9668,902.5054)"><path
               d="m 0,0 c -0.179,-1.073 -1.195,-1.797 -2.268,-1.618 -1.073,0.18 -1.797,1.195 -1.618,2.268 0.18,1.073 1.196,1.798 2.268,1.618 C -0.544,2.088 0.18,1.073 0,0"
               style="fill:#231f20;fill-opacity:1;fill-rule:nonzero;stroke:none"
               id="path20020" /></g><g
             id="g20022"
             transform="translate(803.1216,902.0517)"><path
               d="m 0,0 c -0.231,-1.385 -1.542,-2.319 -2.927,-2.088 -1.385,0.232 -2.319,1.542 -2.088,2.927 0.232,1.385 1.543,2.32 2.928,2.088 C -0.703,2.695 0.232,1.385 0,0"
               style="fill:#231f20;fill-opacity:1;fill-rule:nonzero;stroke:none"
               id="path20024" /></g><g
             id="g20026"
             transform="translate(806.9316,895.6863)"><path
               d="m 0,0 c -0.168,-1.006 -1.121,-1.685 -2.126,-1.517 -1.006,0.169 -1.685,1.121 -1.517,2.127 0.168,1.006 1.121,1.685 2.127,1.516 C -0.511,1.958 0.168,1.006 0,0"
               style="fill:#231f20;fill-opacity:1;fill-rule:nonzero;stroke:none"
               id="path20028" /></g><g
             id="g20030"
             transform="translate(809.9714,910.1408)"><path
               d="m 0,0 c -0.214,-1.278 -1.424,-2.141 -2.702,-1.927 -1.278,0.214 -2.141,1.423 -1.927,2.702 0.214,1.278 1.423,2.141 2.702,1.927 C -0.649,2.488 0.214,1.278 0,0"
               style="fill:#231f20;fill-opacity:1;fill-rule:nonzero;stroke:none"
               id="path20032" /></g><g
             id="g20034"
             transform="translate(807.9834,916.6593)"><path
               d="M 0,0 C -0.157,-0.939 -1.046,-1.573 -1.985,-1.416 -2.924,-1.258 -3.558,-0.37 -3.4,0.569 -3.243,1.508 -2.354,2.142 -1.416,1.985 -0.477,1.827 0.157,0.939 0,0"
               style="fill:#231f20;fill-opacity:1;fill-rule:nonzero;stroke:none"
               id="path20036" /></g><g
             id="g20038"
             transform="translate(816.1514,907.3884)"><path
               d="m 0,0 c -0.157,-0.939 -1.046,-1.573 -1.984,-1.416 -0.94,0.158 -1.573,1.046 -1.416,1.985 0.157,0.939 1.046,1.573 1.985,1.416 C -0.477,1.827 0.157,0.939 0,0"
               style="fill:#231f20;fill-opacity:1;fill-rule:nonzero;stroke:none"
               id="path20040" /></g><g
             id="g20042"
             transform="translate(786.5989,920.2254)"><path
               d="M 0,0 C 1.712,2.596 6.664,5.066 9.789,3.166 12.2,1.7 8.366,-4.033 6.828,-5.886 5.252,-7.786 2.882,-9.785 0.713,-8.57 -3.036,-6.468 0,0 0,0"
               style="fill:#231f20;fill-opacity:1;fill-rule:nonzero;stroke:none"
               id="path20044" /></g><g
             id="g20046"
             transform="translate(787.9986,913.1963)"><path
               d="M 0,0 C -0.567,-0.283 -1.375,0.187 -1.805,1.05 -2.235,1.912 -2.124,2.84 -1.557,3.122 -0.99,3.405 -0.182,2.935 0.248,2.073 0.678,1.211 0.567,0.283 0,0"
               style="fill:#ffffff;fill-opacity:1;fill-rule:nonzero;stroke:none"
               id="path20048" /></g><g
             id="g20050"
             transform="translate(794.0315,922.5411)"><path
               d="m 0,0 c 0.074,-0.652 -0.681,-1.274 -1.688,-1.389 -1.006,-0.114 -1.882,0.321 -1.956,0.974 -0.074,0.652 0.681,1.274 1.687,1.389 C -0.95,1.088 -0.074,0.652 0,0"
               style="fill:#ffffff;fill-opacity:1;fill-rule:nonzero;stroke:none"
               id="path20052" /></g><g
             id="g20054"
             transform="translate(785.1799,915.9957)"><path
               d="m 0,0 c -2.153,-0.943 -11.442,2.16 -11.311,-0.149 0.706,-0.153 1.037,-0.065 1.485,0.3 -0.404,0.378 -0.731,0.315 -0.961,0.332"
               style="fill:none;stroke:#231f20;stroke-width:1.14;stroke-linecap:round;stroke-linejoin:miter;stroke-miterlimit:4;stroke-dasharray:none;stroke-opacity:1"
               id="path20056" /></g><g
             id="g20058"
             transform="translate(789.8516,922.851)"><path
               d="m 0,0 c -2.721,2.05 -7.168,6.518 -8.326,9.859 0.5,0.608 0.567,0.716 1.252,0.703 -0.025,-0.74 -0.094,-1.038 -0.891,-1.288 -0.087,0.137 -0.145,0.437 -0.242,0.617 0.08,0.276 0.277,0.162 0.379,0.378"
               style="fill:none;stroke:#231f20;stroke-width:1.14;stroke-linecap:round;stroke-linejoin:miter;stroke-miterlimit:4;stroke-dasharray:none;stroke-opacity:1"
               id="path20060" /></g><g
             id="g20062"
             transform="translate(805.5679,921.1023)"><path
               d="M 0,0 C 0.321,1.915 1.02,4.083 0.889,5.99 0.796,7.338 0.059,8.414 -0.256,9.883"
               style="fill:none;stroke:#231f20;stroke-width:1.14;stroke-linecap:round;stroke-linejoin:miter;stroke-miterlimit:4;stroke-dasharray:none;stroke-opacity:1"
               id="path20064" /></g><g
             id="g20066"
             transform="translate(813.5662,917.1201)"><path
               d="M 0,0 C 3.041,3.666 8.588,5.142 9.104,10.52"
               style="fill:none;stroke:#231f20;stroke-width:1.14;stroke-linecap:round;stroke-linejoin:miter;stroke-miterlimit:4;stroke-dasharray:none;stroke-opacity:1"
               id="path20068" /></g><g
             id="g20070"
             transform="translate(817.9219,906.6714)"><path
               d="M 0,0 C 1.712,0.528 3.562,0.246 5.263,0.776 7.13,1.358 7.502,2.748 8.313,4.043"
               style="fill:none;stroke:#231f20;stroke-width:1.14;stroke-linecap:round;stroke-linejoin:miter;stroke-miterlimit:4;stroke-dasharray:none;stroke-opacity:1"
               id="path20072" /></g><g
             id="g20074"
             transform="translate(789.6489,904.0861)"><path
               d="m 0,0 c -1.688,-0.583 -3.334,-0.922 -5.08,-0.439 -1.235,0.343 -2.122,1.226 -3.445,1.278"
               style="fill:none;stroke:#231f20;stroke-width:1.14;stroke-linecap:round;stroke-linejoin:miter;stroke-miterlimit:4;stroke-dasharray:none;stroke-opacity:1"
               id="path20076" /></g><g
             id="g20078"
             transform="translate(793.1777,896.9133)"><path
               d="M 0,0 C -1.779,-2.186 -5.789,-3.182 -8.056,-4.995 -9.071,-5.806 -9.827,-6.531 -10.53,-7.637"
               style="fill:none;stroke:#231f20;stroke-width:1.14;stroke-linecap:round;stroke-linejoin:miter;stroke-miterlimit:4;stroke-dasharray:none;stroke-opacity:1"
               id="path20080" /></g><g
             id="g20082"
             transform="translate(803.6047,891.964)"><path
               d="M 0,0 C 0.523,-1.428 2.391,-3.039 3.091,-4.619 4.157,-7.025 3.8,-9.992 3.921,-12.552"
               style="fill:none;stroke:#231f20;stroke-width:1.14;stroke-linecap:round;stroke-linejoin:miter;stroke-miterlimit:4;stroke-dasharray:none;stroke-opacity:1"
               id="path20084" /></g></g></g></g></g></svg>
