<?xml version="1.0" encoding="UTF-8" standalone="no"?>
<!-- Created with Inkscape (http://www.inkscape.org/) -->

<svg
   width="1000"
   height="500"
   viewBox="0 0 264.58333 132.29167"
   version="1.1"
   id="svg68837"
   inkscape:version="1.1.1 (1:1.1+202109281949+c3084ef5ed)"
   sodipodi:docname="footer-horses.svg"
   xmlns:inkscape="http://www.inkscape.org/namespaces/inkscape"
   xmlns:sodipodi="http://sodipodi.sourceforge.net/DTD/sodipodi-0.dtd"
   xmlns="http://www.w3.org/2000/svg"
   xmlns:svg="http://www.w3.org/2000/svg">
  <sodipodi:namedview
     id="namedview68839"
     pagecolor="#ffffff"
     bordercolor="#666666"
     borderopacity="1.0"
     inkscape:pageshadow="2"
     inkscape:pageopacity="0.0"
     inkscape:pagecheckerboard="0"
     inkscape:document-units="mm"
     showgrid="false"
     units="px"
     inkscape:zoom="0.75187991"
     inkscape:cx="603.15483"
     inkscape:cy="303.23992"
     inkscape:window-width="1920"
     inkscape:window-height="1043"
     inkscape:window-x="1920"
     inkscape:window-y="0"
     inkscape:window-maximized="1"
     inkscape:current-layer="layer1"
     height="600px" />
  <defs
     id="defs68834">
    <clipPath
       clipPathUnits="userSpaceOnUse"
       id="clipPath4054">
      <path
         d="M 0,0 H 1133.858 V 1814.173 H 0 Z"
         id="path4052" />
    </clipPath>
    <clipPath
       clipPathUnits="userSpaceOnUse"
       id="clipPath2060">
      <path
         d="M 0,0 H 1133.858 V 1814.173 H 0 Z"
         id="path2058" />
    </clipPath>
    <clipPath
       clipPathUnits="userSpaceOnUse"
       id="clipPath1874">
      <path
         d="M 0,0 H 1133.858 V 1814.173 H 0 Z"
         id="path1872" />
    </clipPath>
    <clipPath
       clipPathUnits="userSpaceOnUse"
       id="clipPath1736">
      <path
         d="M 0,0 H 1133.858 V 1814.173 H 0 Z"
         id="path1734" />
    </clipPath>
    <clipPath
       clipPathUnits="userSpaceOnUse"
       id="clipPath1712">
      <path
         d="M 0,0 H 1133.858 V 1814.173 H 0 Z"
         id="path1710" />
    </clipPath>
    <clipPath
       clipPathUnits="userSpaceOnUse"
       id="clipPath1688">
      <path
         d="M 0,0 H 1133.858 V 1814.173 H 0 Z"
         id="path1686" />
    </clipPath>
    <clipPath
       clipPathUnits="userSpaceOnUse"
       id="clipPath1660">
      <path
         d="m 458.02,1717.062 14.486,-33.667 -0.113,-0.021 -22.084,32.617 -24.607,-3.417 21.836,-49.448 13.686,2.829 -15.314,35.077 0.12,0.019 23.174,-33.446 21.895,4.523 -19.904,46.764 z"
         id="path1658" />
    </clipPath>
    <clipPath
       clipPathUnits="userSpaceOnUse"
       id="clipPath1636">
      <path
         d="m 375.218,1705.563 24.086,-52.409 39.834,8.228 -5.282,11.875 -22.539,-4.284 -3.145,6.94 21.288,3.851 -5.364,12.044 -21.522,-3.54 -3.32,7.327 22.623,3.506 -5.422,12.187 z"
         id="path1634" />
    </clipPath>
    <clipPath
       clipPathUnits="userSpaceOnUse"
       id="clipPath1620">
      <path
         d="M 0,0 H 1133.858 V 1814.173 H 0 Z"
         id="path1618" />
    </clipPath>
    <clipPath
       clipPathUnits="userSpaceOnUse"
       id="clipPath1604">
      <path
         d="m 344.146,1702.247 c -17.579,-2.422 -28.776,-14.163 -19.646,-33.107 v 0 c 9.591,-19.896 28.661,-26.55 45.998,-22.945 v 0 c 7.982,1.66 13.804,3.776 19.343,7.126 v 0 l -11.408,24.67 -16.762,-2.887 6.702,-14.303 c -0.962,-0.684 -2.581,-0.992 -3.988,-1.261 v 0 c -7.999,-1.528 -14.059,4.458 -17.625,11.978 v 0 c -4.744,10.007 -0.45,16.364 9.643,17.926 v 0 c 5.59,0.863 11.458,0.287 15.005,-0.966 v 0 l -6.698,14.463 c -2.339,0.233 -4.596,0.39 -7.178,0.39 v 0 c -3.518,0 -7.638,-0.292 -13.386,-1.084"
         id="path1602" />
    </clipPath>
    <clipPath
       clipPathUnits="userSpaceOnUse"
       id="clipPath1592">
      <path
         d="M 0,0 H 1133.858 V 1814.173 H 0 Z"
         id="path1590" />
    </clipPath>
    <clipPath
       clipPathUnits="userSpaceOnUse"
       id="clipPath1572">
      <path
         d="m 283.474,1692.811 20.133,-40.92 -0.171,-0.031 -31.631,39.331 -37.599,-5.225 30.857,-60.555 20.817,4.304 -21.45,42.749 0.184,0.028 33.326,-40.285 32.78,6.778 -27.436,56.58 z"
         id="path1570" />
    </clipPath>
    <clipPath
       clipPathUnits="userSpaceOnUse"
       id="clipPath1548">
      <path
         d="m 191.088,1679.938 33.168,-63.047 26.07,5.452 -31.724,61.467 z"
         id="path1546" />
    </clipPath>
    <clipPath
       clipPathUnits="userSpaceOnUse"
       id="clipPath1532">
      <path
         d="M 0,0 H 1133.858 V 1814.173 H 0 Z"
         id="path1530" />
    </clipPath>
    <clipPath
       clipPathUnits="userSpaceOnUse"
       id="clipPath1516">
      <path
         d="m 146.065,1674.958 c -18.703,-2.577 -41.286,-9.337 -30.721,-28.32 v 0 c 9.279,-16.674 27.897,-16.5 41.539,-16.324 v 0 c 7.943,0.102 14.2,0.203 15.943,-3.02 v 0 c 1.756,-3.249 -3.924,-5.668 -11.011,-7.025 v 0 c -9.139,-1.75 -20.219,-2.184 -30.359,-0.918 v 0 l 9.642,-17.335 c 12.867,0.224 23.084,1.301 34.602,3.696 v 0 c 16.868,3.508 34.074,11.756 25.145,28.608 v 0 c -8.167,15.414 -25.531,15.387 -38.515,15.36 v 0 c -7.725,-0.016 -13.9,-0.032 -15.663,3.205 v 0 c -2.348,4.31 6.023,5.703 10.811,6.441 v 0 c 8.555,1.318 17.121,1.223 24.709,0.292 v 0 l -8.868,16.681 c -1.729,0.056 -3.497,0.084 -5.285,0.084 v 0 c -7.349,0 -15.052,-0.47 -21.969,-1.425"
         id="path1514" />
    </clipPath>
    <clipPath
       clipPathUnits="userSpaceOnUse"
       id="clipPath1504">
      <path
         d="M 0,0 H 1133.858 V 1814.173 H 0 Z"
         id="path1502" />
    </clipPath>
    <clipPath
       clipPathUnits="userSpaceOnUse"
       id="clipPath1484">
      <path
         d="M 0,0 H 1133.858 V 1814.173 H 0 Z"
         id="path1482" />
    </clipPath>
    <clipPath
       clipPathUnits="userSpaceOnUse"
       id="clipPath1456">
      <path
         d="M 0,0 H 1133.858 V 1814.173 H 0 Z"
         id="path1454" />
    </clipPath>
    <linearGradient
       x1="0"
       y1="0"
       x2="1"
       y2="0"
       gradientUnits="userSpaceOnUse"
       gradientTransform="matrix(-0.966095,553.54034,553.54034,0.966095,572.42639,1281.2676)"
       spreadMethod="pad"
       id="linearGradient54">
      <stop
         style="stop-opacity:1;stop-color:#cceffc"
         offset="0"
         id="stop46" />
      <stop
         style="stop-opacity:1;stop-color:#99def9"
         offset="0.999939"
         id="stop48" />
      <stop
         style="stop-opacity:1;stop-color:#99def9"
         offset="0.99994351"
         id="stop50" />
      <stop
         style="stop-opacity:1;stop-color:#99def9"
         offset="1"
         id="stop52" />
    </linearGradient>
    <linearGradient
       x1="0"
       y1="0"
       x2="1"
       y2="0"
       gradientUnits="userSpaceOnUse"
       gradientTransform="matrix(18.58025,208.18767,-208.18767,18.58025,81.669914,307.25296)"
       spreadMethod="pad"
       id="linearGradient30">
      <stop
         style="stop-opacity:1;stop-color:#cceffc"
         offset="0"
         id="stop22" />
      <stop
         style="stop-opacity:1;stop-color:#99def9"
         offset="0.999939"
         id="stop24" />
      <stop
         style="stop-opacity:1;stop-color:#99def9"
         offset="0.99994351"
         id="stop26" />
      <stop
         style="stop-opacity:1;stop-color:#99def9"
         offset="1"
         id="stop28" />
    </linearGradient>
    <clipPath
       clipPathUnits="userSpaceOnUse"
       id="clipPath4054-1">
      <path
         d="M 0,0 H 1133.858 V 1814.173 H 0 Z"
         id="path4052-2" />
    </clipPath>
    <clipPath
       clipPathUnits="userSpaceOnUse"
       id="clipPath2060-7">
      <path
         d="M 0,0 H 1133.858 V 1814.173 H 0 Z"
         id="path2058-0" />
    </clipPath>
    <clipPath
       clipPathUnits="userSpaceOnUse"
       id="clipPath1874-9">
      <path
         d="M 0,0 H 1133.858 V 1814.173 H 0 Z"
         id="path1872-3" />
    </clipPath>
    <clipPath
       clipPathUnits="userSpaceOnUse"
       id="clipPath1736-6">
      <path
         d="M 0,0 H 1133.858 V 1814.173 H 0 Z"
         id="path1734-0" />
    </clipPath>
    <clipPath
       clipPathUnits="userSpaceOnUse"
       id="clipPath1712-6">
      <path
         d="M 0,0 H 1133.858 V 1814.173 H 0 Z"
         id="path1710-2" />
    </clipPath>
    <clipPath
       clipPathUnits="userSpaceOnUse"
       id="clipPath1688-6">
      <path
         d="M 0,0 H 1133.858 V 1814.173 H 0 Z"
         id="path1686-1" />
    </clipPath>
    <clipPath
       clipPathUnits="userSpaceOnUse"
       id="clipPath1660-8">
      <path
         d="m 458.02,1717.062 14.486,-33.667 -0.113,-0.021 -22.084,32.617 -24.607,-3.417 21.836,-49.448 13.686,2.829 -15.314,35.077 0.12,0.019 23.174,-33.446 21.895,4.523 -19.904,46.764 z"
         id="path1658-7" />
    </clipPath>
    <clipPath
       clipPathUnits="userSpaceOnUse"
       id="clipPath1636-9">
      <path
         d="m 375.218,1705.563 24.086,-52.409 39.834,8.228 -5.282,11.875 -22.539,-4.284 -3.145,6.94 21.288,3.851 -5.364,12.044 -21.522,-3.54 -3.32,7.327 22.623,3.506 -5.422,12.187 z"
         id="path1634-2" />
    </clipPath>
    <clipPath
       clipPathUnits="userSpaceOnUse"
       id="clipPath1620-0">
      <path
         d="M 0,0 H 1133.858 V 1814.173 H 0 Z"
         id="path1618-2" />
    </clipPath>
    <clipPath
       clipPathUnits="userSpaceOnUse"
       id="clipPath1604-3">
      <path
         d="m 344.146,1702.247 c -17.579,-2.422 -28.776,-14.163 -19.646,-33.107 v 0 c 9.591,-19.896 28.661,-26.55 45.998,-22.945 v 0 c 7.982,1.66 13.804,3.776 19.343,7.126 v 0 l -11.408,24.67 -16.762,-2.887 6.702,-14.303 c -0.962,-0.684 -2.581,-0.992 -3.988,-1.261 v 0 c -7.999,-1.528 -14.059,4.458 -17.625,11.978 v 0 c -4.744,10.007 -0.45,16.364 9.643,17.926 v 0 c 5.59,0.863 11.458,0.287 15.005,-0.966 v 0 l -6.698,14.463 c -2.339,0.233 -4.596,0.39 -7.178,0.39 v 0 c -3.518,0 -7.638,-0.292 -13.386,-1.084"
         id="path1602-7" />
    </clipPath>
    <clipPath
       clipPathUnits="userSpaceOnUse"
       id="clipPath1592-5">
      <path
         d="M 0,0 H 1133.858 V 1814.173 H 0 Z"
         id="path1590-9" />
    </clipPath>
    <clipPath
       clipPathUnits="userSpaceOnUse"
       id="clipPath1572-2">
      <path
         d="m 283.474,1692.811 20.133,-40.92 -0.171,-0.031 -31.631,39.331 -37.599,-5.225 30.857,-60.555 20.817,4.304 -21.45,42.749 0.184,0.028 33.326,-40.285 32.78,6.778 -27.436,56.58 z"
         id="path1570-2" />
    </clipPath>
    <clipPath
       clipPathUnits="userSpaceOnUse"
       id="clipPath1548-8">
      <path
         d="m 191.088,1679.938 33.168,-63.047 26.07,5.452 -31.724,61.467 z"
         id="path1546-9" />
    </clipPath>
    <clipPath
       clipPathUnits="userSpaceOnUse"
       id="clipPath1532-7">
      <path
         d="M 0,0 H 1133.858 V 1814.173 H 0 Z"
         id="path1530-3" />
    </clipPath>
    <clipPath
       clipPathUnits="userSpaceOnUse"
       id="clipPath1516-6">
      <path
         d="m 146.065,1674.958 c -18.703,-2.577 -41.286,-9.337 -30.721,-28.32 v 0 c 9.279,-16.674 27.897,-16.5 41.539,-16.324 v 0 c 7.943,0.102 14.2,0.203 15.943,-3.02 v 0 c 1.756,-3.249 -3.924,-5.668 -11.011,-7.025 v 0 c -9.139,-1.75 -20.219,-2.184 -30.359,-0.918 v 0 l 9.642,-17.335 c 12.867,0.224 23.084,1.301 34.602,3.696 v 0 c 16.868,3.508 34.074,11.756 25.145,28.608 v 0 c -8.167,15.414 -25.531,15.387 -38.515,15.36 v 0 c -7.725,-0.016 -13.9,-0.032 -15.663,3.205 v 0 c -2.348,4.31 6.023,5.703 10.811,6.441 v 0 c 8.555,1.318 17.121,1.223 24.709,0.292 v 0 l -8.868,16.681 c -1.729,0.056 -3.497,0.084 -5.285,0.084 v 0 c -7.349,0 -15.052,-0.47 -21.969,-1.425"
         id="path1514-1" />
    </clipPath>
    <clipPath
       clipPathUnits="userSpaceOnUse"
       id="clipPath1504-2">
      <path
         d="M 0,0 H 1133.858 V 1814.173 H 0 Z"
         id="path1502-9" />
    </clipPath>
    <clipPath
       clipPathUnits="userSpaceOnUse"
       id="clipPath1484-3">
      <path
         d="M 0,0 H 1133.858 V 1814.173 H 0 Z"
         id="path1482-1" />
    </clipPath>
    <clipPath
       clipPathUnits="userSpaceOnUse"
       id="clipPath1456-9">
      <path
         d="M 0,0 H 1133.858 V 1814.173 H 0 Z"
         id="path1454-4" />
    </clipPath>
    <linearGradient
       x1="0"
       y1="0"
       x2="1"
       y2="0"
       gradientUnits="userSpaceOnUse"
       gradientTransform="matrix(12.290064,137.7075,-137.7075,12.290064,125.32865,44.331844)"
       spreadMethod="pad"
       id="linearGradient30-0">
      <stop
         style="stop-opacity:1;stop-color:#cceffc"
         offset="0"
         id="stop22-3" />
      <stop
         style="stop-opacity:1;stop-color:#99def9"
         offset="0.999939"
         id="stop24-6" />
      <stop
         style="stop-opacity:1;stop-color:#99def9"
         offset="0.99994351"
         id="stop26-1" />
      <stop
         style="stop-opacity:1;stop-color:#99def9"
         offset="1"
         id="stop28-0" />
    </linearGradient>
  </defs>
  <g
     inkscape:label="Layer 1"
     inkscape:groupmode="layer"
     id="layer1">
    <g
       id="g14477">
      <rect
         style="fill:none;fill-rule:evenodd;stroke-width:0.264583"
         id="rect4528"
         width="264.58334"
         height="105.83334"
         x="8.8817842e-16"
         y="0" />
      <path
         id="path32"
         style="fill:url(#linearGradient30-0);stroke:none;stroke-width:0.233346"
         d="M 264.5833,45.291374 154.14905,53.939336 84.61093,67.547093 0,73.135785 v 59.155885 h 264.5833 z"
         sodipodi:nodetypes="ccccccc" />
      <g
         id="g1448"
         transform="matrix(0.35277777,0,0,-0.35277777,-88.77957,-278.25035)" />
      <g
         id="g1730"
         transform="matrix(0.23334786,0,0,-0.23334712,0,105.83345)">
        <g
           id="g1732"
           clip-path="url(#clipPath1736-6)">
          <g
             id="g1738"
             transform="translate(493.7822,365.9277)">
            <path
               d="m 0,0 c 3.749,-11.457 4.13,-23.61 7.102,-35.15 1.394,-5.416 6.343,-19.555 6.985,-25.117 0.425,-3.679 -1.744,2.954 -6.616,2.034 -6.293,-1.188 -11.096,-4.122 -11.892,0.574 -2.212,13.031 0.684,32.158 -3.161,44.801 -0.501,1.646 -0.319,2.985 -0.445,4.348 -0.077,0.832 -0.778,2.364 -0.303,3.132 1.411,2.28 4.817,-0.335 6.518,0.147 0.818,-0.84 2.423,-1.44 3.701,-1.465 0.232,-0.228 0.346,-0.506 0.342,-0.835"
               style="fill:#cf5021;fill-opacity:1;fill-rule:nonzero;stroke:none"
               id="path1740" />
          </g>
          <g
             id="g1742"
             transform="translate(493.7822,365.9277)">
            <path
               d="m 0,0 c 3.749,-11.457 4.13,-23.61 7.102,-35.15 1.394,-5.416 6.343,-19.555 6.985,-25.117 0.425,-3.679 -1.744,2.954 -6.616,2.034 -6.293,-1.188 -11.096,-4.122 -11.892,0.574 -2.212,13.031 0.684,32.158 -3.161,44.801 -0.501,1.646 -0.319,2.985 -0.445,4.348 -0.077,0.832 -0.778,2.364 -0.303,3.132 1.411,2.28 4.817,-0.335 6.518,0.147 0.818,-0.84 2.423,-1.44 3.701,-1.465 0.232,-0.228 0.346,-0.506 0.342,-0.835"
               style="fill:none;stroke:#231f20;stroke-width:1.547;stroke-linecap:butt;stroke-linejoin:miter;stroke-miterlimit:4;stroke-dasharray:none;stroke-opacity:1"
               id="path1744" />
          </g>
          <g
             id="g1746"
             transform="translate(496.6265,274.5322)">
            <path
               d="m 0,0 c 3.646,-7.028 10.104,-12.148 11.149,-20.021 0.492,-3.707 -3.82,-12.372 -4.451,-16.044 -0.451,-2.633 -1.72,-5.644 -1.066,-8.342"
               style="fill:none;stroke:#231f20;stroke-width:3.817;stroke-linecap:butt;stroke-linejoin:miter;stroke-miterlimit:4;stroke-dasharray:none;stroke-opacity:1"
               id="path1748" />
          </g>
          <g
             id="g1750"
             transform="translate(451.626,271.7949)">
            <path
               d="m 0,0 c -5.806,-3.37 -12.028,-9.707 -15.98,-14.959 -1.182,-1.568 -2.072,-4.847 -4.108,-5.343 3.218,-11.987 5.816,-23.737 6.581,-36.143 0.099,-1.597 0.126,-2.611 -0.119,-3.995"
               style="fill:none;stroke:#231f20;stroke-width:3.817;stroke-linecap:butt;stroke-linejoin:miter;stroke-miterlimit:4;stroke-dasharray:none;stroke-opacity:1"
               id="path1752" />
          </g>
          <g
             id="g1754"
             transform="translate(459.21,274.3818)">
            <path
               d="m 0,0 c -1.382,-7.228 -2.654,-14.452 -3.679,-21.74 -0.536,-3.815 -1.843,-5.573 0.62,-8.409 5.102,-5.873 11.401,-11.448 15.451,-18.151 1.373,-2.274 1.605,-5.09 2.467,-7.665"
               style="fill:none;stroke:#231f20;stroke-width:3.817;stroke-linecap:butt;stroke-linejoin:miter;stroke-miterlimit:4;stroke-dasharray:none;stroke-opacity:1"
               id="path1756" />
          </g>
          <g
             id="g1758"
             transform="translate(507.6609,281.1895)">
            <path
               d="m 0,0 c 5.074,-2.388 7.717,-10.286 10.741,-14.693 4.554,-6.635 10.063,-12.674 15.784,-18.248 3.057,-2.978 4.023,-4.474 5.197,-8.44"
               style="fill:none;stroke:#231f20;stroke-width:3.817;stroke-linecap:butt;stroke-linejoin:miter;stroke-miterlimit:4;stroke-dasharray:none;stroke-opacity:1"
               id="path1760" />
          </g>
          <g
             id="g1762"
             transform="translate(488.8096,368.7402)">
            <path
               d="m 0,0 c -5.075,-2.106 -9.39,1.539 -12.43,5.593 -1.613,2.15 -4.291,3.414 -5.188,5.981 -0.75,2.147 -0.607,4.082 -1.1,6.292 -0.905,4.045 0.568,7.071 -2.233,10.122 2.849,-3.655 7.277,-4.621 11.261,-6.454 2.029,-0.934 4.041,-2.003 5.573,-3.656 2.4,-2.591 3.115,-6.203 5.731,-8.824"
               style="fill:#cf5021;fill-opacity:1;fill-rule:nonzero;stroke:none"
               id="path1764" />
          </g>
          <g
             id="g1766"
             transform="translate(488.8096,368.7402)">
            <path
               d="m 0,0 c -5.075,-2.106 -9.39,1.539 -12.43,5.593 -1.613,2.15 -4.291,3.414 -5.188,5.981 -0.75,2.147 -0.607,4.082 -1.1,6.292 -0.905,4.045 0.568,7.071 -2.233,10.122 2.849,-3.655 7.277,-4.621 11.261,-6.454 2.029,-0.934 4.041,-2.003 5.573,-3.656 2.4,-2.591 3.115,-6.203 5.731,-8.824"
               style="fill:none;stroke:#231f20;stroke-width:1.84;stroke-linecap:butt;stroke-linejoin:miter;stroke-miterlimit:4;stroke-dasharray:none;stroke-opacity:1"
               id="path1768" />
          </g>
          <g
             id="g1770"
             transform="translate(508.689,376.0264)">
            <path
               d="m 0,0 c 2.366,1.222 5.74,4.562 7.257,6.637 0.906,1.238 2.921,4.612 3.293,6.247 0.774,3.403 -1.858,7.304 -3.492,9.556 -1.144,1.576 -2.416,2.299 -3.842,3.526 -1.556,1.338 -2.541,2.896 -4.074,4.267 -1.145,1.024 -2.552,1.863 -3.362,2.921 -0.833,1.089 -1.055,2.6 -1.778,3.699 3.347,-5.969 0.65,-16.3 -1.496,-22.337 C -8.711,11.091 -9.459,7.773 -7.512,4.228 -4.379,-1.48 4.581,-0.393 8.013,4.518"
               style="fill:#cf5021;fill-opacity:1;fill-rule:nonzero;stroke:none"
               id="path1772" />
          </g>
          <g
             id="g1774"
             transform="translate(508.689,376.0264)">
            <path
               d="m 0,0 c 2.366,1.222 5.74,4.562 7.257,6.637 0.906,1.238 2.921,4.612 3.293,6.247 0.774,3.403 -1.858,7.304 -3.492,9.556 -1.144,1.576 -2.416,2.299 -3.842,3.526 -1.556,1.338 -2.541,2.896 -4.074,4.267 -1.145,1.024 -2.552,1.863 -3.362,2.921 -0.833,1.089 -1.055,2.6 -1.778,3.699 3.347,-5.969 0.65,-16.3 -1.496,-22.337 C -8.711,11.091 -9.459,7.773 -7.512,4.228 -4.379,-1.48 4.581,-0.393 8.013,4.518"
               style="fill:none;stroke:#231f20;stroke-width:1.84;stroke-linecap:butt;stroke-linejoin:miter;stroke-miterlimit:4;stroke-dasharray:none;stroke-opacity:1"
               id="path1776" />
          </g>
          <g
             id="g1778"
             transform="translate(505.6787,309.7549)">
            <path
               d="m 0,0 c -3.744,2.09 -7.595,1.645 -11.79,1.453 -15.113,-0.687 -32.015,-3.461 -45.27,-11.112 -9.185,-5.301 -13.757,-16.591 -10.132,-27.099 3.082,-8.935 11.047,-11.596 19.598,-10.488 11.084,1.437 21.853,4.488 32.32,8.305 8.177,2.98 15.981,4.486 21.559,12.049 3.584,4.863 3.56,9.96 1.883,15.523 C 7.325,-8.569 3.061,-1.709 0,0"
               style="fill:#cf5021;fill-opacity:1;fill-rule:nonzero;stroke:none"
               id="path1780" />
          </g>
          <g
             id="g1782"
             transform="translate(505.6787,309.7549)">
            <path
               d="m 0,0 c -3.744,2.09 -7.595,1.645 -11.79,1.453 -15.113,-0.687 -32.015,-3.461 -45.27,-11.112 -9.185,-5.301 -13.757,-16.591 -10.132,-27.099 3.082,-8.935 11.047,-11.596 19.598,-10.488 11.084,1.437 21.853,4.488 32.32,8.305 8.177,2.98 15.981,4.486 21.559,12.049 3.584,4.863 3.56,9.96 1.883,15.523 C 7.325,-8.569 3.061,-1.709 0,0 Z"
               style="fill:none;stroke:#231f20;stroke-width:1.84;stroke-linecap:butt;stroke-linejoin:miter;stroke-miterlimit:4;stroke-dasharray:none;stroke-opacity:1"
               id="path1784" />
          </g>
          <g
             id="g1786"
             transform="translate(442.1877,292.6084)">
            <path
               d="M 0,0 C -8.283,-0.543 -17.384,-1.368 -24.48,-6.108"
               style="fill:#8e4f32;fill-opacity:1;fill-rule:nonzero;stroke:none"
               id="path1788" />
          </g>
          <g
             id="g1790"
             transform="translate(442.1877,292.6084)">
            <path
               d="M 0,0 C -8.283,-0.543 -17.384,-1.368 -24.48,-6.108"
               style="fill:none;stroke:#231f20;stroke-width:1.84;stroke-linecap:butt;stroke-linejoin:miter;stroke-miterlimit:4;stroke-dasharray:none;stroke-opacity:1"
               id="path1792" />
          </g>
          <g
             id="g1794"
             transform="translate(440.6819,288.0459)">
            <path
               d="m 0,0 c -6.795,-0.005 -17.391,-2.722 -22.75,-7.132 -2.104,-1.731 -6.728,-7.478 -6.997,-10.138"
               style="fill:#8e4f32;fill-opacity:1;fill-rule:nonzero;stroke:none"
               id="path1796" />
          </g>
          <g
             id="g1798"
             transform="translate(440.6819,288.0459)">
            <path
               d="m 0,0 c -6.795,-0.005 -17.391,-2.722 -22.75,-7.132 -2.104,-1.731 -6.728,-7.478 -6.997,-10.138"
               style="fill:none;stroke:#231f20;stroke-width:1.84;stroke-linecap:butt;stroke-linejoin:miter;stroke-miterlimit:4;stroke-dasharray:none;stroke-opacity:1"
               id="path1800" />
          </g>
          <g
             id="g1802"
             transform="translate(439.825,283.2217)">
            <path
               d="m 0,0 c -1.93,-1.749 -4.642,-2.979 -6.725,-4.494 -6.253,-4.547 -12.594,-10.391 -16.287,-17.292 -2.119,-3.96 -3.365,-10.808 -1.996,-15.341"
               style="fill:#8e4f32;fill-opacity:1;fill-rule:nonzero;stroke:none"
               id="path1804" />
          </g>
          <g
             id="g1806"
             transform="translate(439.825,283.2217)">
            <path
               d="m 0,0 c -1.93,-1.749 -4.642,-2.979 -6.725,-4.494 -6.253,-4.547 -12.594,-10.391 -16.287,-17.292 -2.119,-3.96 -3.365,-10.808 -1.996,-15.341"
               style="fill:none;stroke:#231f20;stroke-width:1.547;stroke-linecap:butt;stroke-linejoin:miter;stroke-miterlimit:4;stroke-dasharray:none;stroke-opacity:1"
               id="path1808" />
          </g>
          <g
             id="g1810"
             transform="translate(436.5593,273.7949)">
            <path
               d="M 0,0 C -6.506,-4.21 -12.347,-7.929 -15.117,-15.336"
               style="fill:#8e4f32;fill-opacity:1;fill-rule:nonzero;stroke:none"
               id="path1812" />
          </g>
          <g
             id="g1814"
             transform="translate(436.5593,273.7949)">
            <path
               d="M 0,0 C -6.506,-4.21 -12.347,-7.929 -15.117,-15.336"
               style="fill:none;stroke:#231f20;stroke-width:1.547;stroke-linecap:butt;stroke-linejoin:miter;stroke-miterlimit:4;stroke-dasharray:none;stroke-opacity:1"
               id="path1816" />
          </g>
          <g
             id="g1818"
             transform="translate(432.2786,280.5293)">
            <path
               d="m 0,0 c -6.675,-5.769 -13.786,-10.134 -18.396,-17.976 -3.651,-6.216 -5.619,-13.003 -6.596,-20.119 -0.996,-7.242 -1.931,-15.309 -1.109,-22.592 0.307,-2.709 -0.206,-5.986 0.666,-8.572"
               style="fill:#8e4f32;fill-opacity:1;fill-rule:nonzero;stroke:none"
               id="path1820" />
          </g>
          <g
             id="g1822"
             transform="translate(432.2786,280.5293)">
            <path
               d="m 0,0 c -6.675,-5.769 -13.786,-10.134 -18.396,-17.976 -3.651,-6.216 -5.619,-13.003 -6.596,-20.119 -0.996,-7.242 -1.931,-15.309 -1.109,-22.592 0.307,-2.709 -0.206,-5.986 0.666,-8.572"
               style="fill:none;stroke:#231f20;stroke-width:1.84;stroke-linecap:butt;stroke-linejoin:miter;stroke-miterlimit:4;stroke-dasharray:none;stroke-opacity:1"
               id="path1824" />
          </g>
          <g
             id="g1826"
             transform="translate(442.071,289.1436)">
            <path
               d="m 0,0 c -5.28,-1.498 -10.149,-2.827 -13.611,-7.506 -4.444,-6.01 -5.567,-13.798 -8.839,-20.381 -2.157,-4.343 -2.168,-11.247 -3.104,-15.115"
               style="fill:#8e4f32;fill-opacity:1;fill-rule:nonzero;stroke:none"
               id="path1828" />
          </g>
          <g
             id="g1830"
             transform="translate(442.071,289.1436)">
            <path
               d="m 0,0 c -5.28,-1.498 -10.149,-2.827 -13.611,-7.506 -4.444,-6.01 -5.567,-13.798 -8.839,-20.381 -2.157,-4.343 -2.168,-11.247 -3.104,-15.115"
               style="fill:none;stroke:#231f20;stroke-width:1.84;stroke-linecap:butt;stroke-linejoin:miter;stroke-miterlimit:4;stroke-dasharray:none;stroke-opacity:1"
               id="path1832" />
          </g>
          <g
             id="g1834"
             transform="translate(425.7834,284.3193)">
            <path
               d="m 0,0 c -2.297,-4.072 -7.773,-8.028 -10.953,-11.802 -4.085,-4.845 -7.284,-10.16 -10.564,-15.559 -1.171,-1.929 -5.416,-7.199 -5.545,-9.904 -0.126,-2.638 1.555,-5.894 2.287,-8.365"
               style="fill:#8e4f32;fill-opacity:1;fill-rule:nonzero;stroke:none"
               id="path1836" />
          </g>
          <g
             id="g1838"
             transform="translate(425.7834,284.3193)">
            <path
               d="m 0,0 c -2.297,-4.072 -7.773,-8.028 -10.953,-11.802 -4.085,-4.845 -7.284,-10.16 -10.564,-15.559 -1.171,-1.929 -5.416,-7.199 -5.545,-9.904 -0.126,-2.638 1.555,-5.894 2.287,-8.365"
               style="fill:none;stroke:#231f20;stroke-width:1.84;stroke-linecap:butt;stroke-linejoin:miter;stroke-miterlimit:4;stroke-dasharray:none;stroke-opacity:1"
               id="path1840" />
          </g>
          <g
             id="g1842"
             transform="translate(543.8086,366.7314)">
            <path
               d="m 0,0 c 6.682,-4.229 13.724,-16.17 6.809,-23.09 -7.51,-7.515 -19.574,-7.122 -28.173,-4.108 -3.097,1.086 -6.829,4.165 -8.697,6.52 -2.192,2.768 -5.007,5.814 -6.504,9.144 1.496,-4.82 3.079,-9.546 4.754,-14.168 -6.934,0.871 -14.864,3.092 -19.109,8.47 -3.184,4.035 -5.237,8.077 -7.01,12.792 -2.462,6.544 -2.012,12.727 5.046,16.004 6.032,2.801 12.093,3.406 18.497,3.111 3.498,-0.162 6.259,-0.514 9.752,-1.81 2.195,-0.814 6.361,-1.548 7.84,-3.164 0,0 3.972,-1.587 16.795,-9.701"
               style="fill:#cf5021;fill-opacity:1;fill-rule:nonzero;stroke:none"
               id="path1844" />
          </g>
          <g
             id="g1846"
             transform="translate(543.8086,366.7314)">
            <path
               d="m 0,0 c 6.682,-4.229 13.724,-16.17 6.809,-23.09 -7.51,-7.515 -19.574,-7.122 -28.173,-4.108 -3.097,1.086 -6.829,4.165 -8.697,6.52 -2.192,2.768 -5.007,5.814 -6.504,9.144 1.496,-4.82 3.079,-9.546 4.754,-14.168 -6.934,0.871 -14.864,3.092 -19.109,8.47 -3.184,4.035 -5.237,8.077 -7.01,12.792 -2.462,6.544 -2.012,12.727 5.046,16.004 6.032,2.801 12.093,3.406 18.497,3.111 3.498,-0.162 6.259,-0.514 9.752,-1.81 2.195,-0.814 6.361,-1.548 7.84,-3.164 0,0 3.972,-1.587 16.795,-9.701 z"
               style="fill:none;stroke:#231f20;stroke-width:1.84;stroke-linecap:butt;stroke-linejoin:miter;stroke-miterlimit:4;stroke-dasharray:none;stroke-opacity:1"
               id="path1848" />
          </g>
          <g
             id="g1850"
             transform="translate(518.7427,365.4385)">
            <path
               d="M 0,0 C -3.514,-1.974 -10.799,7.075 -4.019,9.31 -1.397,8.774 6.388,3.588 0,0"
               style="fill:#ffffff;fill-opacity:1;fill-rule:nonzero;stroke:none"
               id="path1852" />
          </g>
          <g
             id="g1854"
             transform="translate(518.7427,365.4385)">
            <path
               d="M 0,0 C -3.514,-1.974 -10.799,7.075 -4.019,9.31 -1.397,8.774 6.388,3.588 0,0 Z"
               style="fill:none;stroke:#231f20;stroke-width:1.84;stroke-linecap:butt;stroke-linejoin:miter;stroke-miterlimit:4;stroke-dasharray:none;stroke-opacity:1"
               id="path1856" />
          </g>
          <g
             id="g1858"
             transform="translate(500.2549,383.5352)">
            <path
               d="M 0,0 C 2.614,0.987 4.128,4.256 5.894,6.221 6.992,7.441 9.018,8.698 9.103,10.459 10.288,7.487 4.552,1.641 3.231,-1.331 2.123,2.529 1.17,6.442 0.041,10.289 1.26,6.396 3.111,1.401 1.705,-2.666 -0.442,-0.18 -0.976,7.173 -3.852,8.475 -2.045,5.07 0.144,2.313 1.062,-1.613 c -3.504,0.187 -8.161,3.752 -10.957,6.09 2.214,-1.785 5.312,-5.106 4.329,-7.916 -2.549,0.551 -5.178,0.609 -7.701,1.286 1.479,-2.502 4.939,-5.738 7.532,-7.57 -3.727,-0.018 -7.82,1.825 -11.362,1.506 2.004,-1.355 4.615,-2.154 5.977,-4.273 -3.642,0.515 -8.921,0.671 -12.396,-0.798 1.748,-3.494 6.685,-4.741 9.723,-6.604 -2.629,0.065 -5.322,1.63 -7.846,0.857 1.647,-1.981 5.603,-5.304 6.751,-5.95"
               style="fill:#cf5021;fill-opacity:1;fill-rule:nonzero;stroke:none"
               id="path1860" />
          </g>
          <g
             id="g1862"
             transform="translate(500.2549,383.5352)">
            <path
               d="M 0,0 C 2.614,0.987 4.128,4.256 5.894,6.221 6.992,7.441 9.018,8.698 9.103,10.459 10.288,7.487 4.552,1.641 3.231,-1.331 2.123,2.529 1.17,6.442 0.041,10.289 1.26,6.396 3.111,1.401 1.705,-2.666 -0.442,-0.18 -0.976,7.173 -3.852,8.475 -2.045,5.07 0.144,2.313 1.062,-1.613 c -3.504,0.187 -8.161,3.752 -10.957,6.09 2.214,-1.785 5.312,-5.106 4.329,-7.916 -2.549,0.551 -5.178,0.609 -7.701,1.286 1.479,-2.502 4.939,-5.738 7.532,-7.57 -3.727,-0.018 -7.82,1.825 -11.362,1.506 2.004,-1.355 4.615,-2.154 5.977,-4.273 -3.642,0.515 -8.921,0.671 -12.396,-0.798 1.748,-3.494 6.685,-4.741 9.723,-6.604 -2.629,0.065 -5.322,1.63 -7.846,0.857 1.647,-1.981 5.603,-5.304 6.751,-5.95"
               style="fill:none;stroke:#231f20;stroke-width:1.84;stroke-linecap:butt;stroke-linejoin:miter;stroke-miterlimit:4;stroke-dasharray:none;stroke-opacity:1"
               id="path1864" />
          </g>
        </g>
      </g>
      <g
         id="g1866"
         transform="matrix(0.35277777,0,0,-0.35277777,10.924353,196.26697)" />
      <g
         id="g1868"
         transform="matrix(0.23334786,0,0,-0.23334712,0,105.83345)">
        <g
           id="g1870"
           clip-path="url(#clipPath1874-9)">
          <g
             id="g1876"
             transform="translate(516.1382,369.2412)">
            <path
               d="M 0,0 C -0.787,2.104 2.383,3.885 4.185,3.486 4.376,2.618 5.167,2.066 4.969,1.011 4.821,0.22 3.803,-1.411 3.005,-1.807 0.957,-2.823 0.064,0.464 0.132,1.868"
               style="fill:#231f20;fill-opacity:1;fill-rule:nonzero;stroke:none"
               id="path1878" />
          </g>
          <g
             id="g1880"
             transform="translate(534.3721,344.7725)">
            <path
               d="M 0,0 C 2.358,0.689 4.362,1.322 5.254,-1.472 5.789,-3.15 4.746,-4.018 3.13,-3.646 1.606,-3.293 -0.916,0.249 1.83,0.771"
               style="fill:none;stroke:#231f20;stroke-width:1.84;stroke-linecap:butt;stroke-linejoin:miter;stroke-miterlimit:4;stroke-dasharray:none;stroke-opacity:1"
               id="path1882" />
          </g>
          <g
             id="g1884"
             transform="translate(547.3794,354.1123)">
            <path
               d="m 0,0 c 0.914,-0.406 3.366,-2.59 2.461,-3.797 -0.833,-1.112 -2.505,-0.386 -3.064,0.429 -0.534,0.78 -0.811,1.803 -0.542,2.798 0.212,0.789 1.227,1.805 2.071,1.301"
               style="fill:none;stroke:#231f20;stroke-width:1.84;stroke-linecap:butt;stroke-linejoin:miter;stroke-miterlimit:4;stroke-dasharray:none;stroke-opacity:1"
               id="path1886" />
          </g>
          <g
             id="g1888"
             transform="translate(507.3652,358.6592)">
            <path
               d="M 0,0 C -3.514,-1.974 -10.799,7.075 -4.019,9.31 -1.397,8.774 6.388,3.588 0,0"
               style="fill:#ffffff;fill-opacity:1;fill-rule:nonzero;stroke:none"
               id="path1890" />
          </g>
          <g
             id="g1892"
             transform="translate(507.3652,358.6592)">
            <path
               d="M 0,0 C -3.514,-1.974 -10.799,7.075 -4.019,9.31 -1.397,8.774 6.388,3.588 0,0 Z"
               style="fill:none;stroke:#231f20;stroke-width:1.84;stroke-linecap:butt;stroke-linejoin:miter;stroke-miterlimit:4;stroke-dasharray:none;stroke-opacity:1"
               id="path1894" />
          </g>
          <g
             id="g1896"
             transform="translate(505.4287,361.7607)">
            <path
               d="M 0,0 C -0.787,2.104 2.383,3.885 4.185,3.486 4.376,2.618 5.167,2.066 4.969,1.011 4.821,0.22 3.803,-1.411 3.005,-1.807 0.957,-2.823 0.064,0.464 0.132,1.868"
               style="fill:#231f20;fill-opacity:1;fill-rule:nonzero;stroke:none"
               id="path1898" />
          </g>
          <g
             id="g1900"
             transform="translate(540.939,242.6563)">
            <path
               d="M 0,0 C 3.255,-0.948 6.273,-3.23 9.45,-4.506 7.183,-6.229 4.634,-7.194 2.004,-8.229 c -2.665,-1.051 -4.288,-2.458 -6.733,-3.63 -2.993,-1.432 -2.863,-0.032 -3.935,2.26 -0.808,1.729 -2.385,3.347 -2.738,5.157 1.841,1.066 4.904,1.382 7.013,2.237 1.602,0.649 3.024,0.876 4.514,1.784"
               style="fill:#231f20;fill-opacity:1;fill-rule:nonzero;stroke:none"
               id="path1902" />
          </g>
          <g
             id="g1904"
             transform="translate(508.2778,232.5234)">
            <path
               d="m 0,0 c -1.525,0.984 -4.372,0.538 -6.297,0.552 -1.222,0.01 -3.384,0.658 -4.275,-0.148 0.837,-2.465 -0.574,-5.17 -0.677,-7.68 -0.042,-1 0.433,-2.066 -0.209,-2.999 5.554,1.001 11.72,2.26 16.918,3.725 -2.842,2.011 -2.922,4.462 -5.04,6.674"
               style="fill:#231f20;fill-opacity:1;fill-rule:nonzero;stroke:none"
               id="path1906" />
          </g>
          <g
             id="g1908"
             transform="translate(477.6406,224.8203)">
            <path
               d="m 0,0 c -2.436,-0.6 -4.691,-1.948 -6.685,-3.434 0.747,-3.28 2.742,-6.39 3.743,-9.633 1.19,0.126 2.458,1.531 3.883,2.025 0.733,0.252 1.238,0.477 2.09,0.582 -0.608,3.745 -2.403,6.797 -3.451,10.336"
               style="fill:#231f20;fill-opacity:1;fill-rule:nonzero;stroke:none"
               id="path1910" />
          </g>
          <g
             id="g1912"
             transform="translate(443.0493,215.0313)">
            <path
               d="m 0,0 c -4.117,-0.663 -8.345,0.002 -12.468,-0.834 2.947,-2.252 1.833,-6.628 3.272,-9.595 2.155,0.375 12.102,2.195 12.416,4.379 0.175,1.22 -2.952,5.34 -3.765,6.346"
               style="fill:#231f20;fill-opacity:1;fill-rule:nonzero;stroke:none"
               id="path1914" />
          </g>
          <g
             id="g1916"
             transform="translate(486.5522,359.9775)">
            <path
               d="m 0,0 c -4.169,-0.272 -8.239,-1.785 -12.194,-3.041 3.36,-1.984 7.009,-6.087 11.274,-5.471 -1.833,-0.553 -3.934,-0.582 -5.59,-1.58 3.994,-2.273 11.618,-3.274 16.208,-3.258 -3.346,-2.505 -8.723,-2.544 -12.528,-4.72 2.528,-0.24 5.545,-0.998 7.973,-1.787 -3.171,-0.997 -6.792,-1.481 -9.949,-2.839 2.173,-1.655 6.198,-1.588 8.872,-2.511 -1.834,-0.806 -4.028,-1.321 -6.004,-1.651 3.861,-0.705 7.896,-1.616 11.716,-2.621 -3.816,-0.197 -7.966,-1.784 -11.519,-3.126 3.051,-2.208 7.639,-0.778 10.97,-2.587 -4.765,-0.73 -8.696,-0.869 -12.876,-3.711 3.346,0.542 6.903,-0.366 10.268,0.256 -1.96,-0.083 -3.933,-0.499 -5.739,-1.261 1.701,-1.358 5.077,-2.107 7.295,-2.269 -2.337,0.201 -4.822,-0.324 -7.087,-0.845 0.949,-0.704 2.895,-0.511 3.725,-0.245"
               style="fill:#cf5021;fill-opacity:1;fill-rule:nonzero;stroke:none"
               id="path1918" />
          </g>
          <g
             id="g1920"
             transform="translate(486.5522,359.9775)">
            <path
               d="m 0,0 c -4.169,-0.272 -8.239,-1.785 -12.194,-3.041 3.36,-1.984 7.009,-6.087 11.274,-5.471 -1.833,-0.553 -3.934,-0.582 -5.59,-1.58 3.994,-2.273 11.618,-3.274 16.208,-3.258 -3.346,-2.505 -8.723,-2.544 -12.528,-4.72 2.528,-0.24 5.545,-0.998 7.973,-1.787 -3.171,-0.997 -6.792,-1.481 -9.949,-2.839 2.173,-1.655 6.198,-1.588 8.872,-2.511 -1.834,-0.806 -4.028,-1.321 -6.004,-1.651 3.861,-0.705 7.896,-1.616 11.716,-2.621 -3.816,-0.197 -7.966,-1.784 -11.519,-3.126 3.051,-2.208 7.639,-0.778 10.97,-2.587 -4.765,-0.73 -8.696,-0.869 -12.876,-3.711 3.346,0.542 6.903,-0.366 10.268,0.256 -1.96,-0.083 -3.933,-0.499 -5.739,-1.261 1.701,-1.358 5.077,-2.107 7.295,-2.269 -2.337,0.201 -4.822,-0.324 -7.087,-0.845 0.949,-0.704 2.895,-0.511 3.725,-0.245"
               style="fill:none;stroke:#231f20;stroke-width:1.84;stroke-linecap:butt;stroke-linejoin:miter;stroke-miterlimit:4;stroke-dasharray:none;stroke-opacity:1"
               id="path1922" />
          </g>
          <g
             id="g1924"
             transform="translate(646.7494,396.9629)">
            <path
               d="m 0,0 c 0.081,-12.055 3.575,-23.7 4.419,-35.588 0.396,-5.577 0.189,-20.558 1.345,-26.034 0.766,-3.625 0.717,3.354 5.629,4.027 6.344,0.871 11.83,-0.388 11.096,4.319 -2.038,13.059 -10.853,30.278 -11.218,43.487 -0.048,1.722 -0.645,2.934 -0.958,4.266 -0.191,0.813 -0.012,2.488 -0.707,3.066 C 7.545,-0.742 5.145,-4.304 3.379,-4.387 2.87,-5.441 1.538,-6.52 0.333,-6.95 0.186,-7.239 0.166,-7.539 0.274,-7.85"
               style="fill:#8e4f32;fill-opacity:1;fill-rule:nonzero;stroke:none"
               id="path1926" />
          </g>
          <g
             id="g1928"
             transform="translate(646.7494,396.9629)">
            <path
               d="m 0,0 c 0.081,-12.055 3.575,-23.7 4.419,-35.588 0.396,-5.577 0.189,-20.558 1.345,-26.034 0.766,-3.625 0.717,3.354 5.629,4.027 6.344,0.871 11.83,-0.388 11.096,4.319 -2.038,13.059 -10.853,30.278 -11.218,43.487 -0.048,1.722 -0.645,2.934 -0.958,4.266 -0.191,0.813 -0.012,2.488 -0.707,3.066 C 7.545,-0.742 5.145,-4.304 3.379,-4.387 2.87,-5.441 1.538,-6.52 0.333,-6.95 0.186,-7.239 0.166,-7.539 0.274,-7.85"
               style="fill:none;stroke:#231f20;stroke-width:1.84;stroke-linecap:butt;stroke-linejoin:miter;stroke-miterlimit:4;stroke-dasharray:none;stroke-opacity:1"
               id="path1930" />
          </g>
          <g
             id="g1932"
             transform="translate(673.0529,309.3887)">
            <path
               d="m 0,0 c -1.227,-7.822 -5.727,-14.727 -4.22,-22.525 0.71,-3.671 7.549,-10.519 9.312,-13.803 1.264,-2.353 3.421,-4.805 3.658,-7.571"
               style="fill:none;stroke:#231f20;stroke-width:3.817;stroke-linecap:butt;stroke-linejoin:miter;stroke-miterlimit:4;stroke-dasharray:none;stroke-opacity:1"
               id="path1934" />
          </g>
          <g
             id="g1936"
             transform="translate(716.5947,321.0714)">
            <path
               d="m 0,0 c 6.576,-1.354 14.487,-5.389 19.902,-9.116 1.617,-1.112 3.501,-3.939 5.591,-3.764 0.752,-12.387 2.017,-24.355 5.227,-36.363 0.413,-1.545 0.708,-2.516 1.38,-3.751"
               style="fill:none;stroke:#231f20;stroke-width:3.817;stroke-linecap:butt;stroke-linejoin:miter;stroke-miterlimit:4;stroke-dasharray:none;stroke-opacity:1"
               id="path1938" />
          </g>
          <g
             id="g1940"
             transform="translate(708.584,321.1182)">
            <path
               d="m 0,0 c 3.604,-6.416 7.103,-12.864 10.387,-19.45 1.718,-3.448 3.516,-4.7 2.08,-8.171 -2.974,-7.191 -7.179,-14.474 -8.892,-22.116 -0.582,-2.592 0.092,-5.335 0.091,-8.052"
               style="fill:none;stroke:#231f20;stroke-width:3.817;stroke-linecap:butt;stroke-linejoin:miter;stroke-miterlimit:4;stroke-dasharray:none;stroke-opacity:1"
               id="path1942" />
          </g>
          <g
             id="g1944"
             transform="translate(660.4764,312.2002)">
            <path
               d="m 0,0 c -4.055,-3.874 -4.054,-12.204 -5.524,-17.343 -2.213,-7.736 -5.521,-15.212 -9.178,-22.312 -1.954,-3.794 -2.395,-5.52 -2.251,-9.653"
               style="fill:none;stroke:#231f20;stroke-width:3.817;stroke-linecap:butt;stroke-linejoin:miter;stroke-miterlimit:4;stroke-dasharray:none;stroke-opacity:1"
               id="path1946" />
          </g>
          <g
             id="g1948"
             transform="translate(650.5752,401.208)">
            <path
               d="m 0,0 c 5.48,-0.387 8.416,4.439 10.013,9.248 0.847,2.552 2.985,4.599 3.021,7.319 0.03,2.274 -0.721,4.064 -0.952,6.315 C 11.656,27.006 9.3,29.407 10.987,33.19 9.444,28.82 5.551,26.5 2.356,23.497 0.729,21.967 -0.84,20.315 -1.769,18.26 -3.224,15.04 -2.754,11.39 -4.405,8.075"
               style="fill:#8e4f32;fill-opacity:1;fill-rule:nonzero;stroke:none"
               id="path1950" />
          </g>
          <g
             id="g1952"
             transform="translate(650.5752,401.208)">
            <path
               d="m 0,0 c 5.48,-0.387 8.416,4.439 10.013,9.248 0.847,2.552 2.985,4.599 3.021,7.319 0.03,2.274 -0.721,4.064 -0.952,6.315 C 11.656,27.006 9.3,29.407 10.987,33.19 9.444,28.82 5.551,26.5 2.356,23.497 0.729,21.967 -0.84,20.315 -1.769,18.26 -3.224,15.04 -2.754,11.39 -4.405,8.075"
               style="fill:none;stroke:#231f20;stroke-width:1.84;stroke-linecap:butt;stroke-linejoin:miter;stroke-miterlimit:4;stroke-dasharray:none;stroke-opacity:1"
               id="path1954" />
          </g>
          <g
             id="g1956"
             transform="translate(629.4085,401.8096)">
            <path
               d="m 0,0 c -2.631,0.408 -6.891,2.505 -8.988,3.99 -1.251,0.889 -4.234,3.448 -5.104,4.88 -1.815,2.983 -0.557,7.519 0.279,10.173 0.585,1.855 1.561,2.944 2.525,4.561 1.051,1.762 1.49,3.552 2.509,5.339 0.761,1.334 1.829,2.576 2.261,3.836 0.444,1.298 0.176,2.801 0.512,4.074 C -7.285,30.13 -1.45,21.188 2.501,16.144 4.742,13.282 6.504,10.373 5.783,6.393 4.623,-0.015 -4.219,-1.826 -9.032,1.742"
               style="fill:#8e4f32;fill-opacity:1;fill-rule:nonzero;stroke:none"
               id="path1958" />
          </g>
          <g
             id="g1960"
             transform="translate(629.4085,401.8096)">
            <path
               d="m 0,0 c -2.631,0.408 -6.891,2.505 -8.988,3.99 -1.251,0.889 -4.234,3.448 -5.104,4.88 -1.815,2.983 -0.557,7.519 0.279,10.173 0.585,1.855 1.561,2.944 2.525,4.561 1.051,1.762 1.49,3.552 2.509,5.339 0.761,1.334 1.829,2.576 2.261,3.836 0.444,1.298 0.176,2.801 0.512,4.074 C -7.285,30.13 -1.45,21.188 2.501,16.144 4.742,13.282 6.504,10.373 5.783,6.393 4.623,-0.015 -4.219,-1.826 -9.032,1.742"
               style="fill:none;stroke:#231f20;stroke-width:1.84;stroke-linecap:butt;stroke-linejoin:miter;stroke-miterlimit:4;stroke-dasharray:none;stroke-opacity:1"
               id="path1962" />
          </g>
          <g
             id="g1964"
             transform="translate(653.2925,339.918)">
            <path
               d="m 0,0 c 2.887,3.17 6.68,3.97 10.72,5.119 14.549,4.144 31.459,6.875 46.456,3.827 10.393,-2.114 18.311,-11.369 18.208,-22.485 -0.088,-9.451 -6.797,-14.502 -15.258,-16.164 -10.968,-2.153 -22.148,-2.677 -33.285,-2.38 -8.7,0.232 -16.578,-0.815 -24.268,4.586 -4.942,3.475 -6.537,8.316 -6.712,14.123 C -4.227,-10.449 -2.36,-2.593 0,0"
               style="fill:#8e4f32;fill-opacity:1;fill-rule:nonzero;stroke:none"
               id="path1966" />
          </g>
          <g
             id="g1968"
             transform="translate(653.2925,339.918)">
            <path
               d="m 0,0 c 2.887,3.17 6.68,3.97 10.72,5.119 14.549,4.144 31.459,6.875 46.456,3.827 10.393,-2.114 18.311,-11.369 18.208,-22.485 -0.088,-9.451 -6.797,-14.502 -15.258,-16.164 -10.968,-2.153 -22.148,-2.677 -33.285,-2.38 -8.7,0.232 -16.578,-0.815 -24.268,4.586 -4.942,3.475 -6.537,8.316 -6.712,14.123 C -4.227,-10.449 -2.36,-2.593 0,0 Z"
               style="fill:none;stroke:#231f20;stroke-width:1.84;stroke-linecap:butt;stroke-linejoin:miter;stroke-miterlimit:4;stroke-dasharray:none;stroke-opacity:1"
               id="path1970" />
          </g>
          <g
             id="g1972"
             transform="translate(718.9426,343.8027)">
            <path
               d="M 0,0 C 8.027,2.114 16.919,4.219 25.153,1.976"
               style="fill:#cf5021;fill-opacity:1;fill-rule:nonzero;stroke:none"
               id="path1974" />
          </g>
          <g
             id="g1976"
             transform="translate(718.9426,343.8027)">
            <path
               d="M 0,0 C 8.027,2.114 16.919,4.219 25.153,1.976"
               style="fill:none;stroke:#231f20;stroke-width:1.84;stroke-linecap:butt;stroke-linejoin:miter;stroke-miterlimit:4;stroke-dasharray:none;stroke-opacity:1"
               id="path1978" />
          </g>
          <g
             id="g1980"
             transform="translate(721.8185,339.9551)">
            <path
               d="m 0,0 c 6.445,2.151 17.356,2.936 23.837,0.455 2.545,-0.975 8.754,-4.957 9.852,-7.393"
               style="fill:#cf5021;fill-opacity:1;fill-rule:nonzero;stroke:none"
               id="path1982" />
          </g>
          <g
             id="g1984"
             transform="translate(721.8185,339.9551)">
            <path
               d="m 0,0 c 6.445,2.151 17.356,2.936 23.837,0.455 2.545,-0.975 8.754,-4.957 9.852,-7.393"
               style="fill:none;stroke:#231f20;stroke-width:1.84;stroke-linecap:butt;stroke-linejoin:miter;stroke-miterlimit:4;stroke-dasharray:none;stroke-opacity:1"
               id="path1986" />
          </g>
          <g
             id="g1988"
             transform="translate(724.162,335.6514)">
            <path
               d="m 0,0 c 2.385,-1.046 5.348,-1.353 7.803,-2.128 7.373,-2.328 15.24,-5.857 20.933,-11.23 3.265,-3.083 6.62,-9.181 6.76,-13.914"
               style="fill:#cf5021;fill-opacity:1;fill-rule:nonzero;stroke:none"
               id="path1990" />
          </g>
          <g
             id="g1992"
             transform="translate(724.162,335.6514)">
            <path
               d="m 0,0 c 2.385,-1.046 5.348,-1.353 7.803,-2.128 7.373,-2.328 15.24,-5.857 20.933,-11.23 3.265,-3.083 6.62,-9.181 6.76,-13.914"
               style="fill:none;stroke:#231f20;stroke-width:1.547;stroke-linecap:butt;stroke-linejoin:miter;stroke-miterlimit:4;stroke-dasharray:none;stroke-opacity:1"
               id="path1994" />
          </g>
          <g
             id="g1996"
             transform="translate(730.2502,327.749)">
            <path
               d="M 0,0 C 7.505,-1.929 14.224,-3.602 19.202,-9.748"
               style="fill:#cf5021;fill-opacity:1;fill-rule:nonzero;stroke:none"
               id="path1998" />
          </g>
          <g
             id="g2000"
             transform="translate(730.2502,327.749)">
            <path
               d="M 0,0 C 7.505,-1.929 14.224,-3.602 19.202,-9.748"
               style="fill:none;stroke:#231f20;stroke-width:1.547;stroke-linecap:butt;stroke-linejoin:miter;stroke-miterlimit:4;stroke-dasharray:none;stroke-opacity:1"
               id="path2002" />
          </g>
          <g
             id="g2004"
             transform="translate(732.173,335.4932)">
            <path
               d="m 0,0 c 8.16,-3.354 16.289,-5.235 23.148,-11.21 5.436,-4.736 9.455,-10.548 12.64,-16.986 3.242,-6.552 6.689,-13.907 8.219,-21.074 0.569,-2.666 2.095,-5.611 2.089,-8.339"
               style="fill:#cf5021;fill-opacity:1;fill-rule:nonzero;stroke:none"
               id="path2006" />
          </g>
          <g
             id="g2008"
             transform="translate(732.173,335.4932)">
            <path
               d="m 0,0 c 8.16,-3.354 16.289,-5.235 23.148,-11.21 5.436,-4.736 9.455,-10.548 12.64,-16.986 3.242,-6.552 6.689,-13.907 8.219,-21.074 0.569,-2.666 2.095,-5.611 2.089,-8.339"
               style="fill:none;stroke:#231f20;stroke-width:1.84;stroke-linecap:butt;stroke-linejoin:miter;stroke-miterlimit:4;stroke-dasharray:none;stroke-opacity:1"
               id="path2010" />
          </g>
          <g
             id="g2012"
             transform="translate(720.1526,340.5547)">
            <path
               d="m 0,0 c 5.483,0.255 10.522,0.54 15.289,-2.8 6.121,-4.288 9.658,-11.317 14.849,-16.522 3.425,-3.435 5.626,-9.978 7.74,-13.349"
               style="fill:#cf5021;fill-opacity:1;fill-rule:nonzero;stroke:none"
               id="path2014" />
          </g>
          <g
             id="g2016"
             transform="translate(720.1526,340.5547)">
            <path
               d="m 0,0 c 5.483,0.255 10.522,0.54 15.289,-2.8 6.121,-4.288 9.658,-11.317 14.849,-16.522 3.425,-3.435 5.626,-9.978 7.74,-13.349"
               style="fill:none;stroke:#231f20;stroke-width:1.84;stroke-linecap:butt;stroke-linejoin:miter;stroke-miterlimit:4;stroke-dasharray:none;stroke-opacity:1"
               id="path2018" />
          </g>
          <g
             id="g2020"
             transform="translate(737.1296,341.1475)">
            <path
               d="m 0,0 c 3.471,-3.133 9.919,-5.146 14.132,-7.716 5.411,-3.299 10.131,-7.323 14.954,-11.403 1.723,-1.457 7.421,-5.108 8.402,-7.632 0.956,-2.462 0.396,-6.084 0.485,-8.659"
               style="fill:#cf5021;fill-opacity:1;fill-rule:nonzero;stroke:none"
               id="path2022" />
          </g>
          <g
             id="g2024"
             transform="translate(737.1296,341.1475)">
            <path
               d="m 0,0 c 3.471,-3.133 9.919,-5.146 14.132,-7.716 5.411,-3.299 10.131,-7.323 14.954,-11.403 1.723,-1.457 7.421,-5.108 8.402,-7.632 0.956,-2.462 0.396,-6.084 0.485,-8.659"
               style="fill:none;stroke:#231f20;stroke-width:1.84;stroke-linecap:butt;stroke-linejoin:miter;stroke-miterlimit:4;stroke-dasharray:none;stroke-opacity:1"
               id="path2026" />
          </g>
          <g
             id="g2028"
             transform="translate(599.054,381.8516)">
            <path
               d="m 0,0 c -4.995,-6.13 -7.884,-19.688 0.869,-24.058 9.507,-4.743 20.823,-0.543 28.021,5.044 2.593,2.013 5.155,6.116 6.178,8.944 1.201,3.318 2.904,7.101 3.267,10.733 0.111,-5.045 0.11,-10.028 -0.012,-14.943 6.299,3.026 13.115,7.647 15.434,14.095 1.739,4.837 2.403,9.323 2.588,14.356 0.258,6.987 -2.13,12.708 -9.863,13.576 C 39.873,28.489 33.934,27.139 27.954,24.827 24.688,23.564 22.182,22.355 19.28,20.017 17.457,18.548 13.739,16.531 12.849,14.528 12.849,14.528 9.586,11.765 0,0"
               style="fill:#8e4f32;fill-opacity:1;fill-rule:nonzero;stroke:none"
               id="path2030" />
          </g>
          <g
             id="g2032"
             transform="translate(599.054,381.8516)">
            <path
               d="m 0,0 c -4.995,-6.13 -7.884,-19.688 0.869,-24.058 9.507,-4.743 20.823,-0.543 28.021,5.044 2.593,2.013 5.155,6.116 6.178,8.944 1.201,3.318 2.904,7.101 3.267,10.733 0.111,-5.045 0.11,-10.028 -0.012,-14.943 6.299,3.026 13.115,7.647 15.434,14.095 1.739,4.837 2.403,9.323 2.588,14.356 0.258,6.987 -2.13,12.708 -9.863,13.576 C 39.873,28.489 33.934,27.139 27.954,24.827 24.688,23.564 22.182,22.355 19.28,20.017 17.457,18.548 13.739,16.531 12.849,14.528 12.849,14.528 9.586,11.765 0,0 Z"
               style="fill:none;stroke:#231f20;stroke-width:1.84;stroke-linecap:butt;stroke-linejoin:miter;stroke-miterlimit:4;stroke-dasharray:none;stroke-opacity:1"
               id="path2034" />
          </g>
          <g
             id="g2036"
             transform="translate(623.2345,388.5791)">
            <path
               d="M 0,0 C 3.959,-0.757 7.996,10.136 0.857,10.104 -1.459,8.764 -7.196,1.375 0,0"
               style="fill:#ffffff;fill-opacity:1;fill-rule:nonzero;stroke:none"
               id="path2038" />
          </g>
          <g
             id="g2040"
             transform="translate(623.2345,388.5791)">
            <path
               d="M 0,0 C 3.959,-0.757 7.996,10.136 0.857,10.104 -1.459,8.764 -7.196,1.375 0,0 Z"
               style="fill:none;stroke:#231f20;stroke-width:1.84;stroke-linecap:butt;stroke-linejoin:miter;stroke-miterlimit:4;stroke-dasharray:none;stroke-opacity:1"
               id="path2042" />
          </g>
          <g
             id="g2044"
             transform="translate(635.0248,411.6064)">
            <path
               d="m 0,0 c -2.792,0.108 -5.266,2.728 -7.564,4.029 -1.428,0.81 -3.748,1.359 -4.387,3.001 -0.181,-3.194 7.113,-6.918 9.309,-9.317 C -2.816,1.726 -3.154,5.739 -3.304,9.745 -3.224,5.666 -3.395,0.343 -0.771,-3.068 0.476,-0.03 -1.351,7.112 0.963,9.259 0.33,5.458 -0.871,2.149 -0.496,-1.867 2.768,-0.577 6.053,4.28 7.963,7.386 6.429,4.991 4.546,0.858 6.37,-1.494 c 2.242,1.332 4.716,2.22 6.895,3.662 -0.609,-2.842 -2.864,-7.008 -4.742,-9.566 3.541,1.164 6.837,4.21 10.298,5.032 -1.471,-1.921 -3.693,-3.508 -4.313,-5.949 3.29,1.645 8.248,3.466 12.008,3.175 -0.549,-3.867 -4.834,-6.617 -7.124,-9.346 2.473,0.894 4.53,3.234 7.168,3.301 -0.933,-2.4 -3.63,-6.808 -4.513,-7.785"
               style="fill:#8e4f32;fill-opacity:1;fill-rule:nonzero;stroke:none"
               id="path2046" />
          </g>
          <g
             id="g2048"
             transform="translate(635.0248,411.6064)">
            <path
               d="m 0,0 c -2.792,0.108 -5.266,2.728 -7.564,4.029 -1.428,0.81 -3.748,1.359 -4.387,3.001 -0.181,-3.194 7.113,-6.918 9.309,-9.317 C -2.816,1.726 -3.154,5.739 -3.304,9.745 -3.224,5.666 -3.395,0.343 -0.771,-3.068 0.476,-0.03 -1.351,7.112 0.963,9.259 0.33,5.458 -0.871,2.149 -0.496,-1.867 2.768,-0.577 6.053,4.28 7.963,7.386 6.429,4.991 4.546,0.858 6.37,-1.494 c 2.242,1.332 4.716,2.22 6.895,3.662 -0.609,-2.842 -2.864,-7.008 -4.742,-9.566 3.541,1.164 6.837,4.21 10.298,5.032 -1.471,-1.921 -3.693,-3.508 -4.313,-5.949 3.29,1.645 8.248,3.466 12.008,3.175 -0.549,-3.867 -4.834,-6.617 -7.124,-9.346 2.473,0.894 4.53,3.234 7.168,3.301 -0.933,-2.4 -3.63,-6.808 -4.513,-7.785"
               style="fill:none;stroke:#231f20;stroke-width:1.84;stroke-linecap:butt;stroke-linejoin:miter;stroke-miterlimit:4;stroke-dasharray:none;stroke-opacity:1"
               id="path2050" />
          </g>
        </g>
      </g>
      <g
         id="g2052"
         transform="matrix(0.35277777,0,0,-0.35277777,64.198347,185.43077)" />
      <g
         id="g2056"
         clip-path="url(#clipPath2060-7)"
         transform="matrix(0.23334786,0,0,-0.23334712,0,105.83345)">
        <g
           id="g2062"
           transform="translate(624.222,392.4844)">
          <path
             d="m 0,0 c 0.078,2.245 -3.493,2.927 -5.075,1.978 0.094,-0.884 -0.481,-1.659 0.042,-2.596 0.391,-0.704 1.874,-1.927 2.757,-2.05 2.264,-0.313 2.068,3.086 1.558,4.397"
             style="fill:#231f20;fill-opacity:1;fill-rule:nonzero;stroke:none"
             id="path2064" />
        </g>
        <g
           id="g2066"
           transform="translate(614.97,364.0205)">
          <path
             d="m 0,0 c -2.455,-0.094 -4.557,-0.129 -4.515,-3.063 0.025,-1.76 1.289,-2.251 2.703,-1.387 1.334,0.818 2.602,4.978 -0.167,4.601"
             style="fill:none;stroke:#231f20;stroke-width:1.84;stroke-linecap:butt;stroke-linejoin:miter;stroke-miterlimit:4;stroke-dasharray:none;stroke-opacity:1"
             id="path2068" />
        </g>
        <g
           id="g2070"
           transform="translate(599.6714,368.752)">
          <path
             d="m 0,0 c -0.739,-0.675 -2.371,-3.524 -1.129,-4.382 1.142,-0.791 2.498,0.429 2.769,1.379 0.259,0.909 0.197,1.966 -0.374,2.825 -0.451,0.681 -1.736,1.324 -2.377,0.577"
             style="fill:none;stroke:#231f20;stroke-width:1.84;stroke-linecap:butt;stroke-linejoin:miter;stroke-miterlimit:4;stroke-dasharray:none;stroke-opacity:1"
             id="path2072" />
        </g>
        <g
           id="g2074"
           transform="translate(636.1756,385.7598)">
          <path
             d="M 0,0 C 3.959,-0.757 7.996,10.136 0.857,10.104 -1.459,8.764 -7.196,1.375 0,0"
             style="fill:#ffffff;fill-opacity:1;fill-rule:nonzero;stroke:none"
             id="path2076" />
        </g>
        <g
           id="g2078"
           transform="translate(636.1756,385.7598)">
          <path
             d="M 0,0 C 3.959,-0.757 7.996,10.136 0.857,10.104 -1.459,8.764 -7.196,1.375 0,0 Z"
             style="fill:none;stroke:#231f20;stroke-width:1.84;stroke-linecap:butt;stroke-linejoin:miter;stroke-miterlimit:4;stroke-dasharray:none;stroke-opacity:1"
             id="path2080" />
        </g>
        <g
           id="g2082"
           transform="translate(637.823,389.6963)">
          <path
             d="m 0,0 c 0.078,2.244 -3.493,2.929 -5.075,1.979 0,0 -0.481,-1.66 0.042,-2.597 0.391,-0.704 1.874,-1.925 2.757,-2.049 2.264,-0.313 2.067,3.086 1.558,4.396"
             style="fill:#231f20;fill-opacity:1;fill-rule:nonzero;stroke:none"
             id="path2084" />
        </g>
        <g
           id="g2086"
           transform="translate(641.1447,265.0977)">
          <path
             d="m 0,0 c -2.787,-1.932 -4.924,-5.054 -7.532,-7.271 2.697,-0.916 5.42,-1.022 8.242,-1.169 2.861,-0.15 4.847,-0.969 7.537,-1.304 3.293,-0.408 2.726,0.879 3.014,3.391 0.218,1.896 1.201,3.931 0.961,5.758 -2.084,0.428 -5.09,-0.244 -7.36,-0.103 -1.726,0.109 -3.146,-0.128 -4.847,0.26"
             style="fill:#231f20;fill-opacity:1;fill-rule:nonzero;stroke:none"
             id="path2088" />
        </g>
        <g
           id="g2090"
           transform="translate(675.333,265.8525)">
          <path
             d="m 0,0 c 1.134,1.418 3.975,1.898 5.797,2.521 1.156,0.397 2.999,1.7 4.1,1.217 -0.011,-2.603 2.184,-4.719 3.08,-7.069 0.357,-0.936 0.244,-2.095 1.149,-2.777 -5.584,-0.814 -11.832,-1.575 -17.225,-1.835 2.057,2.808 1.355,5.158 2.661,7.928"
             style="fill:#231f20;fill-opacity:1;fill-rule:nonzero;stroke:none"
             id="path2092" />
        </g>
        <g
           id="g2094"
           transform="translate(706.8314,268.2686)">
          <path
             d="M 0,0 C 2.5,0.205 5.067,-0.358 7.429,-1.136 7.762,-4.482 6.856,-8.065 6.936,-11.458 5.768,-11.717 4.12,-10.785 2.611,-10.77 1.836,-10.763 1.286,-10.71 0.445,-10.879 -0.167,-7.137 0.567,-3.673 0.438,0.016"
             style="fill:#231f20;fill-opacity:1;fill-rule:nonzero;stroke:none"
             id="path2096" />
        </g>
        <g
           id="g2098"
           transform="translate(742.7416,269.9619)">
          <path
             d="M 0,0 C 4.114,0.678 7.913,2.649 12.088,3.166 10.008,0.094 12.453,-3.702 12.029,-6.972 9.867,-7.301 -0.144,-8.73 -1.134,-6.759 c -0.554,1.102 1.105,6.001 1.557,7.213"
             style="fill:#231f20;fill-opacity:1;fill-rule:nonzero;stroke:none"
             id="path2100" />
        </g>
        <g
           id="g2102"
           transform="translate(655.4939,393.6133)">
          <path
             d="M 0,0 C 4.04,1.066 8.38,0.923 12.529,0.986 9.972,-1.962 7.813,-7.01 3.573,-7.778 c 1.914,0.056 3.916,0.696 5.803,0.274 -3.066,-3.423 -9.979,-6.79 -14.337,-8.232 3.969,-1.314 9.08,0.355 13.379,-0.501 -2.321,-1.03 -4.943,-2.706 -6.994,-4.225 3.323,0.061 6.91,0.751 10.335,0.464 -1.535,-2.257 -5.373,-3.472 -7.617,-5.195 1.995,-0.182 4.24,0.025 6.219,0.339 -3.439,-1.893 -6.977,-4.038 -10.28,-6.203 3.681,1.025 8.121,0.836 11.916,0.69 -2.193,-3.061 -6.998,-3.16 -9.582,-5.934 4.75,0.821 8.523,1.936 13.388,0.567 -3.345,-0.548 -6.431,-2.537 -9.819,-3.016 1.885,0.544 3.888,0.774 5.843,0.626 -1.182,-1.826 -4.146,-3.609 -6.198,-4.467 2.152,0.933 4.676,1.223 6.989,1.447 -0.677,-0.967 -2.583,-1.402 -3.455,-1.414"
             style="fill:#8e4f32;fill-opacity:1;fill-rule:nonzero;stroke:none"
             id="path2104" />
        </g>
        <g
           id="g2106"
           transform="translate(655.4939,393.6133)">
          <path
             d="M 0,0 C 4.04,1.066 8.38,0.923 12.529,0.986 9.972,-1.962 7.813,-7.01 3.573,-7.778 c 1.914,0.056 3.916,0.696 5.803,0.274 -3.066,-3.423 -9.979,-6.79 -14.337,-8.232 3.969,-1.314 9.08,0.355 13.379,-0.501 -2.321,-1.03 -4.943,-2.706 -6.994,-4.225 3.323,0.061 6.91,0.751 10.335,0.464 -1.535,-2.257 -5.373,-3.472 -7.617,-5.195 1.995,-0.182 4.24,0.025 6.219,0.339 -3.439,-1.893 -6.977,-4.038 -10.28,-6.203 3.681,1.025 8.121,0.836 11.916,0.69 -2.193,-3.061 -6.998,-3.16 -9.582,-5.934 4.75,0.821 8.523,1.936 13.388,0.567 -3.345,-0.548 -6.431,-2.537 -9.819,-3.016 1.885,0.544 3.888,0.774 5.843,0.626 -1.182,-1.826 -4.146,-3.609 -6.198,-4.467 2.152,0.933 4.676,1.223 6.989,1.447 -0.677,-0.967 -2.583,-1.402 -3.455,-1.414"
             style="fill:none;stroke:#231f20;stroke-width:1.84;stroke-linecap:butt;stroke-linejoin:miter;stroke-miterlimit:4;stroke-dasharray:none;stroke-opacity:1"
             id="path2108" />
        </g>
        <g
           id="g2110"
           transform="translate(572.5,422.2422)">
          <path
             d="m 0,0 c -2.998,0.028 -6.113,1.404 -8.683,2.789 -0.983,0.386 -3.978,2.522 -4.533,3.103 -1.143,1.028 -1.774,1.937 -2.611,3.217 -1.625,2.489 -1.626,5.793 0.039,8.261 1.293,1.917 2.984,3.532 5.528,3.513 3.858,-0.029 5.203,-3.791 5.687,-6.861 -0.406,0.932 0.1,2.392 0.257,3.323 0.287,1.705 0.9,2.671 2.274,3.657 1.818,1.303 5.64,1.276 6.915,-0.939 C 5.631,18.746 5.961,17.06 5.89,15.624 5.776,13.321 3.016,8.686 1.871,6.315 1.334,5.202 1.036,4.182 0.643,2.97 0.498,2.523 0.352,2.116 0.229,1.672 0.109,1.239 -0.186,0.326 -0.008,-0.093 c 0.226,-0.063 0.342,0.065 0.51,0.225"
             style="fill:#ed1c24;fill-opacity:1;fill-rule:nonzero;stroke:none"
             id="path2112" />
        </g>
        <g
           id="g2114"
           transform="translate(572.5,422.2422)">
          <path
             d="m 0,0 c -2.998,0.028 -6.113,1.404 -8.683,2.789 -0.983,0.386 -3.978,2.522 -4.533,3.103 -1.143,1.028 -1.774,1.937 -2.611,3.217 -1.625,2.489 -1.626,5.793 0.039,8.261 1.293,1.917 2.984,3.532 5.528,3.513 3.858,-0.029 5.203,-3.791 5.687,-6.861 -0.406,0.932 0.1,2.392 0.257,3.323 0.287,1.705 0.9,2.671 2.274,3.657 1.818,1.303 5.64,1.276 6.915,-0.939 C 5.631,18.746 5.961,17.06 5.89,15.624 5.776,13.321 3.016,8.686 1.871,6.315 1.334,5.202 1.036,4.182 0.643,2.97 0.498,2.523 0.352,2.116 0.229,1.672 0.109,1.239 -0.186,0.326 -0.008,-0.093 c 0.226,-0.063 0.342,0.065 0.51,0.225"
             style="fill:none;stroke:#231f20;stroke-width:1.84;stroke-linecap:butt;stroke-linejoin:miter;stroke-miterlimit:4;stroke-dasharray:none;stroke-opacity:1"
             id="path2116" />
        </g>
      </g>
      <g
         id="g2162"
         transform="matrix(0.35277777,0,0,-0.35277777,-168.68123,294.31164)" />
      <g
         id="g4048"
         transform="matrix(0.23334786,0,0,-0.23334712,0,105.83345)">
        <g
           id="g4050"
           clip-path="url(#clipPath4054-1)">
          <g
             id="g4104"
             transform="translate(105.0303,200.4336)">
            <path
               d="m 0,0 c 11.693,-0.039 23.381,-0.189 35.038,-0.43 55.602,-1.15 109.866,-4.621 165.145,-6.722 50.929,-1.934 91.096,4.425 134.282,14.371 46.568,10.724 86.537,25.17 133.271,35.941 29.235,6.738 60.039,13.377 93.584,16.145 47.605,3.927 97.032,3.006 145.349,3.463 45.917,0.431 91.63,-0.151 137.513,0.076 27.813,0.136 48.951,0.789 74.689,4.82 42.343,6.631 87.546,13.695 123.618,24.719 18.187,5.867 34.653,11.25 50.457,18.078 5.431,1.519 9.897,5.785 11.734,8.086 l 1.637,-36.494 c -1.261,-2.362 -31.201,-18.088 -36.232,-19.805 -14.048,-7.394 -34.15,-13.883 -50.806,-20.41 C 981.941,29.662 947.893,19.52 907.381,11.332 882.756,6.354 861.617,4.301 833.966,3.127 788.351,1.191 742.707,0.066 697.109,-2.078 649.128,-4.334 599.703,-5.26 553.286,-10.951 520.579,-14.961 491.094,-21.861 464.76,-31.49 420.611,-47.631 384.534,-59.99 340.324,-71.328 299.285,-81.854 261.377,-90.689 210.207,-90.66 154.666,-90.629 99.798,-89.195 44.17,-90.123 29.51,-90.367 14.836,-90.756 0.213,-91.33"
               style="fill:#80d6f7;fill-opacity:1;fill-rule:nonzero;stroke:none"
               id="path4106" />
          </g>
          <g
             id="g4108"
             transform="translate(53.6187,198.9199)">
            <path
               d="m 0,0 c -54.241,-2.953 -99.971,-14.592 -156.416,-27.486 -49.643,-11.34 -98.216,-24.227 -147.334,-36.157 -45.25,-10.992 -84.844,-11.455 -127.15,-10.33 -45.619,1.213 -87.42,6.524 -133.206,7.748 -28.641,0.768 -57.121,1.012 -88.299,-2.582 -44.247,-5.103 -88.992,-15.621 -132.701,-23.982 -41.538,-7.947 -82.182,-16.592 -123.62,-24.719 -25.116,-4.926 -45.565,-7.445 -70.134,-8.484 -40.421,-1.713 -82.644,-1.244 -118.905,2.142 -18.386,1.989 -35.861,4.623 -52.426,7.911 -5.413,0.382 -9.337,1.447 -11.774,3.185 l 39.716,-40.666 c 1.939,-1.902 5.468,-3.168 10.586,-3.803 15.175,-4.115 31.376,-7.601 48.606,-10.463 34.104,-5.091 76.12,-7.611 115.35,-5.892 25.106,1.098 43.933,3.039 69.256,7.002 41.776,6.537 73.288,11.806 116.177,19.183 43.759,7.53 84.89,20.5 128.665,23.797 30.844,2.325 78.822,2.467 105.958,-0.922 41.375,-5.166 63.954,-12.173 107.851,-16.97 40.217,-4.395 89.063,-6.772 135.18,2.543 50.055,10.113 99.105,21.146 149.488,30.632 C -82.09,-98.33 0,-90.207 52.979,-89.838 l -0.504,91.5"
               style="fill:#80d6f7;fill-opacity:1;fill-rule:nonzero;stroke:none"
               id="path4110" />
          </g>
          <g
             id="g4112"
             transform="translate(1213.8696,318.3125)">
            <path
               d="m 0,0 c -1.836,-2.297 -5.471,-4.201 -10.903,-5.719 -15.805,-6.812 -32.803,-13.146 -50.991,-19.002 -36.075,-10.998 -81.175,-18.838 -123.522,-25.453 -25.74,-4.021 -47.29,-5.271 -75.105,-5.408 -45.888,-0.225 -91.604,0.355 -137.524,-0.076 -48.322,-0.453 -97.753,0.467 -145.363,-3.455 -33.549,-2.76 -64.355,-9.387 -93.592,-16.11 -46.739,-10.748 -86.711,-25.162 -133.283,-35.861 -43.19,-9.926 -83.361,-16.27 -134.295,-14.338 -55.283,2.094 -109.551,5.557 -165.158,6.703 -13.127,0.272 -26.294,0.428 -39.388,0.453 -28.292,0.014 -53.775,-2.011 -69.923,-3.484 -56.073,-5.113 -81.393,-12.574 -135.424,-24.641 -49.736,-11.107 -97.476,-24.062 -146.597,-35.963 -45.256,-10.964 -83.627,-12.521 -125.937,-11.4 -45.623,1.209 -86.561,6.963 -132.351,8.184 -28.644,0.763 -58.668,1.156 -89.849,-2.432 -44.252,-5.09 -88.497,-14.875 -132.211,-23.217 -41.541,-7.927 -82.553,-16.734 -123.993,-24.844 -25.121,-4.916 -44.971,-7.691 -69.544,-8.726 -40.424,-1.709 -83.746,-2.815 -120.009,0.568 -18.388,1.983 -35.865,4.614 -52.432,7.891 -5.412,0.383 -9.337,1.443 -11.774,3.178"
               style="fill:none;stroke:#231f20;stroke-width:2.054;stroke-linecap:butt;stroke-linejoin:miter;stroke-miterlimit:4;stroke-dasharray:none;stroke-opacity:1"
               id="path4114" />
          </g>
          <g
             id="g4116"
             transform="translate(1209.5117,309.6543)">
            <path
               d="m 0,0 c -1.708,-2.313 -5.233,-4.248 -10.578,-5.813 -15.419,-6.947 -32.055,-13.425 -49.91,-19.437 -35.448,-11.305 -80.095,-19.527 -122.06,-26.502 -25.507,-4.24 -46.981,-5.672 -74.782,-6.045 -45.863,-0.613 -91.601,-0.42 -137.485,-1.24 -48.285,-0.863 -97.755,-0.361 -145.133,-4.684 -33.384,-3.047 -63.811,-9.933 -92.662,-16.906 -46.122,-11.144 -85.275,-25.896 -131.233,-36.994 -42.621,-10.291 -82.425,-16.979 -133.454,-15.479 -55.388,1.627 -109.837,4.633 -165.495,5.309 -13.901,0.17 -27.839,0.211 -41.834,0.096 -13.694,-0.239 -30.962,-1.03 -44.222,-2.016 -54.681,-4.055 -110.022,-12.713 -164.277,-24.33 -49.94,-10.691 -98,-23.264 -147.375,-34.766 -45.489,-10.595 -83.645,-11.779 -125.567,-10.22 -45.204,1.677 -85.518,7.882 -130.888,9.574 -28.38,1.058 -58.151,1.754 -89.281,-1.547 -44.179,-4.686 -88.603,-14.1 -132.421,-22.066 -41.641,-7.573 -82.805,-16.034 -124.356,-23.788 -25.187,-4.703 -45.031,-7.3 -69.468,-8.099 -40.202,-1.313 -83.246,-1.99 -119.048,1.781 -18.139,2.182 -35.341,5.01 -51.604,8.479 -5.35,0.441 -9.188,1.548 -11.514,3.322"
               style="fill:none;stroke:#231f20;stroke-width:2.054;stroke-linecap:butt;stroke-linejoin:miter;stroke-miterlimit:4;stroke-dasharray:none;stroke-opacity:1"
               id="path4118" />
          </g>
          <g
             id="g4120"
             transform="translate(1208.2051,298.0645)">
            <path
               d="m 0,0 c -1.551,-2.328 -4.946,-4.301 -10.184,-5.918 -14.943,-7.105 -31.137,-13.756 -48.58,-19.945 -34.672,-11.67 -78.749,-20.344 -120.227,-27.746 -25.213,-4.5 -46.582,-6.151 -74.348,-6.805 -45.806,-1.078 -91.54,-1.352 -137.353,-2.637 -48.209,-1.355 -97.696,-1.355 -144.765,-6.16 -33.167,-3.387 -63.118,-10.582 -91.49,-17.848 -45.353,-11.617 -83.495,-26.769 -128.689,-38.332 -41.911,-10.726 -81.25,-17.818 -132.362,-16.836 -55.479,1.065 -109.754,5.497 -165.438,5.497 -16.904,10e-4 -33.47,-0.051 -49.956,-0.368 -19.175,-0.369 -40.116,-2.027 -53.993,-3.131 -54.309,-4.322 -99.267,-12.742 -153.757,-23.808 -50.156,-10.19 -98.57,-22.297 -148.217,-33.307 -45.74,-10.144 -83.614,-10.881 -125.044,-8.802 -44.675,2.236 -84.214,8.984 -129.05,11.238 -28.047,1.41 -57.495,2.472 -88.545,-0.485 -44.064,-4.197 -88.674,-13.158 -132.591,-20.671 -41.735,-7.141 -83.054,-15.18 -124.712,-22.506 -25.251,-4.442 -45.076,-6.823 -69.335,-7.334 -39.909,-0.842 -82.593,-1.008 -117.819,3.228 -17.83,2.422 -34.69,5.481 -50.579,9.18 -5.272,0.51 -9.003,1.672 -11.194,3.49"
               style="fill:none;stroke:#231f20;stroke-width:2.054;stroke-linecap:butt;stroke-linejoin:miter;stroke-miterlimit:4;stroke-dasharray:none;stroke-opacity:1"
               id="path4122" />
          </g>
          <g
             id="g4124"
             transform="translate(104.8467,139.9824)">
            <path
               d="m 0,0 c -13.731,-0.52 -40.223,-1.732 -55.256,-2.568 -54.24,-3.008 -98.935,-10.756 -153.562,-21.416 -50.283,-9.813 -98.915,-21.565 -148.727,-32.207 -45.892,-9.807 -83.565,-10.239 -124.653,-7.827 -44.304,2.602 -83.313,9.684 -127.779,12.303 -27.815,1.639 -57.036,2.938 -88.021,0.221 -43.974,-3.854 -88.691,-12.485 -132.659,-19.666 -41.783,-6.824 -83.191,-14.555 -124.906,-21.567 -25.285,-4.25 -45.09,-6.478 -69.222,-6.798 -39.7,-0.524 -82.13,-0.348 -116.959,4.181 -17.617,2.571 -34.243,5.774 -49.878,9.61 -5.217,0.55 -8.876,1.746 -10.976,3.588"
               style="fill:none;stroke:#231f20;stroke-width:2.054;stroke-linecap:butt;stroke-linejoin:miter;stroke-miterlimit:4;stroke-dasharray:none;stroke-opacity:1"
               id="path4126" />
          </g>
          <g
             id="g4128"
             transform="translate(1215.9258,277.0156)">
            <path
               d="m 0,0 c -1.262,-2.357 -4.408,-4.395 -9.439,-6.107 -14.049,-7.379 -29.402,-14.331 -46.059,-20.842 -33.189,-12.311 -76.142,-21.803 -116.657,-29.975 -24.627,-4.967 -45.767,-7.015 -73.419,-8.189 -45.618,-1.93 -91.266,-3.057 -136.866,-5.194 -47.985,-2.252 -97.414,-3.175 -143.833,-8.855 -32.71,-4.004 -61.737,-11.756 -89.176,-19.547 -43.865,-12.453 -80.09,-28.311 -123.801,-40.713 -40.536,-11.502 -78.952,-19.324 -130.125,-19.297 -55.545,0.031 -110.417,1.465 -166.049,0.539 -25.249,-0.422 -50.543,-1.074 -75.693,-1.72 -30.1,-0.772 -56.516,-2.207 -74.681,-3.682 -53.629,-4.348 -87.952,-10.727 -142.775,-20.768 -50.463,-9.246 -99.439,-20.478 -149.498,-30.572 -46.12,-9.297 -83.41,-9.205 -123.865,-6.183 -43.621,3.259 -81.671,10.992 -125.45,14.271 -27.386,2.051 -56.189,3.779 -87.036,1.459 -43.777,-3.289 -88.648,-11.414 -132.669,-18.076 -41.833,-6.334 -83.364,-13.594 -125.143,-20.115 -25.325,-3.955 -45.079,-5.938 -68.968,-5.924 -39.302,0.029 -81.251,0.802 -115.357,5.883 -17.232,2.855 -33.435,6.337 -48.61,10.443 -5.119,0.635 -8.648,1.898 -10.587,3.793"
               style="fill:none;stroke:#231f20;stroke-width:2.054;stroke-linecap:butt;stroke-linejoin:miter;stroke-miterlimit:4;stroke-dasharray:none;stroke-opacity:1"
               id="path4130" />
          </g>
          <g
             id="g4132"
             transform="translate(104.9503,140.4883)">
            <path
               d="m 0,0 c 19.109,0.674 38.31,1.01 57.469,1.1 55.679,0.267 110.414,-1.813 165.931,-2.5 51.148,-0.637 90.161,6.713 131.584,17.705 44.665,11.853 82.121,27.242 126.945,39.146 28.04,7.447 57.662,14.834 90.672,18.442 46.845,5.113 96.324,5.451 144.464,7.128 45.748,1.596 91.463,2.174 137.212,3.561 27.732,0.842 49.024,2.637 74.03,7.299 41.139,7.674 84.819,16.633 118.961,28.519 17.161,6.299 33.053,13.049 47.675,20.243 5.164,1.652 8.47,3.644 9.916,5.978"
               style="fill:none;stroke:#231f20;stroke-width:2.197;stroke-linecap:butt;stroke-linejoin:miter;stroke-miterlimit:4;stroke-dasharray:none;stroke-opacity:1"
               id="path4134" />
          </g>
        </g>
      </g>
    </g>
  </g>
</svg>
