<svg width="1000" height="500" viewBox="0 0 264.583 132.292" xmlns="http://www.w3.org/2000/svg"><defs><clipPath clipPathUnits="userSpaceOnUse" id="e"><path d="M0 0h1133.858v1814.173H0Z"/></clipPath><clipPath clipPathUnits="userSpaceOnUse" id="d"><path d="M0 0h1133.858v1814.173H0Z"/></clipPath><clipPath clipPathUnits="userSpaceOnUse" id="c"><path d="M0 0h1133.858v1814.173H0Z"/></clipPath><clipPath clipPathUnits="userSpaceOnUse" id="b"><path d="M0 0h1133.858v1814.173H0Z"/></clipPath><linearGradient x1="0" y1="0" x2="1" y2="0" gradientUnits="userSpaceOnUse" gradientTransform="rotate(84.9 38.432 90.672) scale(138.25484)" spreadMethod="pad" id="a"><stop style="stop-opacity:1;stop-color:#cceffc" offset="0"/><stop style="stop-opacity:1;stop-color:#99def9" offset="1"/><stop style="stop-opacity:1;stop-color:#99def9" offset="1"/><stop style="stop-opacity:1;stop-color:#99def9" offset="1"/></linearGradient></defs><path style="fill:none;fill-rule:evenodd;stroke-width:.264583" d="M0 0h264.583v105.833H0z"/><path style="fill:url(#a);stroke:none;stroke-width:.233346" d="M264.583 45.291 154.15 53.94 84.611 67.547 0 73.136v59.156h264.583z"/><g clip-path="url(#b)" transform="matrix(.23335 0 0 -.23335 0 105.833)"><path d="M0 0c3.749-11.457 4.13-23.61 7.102-35.15 1.394-5.416 6.343-19.555 6.985-25.117.425-3.679-1.744 2.954-6.616 2.034-6.293-1.188-11.096-4.122-11.892.574-2.212 13.031.684 32.158-3.161 44.801-.501 1.646-.319 2.985-.445 4.348-.077.832-.778 2.364-.303 3.132 1.411 2.28 4.817-.335 6.518.147.818-.84 2.423-1.44 3.701-1.465.232-.228.346-.506.342-.835" style="fill:#cf5021;fill-opacity:1;fill-rule:nonzero;stroke:none" transform="translate(493.782 365.928)"/><path d="M0 0c3.749-11.457 4.13-23.61 7.102-35.15 1.394-5.416 6.343-19.555 6.985-25.117.425-3.679-1.744 2.954-6.616 2.034-6.293-1.188-11.096-4.122-11.892.574-2.212 13.031.684 32.158-3.161 44.801-.501 1.646-.319 2.985-.445 4.348-.077.832-.778 2.364-.303 3.132 1.411 2.28 4.817-.335 6.518.147.818-.84 2.423-1.44 3.701-1.465.232-.228.346-.506.342-.835" style="fill:none;stroke:#231f20;stroke-width:1.547;stroke-linecap:butt;stroke-linejoin:miter;stroke-miterlimit:4;stroke-dasharray:none;stroke-opacity:1" transform="translate(493.782 365.928)"/><path d="M0 0c3.646-7.028 10.104-12.148 11.149-20.021.492-3.707-3.82-12.372-4.451-16.044-.451-2.633-1.72-5.644-1.066-8.342" style="fill:none;stroke:#231f20;stroke-width:3.817;stroke-linecap:butt;stroke-linejoin:miter;stroke-miterlimit:4;stroke-dasharray:none;stroke-opacity:1" transform="translate(496.627 274.532)"/><path d="M0 0c-5.806-3.37-12.028-9.707-15.98-14.959-1.182-1.568-2.072-4.847-4.108-5.343 3.218-11.987 5.816-23.737 6.581-36.143.099-1.597.126-2.611-.119-3.995" style="fill:none;stroke:#231f20;stroke-width:3.817;stroke-linecap:butt;stroke-linejoin:miter;stroke-miterlimit:4;stroke-dasharray:none;stroke-opacity:1" transform="translate(451.626 271.795)"/><path d="M0 0c-1.382-7.228-2.654-14.452-3.679-21.74-.536-3.815-1.843-5.573.62-8.409C2.043-36.022 8.342-41.597 12.392-48.3c1.373-2.274 1.605-5.09 2.467-7.665" style="fill:none;stroke:#231f20;stroke-width:3.817;stroke-linecap:butt;stroke-linejoin:miter;stroke-miterlimit:4;stroke-dasharray:none;stroke-opacity:1" transform="translate(459.21 274.382)"/><path d="M0 0c5.074-2.388 7.717-10.286 10.741-14.693 4.554-6.635 10.063-12.674 15.784-18.248 3.057-2.978 4.023-4.474 5.197-8.44" style="fill:none;stroke:#231f20;stroke-width:3.817;stroke-linecap:butt;stroke-linejoin:miter;stroke-miterlimit:4;stroke-dasharray:none;stroke-opacity:1" transform="translate(507.66 281.19)"/><path d="M0 0c-5.075-2.106-9.39 1.539-12.43 5.593-1.613 2.15-4.291 3.414-5.188 5.981-.75 2.147-.607 4.082-1.1 6.292-.905 4.045.568 7.071-2.233 10.122 2.849-3.655 7.277-4.621 11.261-6.454 2.029-.934 4.041-2.003 5.573-3.656 2.4-2.591 3.115-6.203 5.731-8.824" style="fill:#cf5021;fill-opacity:1;fill-rule:nonzero;stroke:none" transform="translate(488.81 368.74)"/><path d="M0 0c-5.075-2.106-9.39 1.539-12.43 5.593-1.613 2.15-4.291 3.414-5.188 5.981-.75 2.147-.607 4.082-1.1 6.292-.905 4.045.568 7.071-2.233 10.122 2.849-3.655 7.277-4.621 11.261-6.454 2.029-.934 4.041-2.003 5.573-3.656 2.4-2.591 3.115-6.203 5.731-8.824" style="fill:none;stroke:#231f20;stroke-width:1.84;stroke-linecap:butt;stroke-linejoin:miter;stroke-miterlimit:4;stroke-dasharray:none;stroke-opacity:1" transform="translate(488.81 368.74)"/><path d="M0 0c2.366 1.222 5.74 4.562 7.257 6.637.906 1.238 2.921 4.612 3.293 6.247.774 3.403-1.858 7.304-3.492 9.556-1.144 1.576-2.416 2.299-3.842 3.526C1.66 27.304.675 28.862-.858 30.233c-1.145 1.024-2.552 1.863-3.362 2.921-.833 1.089-1.055 2.6-1.778 3.699 3.347-5.969.65-16.3-1.496-22.337-1.217-3.425-1.965-6.743-.018-10.288 3.133-5.708 12.093-4.621 15.525.29" style="fill:#cf5021;fill-opacity:1;fill-rule:nonzero;stroke:none" transform="translate(508.689 376.026)"/><path d="M0 0c2.366 1.222 5.74 4.562 7.257 6.637.906 1.238 2.921 4.612 3.293 6.247.774 3.403-1.858 7.304-3.492 9.556-1.144 1.576-2.416 2.299-3.842 3.526C1.66 27.304.675 28.862-.858 30.233c-1.145 1.024-2.552 1.863-3.362 2.921-.833 1.089-1.055 2.6-1.778 3.699 3.347-5.969.65-16.3-1.496-22.337-1.217-3.425-1.965-6.743-.018-10.288 3.133-5.708 12.093-4.621 15.525.29" style="fill:none;stroke:#231f20;stroke-width:1.84;stroke-linecap:butt;stroke-linejoin:miter;stroke-miterlimit:4;stroke-dasharray:none;stroke-opacity:1" transform="translate(508.689 376.026)"/><path d="M0 0c-3.744 2.09-7.595 1.645-11.79 1.453C-26.903.766-43.805-2.008-57.06-9.659c-9.185-5.301-13.757-16.591-10.132-27.099 3.082-8.935 11.047-11.596 19.598-10.488 11.084 1.437 21.853 4.488 32.32 8.305 8.177 2.98 15.981 4.486 21.559 12.049 3.584 4.863 3.56 9.96 1.883 15.523C7.325-8.569 3.061-1.709 0 0" style="fill:#cf5021;fill-opacity:1;fill-rule:nonzero;stroke:none" transform="translate(505.679 309.755)"/><path d="M0 0c-3.744 2.09-7.595 1.645-11.79 1.453C-26.903.766-43.805-2.008-57.06-9.659c-9.185-5.301-13.757-16.591-10.132-27.099 3.082-8.935 11.047-11.596 19.598-10.488 11.084 1.437 21.853 4.488 32.32 8.305 8.177 2.98 15.981 4.486 21.559 12.049 3.584 4.863 3.56 9.96 1.883 15.523C7.325-8.569 3.061-1.709 0 0Z" style="fill:none;stroke:#231f20;stroke-width:1.84;stroke-linecap:butt;stroke-linejoin:miter;stroke-miterlimit:4;stroke-dasharray:none;stroke-opacity:1" transform="translate(505.679 309.755)"/><path d="M0 0c-8.283-.543-17.384-1.368-24.48-6.108" style="fill:#8e4f32;fill-opacity:1;fill-rule:nonzero;stroke:none" transform="translate(442.188 292.608)"/><path d="M0 0c-8.283-.543-17.384-1.368-24.48-6.108" style="fill:none;stroke:#231f20;stroke-width:1.84;stroke-linecap:butt;stroke-linejoin:miter;stroke-miterlimit:4;stroke-dasharray:none;stroke-opacity:1" transform="translate(442.188 292.608)"/><path d="M0 0c-6.795-.005-17.391-2.722-22.75-7.132-2.104-1.731-6.728-7.478-6.997-10.138" style="fill:#8e4f32;fill-opacity:1;fill-rule:nonzero;stroke:none" transform="translate(440.682 288.046)"/><path d="M0 0c-6.795-.005-17.391-2.722-22.75-7.132-2.104-1.731-6.728-7.478-6.997-10.138" style="fill:none;stroke:#231f20;stroke-width:1.84;stroke-linecap:butt;stroke-linejoin:miter;stroke-miterlimit:4;stroke-dasharray:none;stroke-opacity:1" transform="translate(440.682 288.046)"/><path d="M0 0c-1.93-1.749-4.642-2.979-6.725-4.494-6.253-4.547-12.594-10.391-16.287-17.292-2.119-3.96-3.365-10.808-1.996-15.341" style="fill:#8e4f32;fill-opacity:1;fill-rule:nonzero;stroke:none" transform="translate(439.825 283.222)"/><path d="M0 0c-1.93-1.749-4.642-2.979-6.725-4.494-6.253-4.547-12.594-10.391-16.287-17.292-2.119-3.96-3.365-10.808-1.996-15.341" style="fill:none;stroke:#231f20;stroke-width:1.547;stroke-linecap:butt;stroke-linejoin:miter;stroke-miterlimit:4;stroke-dasharray:none;stroke-opacity:1" transform="translate(439.825 283.222)"/><path d="M0 0c-6.506-4.21-12.347-7.929-15.117-15.336" style="fill:#8e4f32;fill-opacity:1;fill-rule:nonzero;stroke:none" transform="translate(436.56 273.795)"/><path d="M0 0c-6.506-4.21-12.347-7.929-15.117-15.336" style="fill:none;stroke:#231f20;stroke-width:1.547;stroke-linecap:butt;stroke-linejoin:miter;stroke-miterlimit:4;stroke-dasharray:none;stroke-opacity:1" transform="translate(436.56 273.795)"/><path d="M0 0c-6.675-5.769-13.786-10.134-18.396-17.976-3.651-6.216-5.619-13.003-6.596-20.119-.996-7.242-1.931-15.309-1.109-22.592.307-2.709-.206-5.986.666-8.572" style="fill:#8e4f32;fill-opacity:1;fill-rule:nonzero;stroke:none" transform="translate(432.279 280.53)"/><path d="M0 0c-6.675-5.769-13.786-10.134-18.396-17.976-3.651-6.216-5.619-13.003-6.596-20.119-.996-7.242-1.931-15.309-1.109-22.592.307-2.709-.206-5.986.666-8.572" style="fill:none;stroke:#231f20;stroke-width:1.84;stroke-linecap:butt;stroke-linejoin:miter;stroke-miterlimit:4;stroke-dasharray:none;stroke-opacity:1" transform="translate(432.279 280.53)"/><path d="M0 0c-5.28-1.498-10.149-2.827-13.611-7.506-4.444-6.01-5.567-13.798-8.839-20.381-2.157-4.343-2.168-11.247-3.104-15.115" style="fill:#8e4f32;fill-opacity:1;fill-rule:nonzero;stroke:none" transform="translate(442.071 289.144)"/><path d="M0 0c-5.28-1.498-10.149-2.827-13.611-7.506-4.444-6.01-5.567-13.798-8.839-20.381-2.157-4.343-2.168-11.247-3.104-15.115" style="fill:none;stroke:#231f20;stroke-width:1.84;stroke-linecap:butt;stroke-linejoin:miter;stroke-miterlimit:4;stroke-dasharray:none;stroke-opacity:1" transform="translate(442.071 289.144)"/><path d="M0 0c-2.297-4.072-7.773-8.028-10.953-11.802-4.085-4.845-7.284-10.16-10.564-15.559-1.171-1.929-5.416-7.199-5.545-9.904-.126-2.638 1.555-5.894 2.287-8.365" style="fill:#8e4f32;fill-opacity:1;fill-rule:nonzero;stroke:none" transform="translate(425.783 284.32)"/><path d="M0 0c-2.297-4.072-7.773-8.028-10.953-11.802-4.085-4.845-7.284-10.16-10.564-15.559-1.171-1.929-5.416-7.199-5.545-9.904-.126-2.638 1.555-5.894 2.287-8.365" style="fill:none;stroke:#231f20;stroke-width:1.84;stroke-linecap:butt;stroke-linejoin:miter;stroke-miterlimit:4;stroke-dasharray:none;stroke-opacity:1" transform="translate(425.783 284.32)"/><path d="M0 0c6.682-4.229 13.724-16.17 6.809-23.09-7.51-7.515-19.574-7.122-28.173-4.108-3.097 1.086-6.829 4.165-8.697 6.52-2.192 2.768-5.007 5.814-6.504 9.144a319.961 319.961 0 0 1 4.754-14.168c-6.934.871-14.864 3.092-19.109 8.47-3.184 4.035-5.237 8.077-7.01 12.792-2.462 6.544-2.012 12.727 5.046 16.004 6.032 2.801 12.093 3.406 18.497 3.111 3.498-.162 6.259-.514 9.752-1.81 2.195-.814 6.361-1.548 7.84-3.164 0 0 3.972-1.587 16.795-9.701" style="fill:#cf5021;fill-opacity:1;fill-rule:nonzero;stroke:none" transform="translate(543.809 366.731)"/><path d="M0 0c6.682-4.229 13.724-16.17 6.809-23.09-7.51-7.515-19.574-7.122-28.173-4.108-3.097 1.086-6.829 4.165-8.697 6.52-2.192 2.768-5.007 5.814-6.504 9.144a319.961 319.961 0 0 1 4.754-14.168c-6.934.871-14.864 3.092-19.109 8.47-3.184 4.035-5.237 8.077-7.01 12.792-2.462 6.544-2.012 12.727 5.046 16.004 6.032 2.801 12.093 3.406 18.497 3.111 3.498-.162 6.259-.514 9.752-1.81 2.195-.814 6.361-1.548 7.84-3.164 0 0 3.972-1.587 16.795-9.701z" style="fill:none;stroke:#231f20;stroke-width:1.84;stroke-linecap:butt;stroke-linejoin:miter;stroke-miterlimit:4;stroke-dasharray:none;stroke-opacity:1" transform="translate(543.809 366.731)"/><path d="M0 0c-3.514-1.974-10.799 7.075-4.019 9.31C-1.397 8.774 6.388 3.588 0 0" style="fill:#fff;fill-opacity:1;fill-rule:nonzero;stroke:none" transform="translate(518.743 365.438)"/><path d="M0 0c-3.514-1.974-10.799 7.075-4.019 9.31C-1.397 8.774 6.388 3.588 0 0Z" style="fill:none;stroke:#231f20;stroke-width:1.84;stroke-linecap:butt;stroke-linejoin:miter;stroke-miterlimit:4;stroke-dasharray:none;stroke-opacity:1" transform="translate(518.743 365.438)"/><path d="M0 0c2.614.987 4.128 4.256 5.894 6.221 1.098 1.22 3.124 2.477 3.209 4.238 1.185-2.972-4.551-8.818-5.872-11.79-1.108 3.86-2.061 7.773-3.19 11.62C1.26 6.396 3.111 1.401 1.705-2.666-.442-.18-.976 7.173-3.852 8.475-2.045 5.07.144 2.313 1.062-1.613c-3.504.187-8.161 3.752-10.957 6.09 2.214-1.785 5.312-5.106 4.329-7.916-2.549.551-5.178.609-7.701 1.286 1.479-2.502 4.939-5.738 7.532-7.57-3.727-.018-7.82 1.825-11.362 1.506 2.004-1.355 4.615-2.154 5.977-4.273-3.642.515-8.921.671-12.396-.798 1.748-3.494 6.685-4.741 9.723-6.604-2.629.065-5.322 1.63-7.846.857 1.647-1.981 5.603-5.304 6.751-5.95" style="fill:#cf5021;fill-opacity:1;fill-rule:nonzero;stroke:none" transform="translate(500.255 383.535)"/><path d="M0 0c2.614.987 4.128 4.256 5.894 6.221 1.098 1.22 3.124 2.477 3.209 4.238 1.185-2.972-4.551-8.818-5.872-11.79-1.108 3.86-2.061 7.773-3.19 11.62C1.26 6.396 3.111 1.401 1.705-2.666-.442-.18-.976 7.173-3.852 8.475-2.045 5.07.144 2.313 1.062-1.613c-3.504.187-8.161 3.752-10.957 6.09 2.214-1.785 5.312-5.106 4.329-7.916-2.549.551-5.178.609-7.701 1.286 1.479-2.502 4.939-5.738 7.532-7.57-3.727-.018-7.82 1.825-11.362 1.506 2.004-1.355 4.615-2.154 5.977-4.273-3.642.515-8.921.671-12.396-.798 1.748-3.494 6.685-4.741 9.723-6.604-2.629.065-5.322 1.63-7.846.857 1.647-1.981 5.603-5.304 6.751-5.95" style="fill:none;stroke:#231f20;stroke-width:1.84;stroke-linecap:butt;stroke-linejoin:miter;stroke-miterlimit:4;stroke-dasharray:none;stroke-opacity:1" transform="translate(500.255 383.535)"/></g><g clip-path="url(#c)" transform="matrix(.23335 0 0 -.23335 0 105.833)"><path d="M0 0c-.787 2.104 2.383 3.885 4.185 3.486.191-.868.982-1.42.784-2.475C4.821.22 3.803-1.411 3.005-1.807.957-2.823.064.464.132 1.868" style="fill:#231f20;fill-opacity:1;fill-rule:nonzero;stroke:none" transform="translate(516.138 369.241)"/><path d="M0 0c2.358.689 4.362 1.322 5.254-1.472.535-1.678-.508-2.546-2.124-2.174C1.606-3.293-.916.249 1.83.771" style="fill:none;stroke:#231f20;stroke-width:1.84;stroke-linecap:butt;stroke-linejoin:miter;stroke-miterlimit:4;stroke-dasharray:none;stroke-opacity:1" transform="translate(534.372 344.772)"/><path d="M0 0c.914-.406 3.366-2.59 2.461-3.797-.833-1.112-2.505-.386-3.064.429-.534.78-.811 1.803-.542 2.798C-.933.219.082 1.235.926.731" style="fill:none;stroke:#231f20;stroke-width:1.84;stroke-linecap:butt;stroke-linejoin:miter;stroke-miterlimit:4;stroke-dasharray:none;stroke-opacity:1" transform="translate(547.38 354.112)"/><path d="M0 0c-3.514-1.974-10.799 7.075-4.019 9.31C-1.397 8.774 6.388 3.588 0 0" style="fill:#fff;fill-opacity:1;fill-rule:nonzero;stroke:none" transform="translate(507.365 358.66)"/><path d="M0 0c-3.514-1.974-10.799 7.075-4.019 9.31C-1.397 8.774 6.388 3.588 0 0Z" style="fill:none;stroke:#231f20;stroke-width:1.84;stroke-linecap:butt;stroke-linejoin:miter;stroke-miterlimit:4;stroke-dasharray:none;stroke-opacity:1" transform="translate(507.365 358.66)"/><path d="M0 0c-.787 2.104 2.383 3.885 4.185 3.486.191-.868.982-1.42.784-2.475C4.821.22 3.803-1.411 3.005-1.807.957-2.823.064.464.132 1.868" style="fill:#231f20;fill-opacity:1;fill-rule:nonzero;stroke:none" transform="translate(505.429 361.76)"/><path d="M0 0c3.255-.948 6.273-3.23 9.45-4.506-2.267-1.723-4.816-2.688-7.446-3.723-2.665-1.051-4.288-2.458-6.733-3.63-2.993-1.432-2.863-.032-3.935 2.26-.808 1.729-2.385 3.347-2.738 5.157 1.841 1.066 4.904 1.382 7.013 2.237 1.602.649 3.024.876 4.514 1.784" style="fill:#231f20;fill-opacity:1;fill-rule:nonzero;stroke:none" transform="translate(540.939 242.656)"/><path d="M0 0c-1.525.984-4.372.538-6.297.552-1.222.01-3.384.658-4.275-.148.837-2.465-.574-5.17-.677-7.68-.042-1 .433-2.066-.209-2.999C-5.904-9.274.262-8.015 5.46-6.55 2.618-4.539 2.538-2.088.42.124" style="fill:#231f20;fill-opacity:1;fill-rule:nonzero;stroke:none" transform="translate(508.278 232.523)"/><path d="M0 0c-2.436-.6-4.691-1.948-6.685-3.434.747-3.28 2.742-6.39 3.743-9.633 1.19.126 2.458 1.531 3.883 2.025.733.252 1.238.477 2.09.582C2.423-6.715.628-3.663-.42-.124" style="fill:#231f20;fill-opacity:1;fill-rule:nonzero;stroke:none" transform="translate(477.64 224.82)"/><path d="M0 0c-4.117-.663-8.345.002-12.468-.834 2.947-2.252 1.833-6.628 3.272-9.595 2.155.375 12.102 2.195 12.416 4.379C3.395-4.83.268-.71-.545.296" style="fill:#231f20;fill-opacity:1;fill-rule:nonzero;stroke:none" transform="translate(443.05 215.031)"/><path d="M0 0c-4.169-.272-8.239-1.785-12.194-3.041C-8.834-5.025-5.185-9.128-.92-8.512c-1.833-.553-3.934-.582-5.59-1.58 3.994-2.273 11.618-3.274 16.208-3.258C6.352-15.855.975-15.894-2.83-18.07c2.528-.24 5.545-.998 7.973-1.787-3.171-.997-6.792-1.481-9.949-2.839 2.173-1.655 6.198-1.588 8.872-2.511-1.834-.806-4.028-1.321-6.004-1.651a159.295 159.295 0 0 0 11.716-2.621c-3.816-.197-7.966-1.784-11.519-3.126 3.051-2.208 7.639-.778 10.97-2.587-4.765-.73-8.696-.869-12.876-3.711 3.346.542 6.903-.366 10.268.256-1.96-.083-3.933-.499-5.739-1.261 1.701-1.358 5.077-2.107 7.295-2.269-2.337.201-4.822-.324-7.087-.845.949-.704 2.895-.511 3.725-.245" style="fill:#cf5021;fill-opacity:1;fill-rule:nonzero;stroke:none" transform="translate(486.552 359.978)"/><path d="M0 0c-4.169-.272-8.239-1.785-12.194-3.041C-8.834-5.025-5.185-9.128-.92-8.512c-1.833-.553-3.934-.582-5.59-1.58 3.994-2.273 11.618-3.274 16.208-3.258C6.352-15.855.975-15.894-2.83-18.07c2.528-.24 5.545-.998 7.973-1.787-3.171-.997-6.792-1.481-9.949-2.839 2.173-1.655 6.198-1.588 8.872-2.511-1.834-.806-4.028-1.321-6.004-1.651a159.295 159.295 0 0 0 11.716-2.621c-3.816-.197-7.966-1.784-11.519-3.126 3.051-2.208 7.639-.778 10.97-2.587-4.765-.73-8.696-.869-12.876-3.711 3.346.542 6.903-.366 10.268.256-1.96-.083-3.933-.499-5.739-1.261 1.701-1.358 5.077-2.107 7.295-2.269-2.337.201-4.822-.324-7.087-.845.949-.704 2.895-.511 3.725-.245" style="fill:none;stroke:#231f20;stroke-width:1.84;stroke-linecap:butt;stroke-linejoin:miter;stroke-miterlimit:4;stroke-dasharray:none;stroke-opacity:1" transform="translate(486.552 359.978)"/><path d="M0 0c.081-12.055 3.575-23.7 4.419-35.588.396-5.577.189-20.558 1.345-26.034.766-3.625.717 3.354 5.629 4.027 6.344.871 11.83-.388 11.096 4.319-2.038 13.059-10.853 30.278-11.218 43.487-.048 1.722-.645 2.934-.958 4.266-.191.813-.012 2.488-.707 3.066-2.061 1.715-4.461-1.847-6.227-1.93C2.87-5.441 1.538-6.52.333-6.95a1.108 1.108 0 0 1-.059-.9" style="fill:#8e4f32;fill-opacity:1;fill-rule:nonzero;stroke:none" transform="translate(646.75 396.963)"/><path d="M0 0c.081-12.055 3.575-23.7 4.419-35.588.396-5.577.189-20.558 1.345-26.034.766-3.625.717 3.354 5.629 4.027 6.344.871 11.83-.388 11.096 4.319-2.038 13.059-10.853 30.278-11.218 43.487-.048 1.722-.645 2.934-.958 4.266-.191.813-.012 2.488-.707 3.066-2.061 1.715-4.461-1.847-6.227-1.93C2.87-5.441 1.538-6.52.333-6.95a1.108 1.108 0 0 1-.059-.9" style="fill:none;stroke:#231f20;stroke-width:1.84;stroke-linecap:butt;stroke-linejoin:miter;stroke-miterlimit:4;stroke-dasharray:none;stroke-opacity:1" transform="translate(646.75 396.963)"/><path d="M0 0c-1.227-7.822-5.727-14.727-4.22-22.525.71-3.671 7.549-10.519 9.312-13.803 1.264-2.353 3.421-4.805 3.658-7.571" style="fill:none;stroke:#231f20;stroke-width:3.817;stroke-linecap:butt;stroke-linejoin:miter;stroke-miterlimit:4;stroke-dasharray:none;stroke-opacity:1" transform="translate(673.053 309.389)"/><path d="M0 0c6.576-1.354 14.487-5.389 19.902-9.116 1.617-1.112 3.501-3.939 5.591-3.764.752-12.387 2.017-24.355 5.227-36.363.413-1.545.708-2.516 1.38-3.751" style="fill:none;stroke:#231f20;stroke-width:3.817;stroke-linecap:butt;stroke-linejoin:miter;stroke-miterlimit:4;stroke-dasharray:none;stroke-opacity:1" transform="translate(716.595 321.071)"/><path d="M0 0c3.604-6.416 7.103-12.864 10.387-19.45 1.718-3.448 3.516-4.7 2.08-8.171-2.974-7.191-7.179-14.474-8.892-22.116-.582-2.592.092-5.335.091-8.052" style="fill:none;stroke:#231f20;stroke-width:3.817;stroke-linecap:butt;stroke-linejoin:miter;stroke-miterlimit:4;stroke-dasharray:none;stroke-opacity:1" transform="translate(708.584 321.118)"/><path d="M0 0c-4.055-3.874-4.054-12.204-5.524-17.343-2.213-7.736-5.521-15.212-9.178-22.312-1.954-3.794-2.395-5.52-2.251-9.653" style="fill:none;stroke:#231f20;stroke-width:3.817;stroke-linecap:butt;stroke-linejoin:miter;stroke-miterlimit:4;stroke-dasharray:none;stroke-opacity:1" transform="translate(660.476 312.2)"/><path d="M0 0c5.48-.387 8.416 4.439 10.013 9.248.847 2.552 2.985 4.599 3.021 7.319.03 2.274-.721 4.064-.952 6.315-.426 4.124-2.782 6.525-1.095 10.308-1.543-4.37-5.436-6.69-8.631-9.693-1.627-1.53-3.196-3.182-4.125-5.237-1.455-3.22-.985-6.87-2.636-10.185" style="fill:#8e4f32;fill-opacity:1;fill-rule:nonzero;stroke:none" transform="translate(650.575 401.208)"/><path d="M0 0c5.48-.387 8.416 4.439 10.013 9.248.847 2.552 2.985 4.599 3.021 7.319.03 2.274-.721 4.064-.952 6.315-.426 4.124-2.782 6.525-1.095 10.308-1.543-4.37-5.436-6.69-8.631-9.693-1.627-1.53-3.196-3.182-4.125-5.237-1.455-3.22-.985-6.87-2.636-10.185" style="fill:none;stroke:#231f20;stroke-width:1.84;stroke-linecap:butt;stroke-linejoin:miter;stroke-miterlimit:4;stroke-dasharray:none;stroke-opacity:1" transform="translate(650.575 401.208)"/><path d="M0 0c-2.631.408-6.891 2.505-8.988 3.99-1.251.889-4.234 3.448-5.104 4.88-1.815 2.983-.557 7.519.279 10.173.585 1.855 1.561 2.944 2.525 4.561 1.051 1.762 1.49 3.552 2.509 5.339.761 1.334 1.829 2.576 2.261 3.836.444 1.298.176 2.801.512 4.074-1.279-6.723 4.556-15.665 8.507-20.709 2.241-2.862 4.003-5.771 3.282-9.751C4.623-.015-4.219-1.826-9.032 1.742" style="fill:#8e4f32;fill-opacity:1;fill-rule:nonzero;stroke:none" transform="translate(629.409 401.81)"/><path d="M0 0c-2.631.408-6.891 2.505-8.988 3.99-1.251.889-4.234 3.448-5.104 4.88-1.815 2.983-.557 7.519.279 10.173.585 1.855 1.561 2.944 2.525 4.561 1.051 1.762 1.49 3.552 2.509 5.339.761 1.334 1.829 2.576 2.261 3.836.444 1.298.176 2.801.512 4.074-1.279-6.723 4.556-15.665 8.507-20.709 2.241-2.862 4.003-5.771 3.282-9.751C4.623-.015-4.219-1.826-9.032 1.742" style="fill:none;stroke:#231f20;stroke-width:1.84;stroke-linecap:butt;stroke-linejoin:miter;stroke-miterlimit:4;stroke-dasharray:none;stroke-opacity:1" transform="translate(629.409 401.81)"/><path d="M0 0c2.887 3.17 6.68 3.97 10.72 5.119 14.549 4.144 31.459 6.875 46.456 3.827C67.569 6.832 75.487-2.423 75.384-13.539c-.088-9.451-6.797-14.502-15.258-16.164-10.968-2.153-22.148-2.677-33.285-2.38-8.7.232-16.578-.815-24.268 4.586-4.942 3.475-6.537 8.316-6.712 14.123C-4.227-10.449-2.36-2.593 0 0" style="fill:#8e4f32;fill-opacity:1;fill-rule:nonzero;stroke:none" transform="translate(653.293 339.918)"/><path d="M0 0c2.887 3.17 6.68 3.97 10.72 5.119 14.549 4.144 31.459 6.875 46.456 3.827C67.569 6.832 75.487-2.423 75.384-13.539c-.088-9.451-6.797-14.502-15.258-16.164-10.968-2.153-22.148-2.677-33.285-2.38-8.7.232-16.578-.815-24.268 4.586-4.942 3.475-6.537 8.316-6.712 14.123C-4.227-10.449-2.36-2.593 0 0Z" style="fill:none;stroke:#231f20;stroke-width:1.84;stroke-linecap:butt;stroke-linejoin:miter;stroke-miterlimit:4;stroke-dasharray:none;stroke-opacity:1" transform="translate(653.293 339.918)"/><path d="M0 0c8.027 2.114 16.919 4.219 25.153 1.976" style="fill:#cf5021;fill-opacity:1;fill-rule:nonzero;stroke:none" transform="translate(718.943 343.803)"/><path d="M0 0c8.027 2.114 16.919 4.219 25.153 1.976" style="fill:none;stroke:#231f20;stroke-width:1.84;stroke-linecap:butt;stroke-linejoin:miter;stroke-miterlimit:4;stroke-dasharray:none;stroke-opacity:1" transform="translate(718.943 343.803)"/><path d="M0 0c6.445 2.151 17.356 2.936 23.837.455 2.545-.975 8.754-4.957 9.852-7.393" style="fill:#cf5021;fill-opacity:1;fill-rule:nonzero;stroke:none" transform="translate(721.818 339.955)"/><path d="M0 0c6.445 2.151 17.356 2.936 23.837.455 2.545-.975 8.754-4.957 9.852-7.393" style="fill:none;stroke:#231f20;stroke-width:1.84;stroke-linecap:butt;stroke-linejoin:miter;stroke-miterlimit:4;stroke-dasharray:none;stroke-opacity:1" transform="translate(721.818 339.955)"/><path d="M0 0c2.385-1.046 5.348-1.353 7.803-2.128 7.373-2.328 15.24-5.857 20.933-11.23 3.265-3.083 6.62-9.181 6.76-13.914" style="fill:#cf5021;fill-opacity:1;fill-rule:nonzero;stroke:none" transform="translate(724.162 335.651)"/><path d="M0 0c2.385-1.046 5.348-1.353 7.803-2.128 7.373-2.328 15.24-5.857 20.933-11.23 3.265-3.083 6.62-9.181 6.76-13.914" style="fill:none;stroke:#231f20;stroke-width:1.547;stroke-linecap:butt;stroke-linejoin:miter;stroke-miterlimit:4;stroke-dasharray:none;stroke-opacity:1" transform="translate(724.162 335.651)"/><path d="M0 0c7.505-1.929 14.224-3.602 19.202-9.748" style="fill:#cf5021;fill-opacity:1;fill-rule:nonzero;stroke:none" transform="translate(730.25 327.749)"/><path d="M0 0c7.505-1.929 14.224-3.602 19.202-9.748" style="fill:none;stroke:#231f20;stroke-width:1.547;stroke-linecap:butt;stroke-linejoin:miter;stroke-miterlimit:4;stroke-dasharray:none;stroke-opacity:1" transform="translate(730.25 327.749)"/><path d="M0 0c8.16-3.354 16.289-5.235 23.148-11.21 5.436-4.736 9.455-10.548 12.64-16.986 3.242-6.552 6.689-13.907 8.219-21.074.569-2.666 2.095-5.611 2.089-8.339" style="fill:#cf5021;fill-opacity:1;fill-rule:nonzero;stroke:none" transform="translate(732.173 335.493)"/><path d="M0 0c8.16-3.354 16.289-5.235 23.148-11.21 5.436-4.736 9.455-10.548 12.64-16.986 3.242-6.552 6.689-13.907 8.219-21.074.569-2.666 2.095-5.611 2.089-8.339" style="fill:none;stroke:#231f20;stroke-width:1.84;stroke-linecap:butt;stroke-linejoin:miter;stroke-miterlimit:4;stroke-dasharray:none;stroke-opacity:1" transform="translate(732.173 335.493)"/><path d="M0 0c5.483.255 10.522.54 15.289-2.8 6.121-4.288 9.658-11.317 14.849-16.522 3.425-3.435 5.626-9.978 7.74-13.349" style="fill:#cf5021;fill-opacity:1;fill-rule:nonzero;stroke:none" transform="translate(720.153 340.555)"/><path d="M0 0c5.483.255 10.522.54 15.289-2.8 6.121-4.288 9.658-11.317 14.849-16.522 3.425-3.435 5.626-9.978 7.74-13.349" style="fill:none;stroke:#231f20;stroke-width:1.84;stroke-linecap:butt;stroke-linejoin:miter;stroke-miterlimit:4;stroke-dasharray:none;stroke-opacity:1" transform="translate(720.153 340.555)"/><path d="M0 0c3.471-3.133 9.919-5.146 14.132-7.716 5.411-3.299 10.131-7.323 14.954-11.403 1.723-1.457 7.421-5.108 8.402-7.632.956-2.462.396-6.084.485-8.659" style="fill:#cf5021;fill-opacity:1;fill-rule:nonzero;stroke:none" transform="translate(737.13 341.147)"/><path d="M0 0c3.471-3.133 9.919-5.146 14.132-7.716 5.411-3.299 10.131-7.323 14.954-11.403 1.723-1.457 7.421-5.108 8.402-7.632.956-2.462.396-6.084.485-8.659" style="fill:none;stroke:#231f20;stroke-width:1.84;stroke-linecap:butt;stroke-linejoin:miter;stroke-miterlimit:4;stroke-dasharray:none;stroke-opacity:1" transform="translate(737.13 341.147)"/><path d="M0 0c-4.995-6.13-7.884-19.688.869-24.058 9.507-4.743 20.823-.543 28.021 5.044 2.593 2.013 5.155 6.116 6.178 8.944 1.201 3.318 2.904 7.101 3.267 10.733.111-5.045.11-10.028-.012-14.943 6.299 3.026 13.115 7.647 15.434 14.095 1.739 4.837 2.403 9.323 2.588 14.356.258 6.987-2.13 12.708-9.863 13.576-6.609.742-12.548-.608-18.528-2.92-3.266-1.263-5.772-2.472-8.674-4.81-1.823-1.469-5.541-3.486-6.431-5.489 0 0-3.263-2.763-12.849-14.528" style="fill:#8e4f32;fill-opacity:1;fill-rule:nonzero;stroke:none" transform="translate(599.054 381.852)"/><path d="M0 0c-4.995-6.13-7.884-19.688.869-24.058 9.507-4.743 20.823-.543 28.021 5.044 2.593 2.013 5.155 6.116 6.178 8.944 1.201 3.318 2.904 7.101 3.267 10.733.111-5.045.11-10.028-.012-14.943 6.299 3.026 13.115 7.647 15.434 14.095 1.739 4.837 2.403 9.323 2.588 14.356.258 6.987-2.13 12.708-9.863 13.576-6.609.742-12.548-.608-18.528-2.92-3.266-1.263-5.772-2.472-8.674-4.81-1.823-1.469-5.541-3.486-6.431-5.489 0 0-3.263-2.763-12.849-14.528Z" style="fill:none;stroke:#231f20;stroke-width:1.84;stroke-linecap:butt;stroke-linejoin:miter;stroke-miterlimit:4;stroke-dasharray:none;stroke-opacity:1" transform="translate(599.054 381.852)"/><path d="M0 0c3.959-.757 7.996 10.136.857 10.104C-1.459 8.764-7.196 1.375 0 0" style="fill:#fff;fill-opacity:1;fill-rule:nonzero;stroke:none" transform="translate(623.235 388.58)"/><path d="M0 0c3.959-.757 7.996 10.136.857 10.104C-1.459 8.764-7.196 1.375 0 0Z" style="fill:none;stroke:#231f20;stroke-width:1.84;stroke-linecap:butt;stroke-linejoin:miter;stroke-miterlimit:4;stroke-dasharray:none;stroke-opacity:1" transform="translate(623.235 388.58)"/><path d="M0 0c-2.792.108-5.266 2.728-7.564 4.029-1.428.81-3.748 1.359-4.387 3.001-.181-3.194 7.113-6.918 9.309-9.317-.174 4.013-.512 8.026-.662 12.032.08-4.079-.091-9.402 2.533-12.813C.476-.03-1.351 7.112.963 9.259.33 5.458-.871 2.149-.496-1.867 2.768-.577 6.053 4.28 7.963 7.386 6.429 4.991 4.546.858 6.37-1.494c2.242 1.332 4.716 2.22 6.895 3.662-.609-2.842-2.864-7.008-4.742-9.566 3.541 1.164 6.837 4.21 10.298 5.032-1.471-1.921-3.693-3.508-4.313-5.949 3.29 1.645 8.248 3.466 12.008 3.175-.549-3.867-4.834-6.617-7.124-9.346 2.473.894 4.53 3.234 7.168 3.301-.933-2.4-3.63-6.808-4.513-7.785" style="fill:#8e4f32;fill-opacity:1;fill-rule:nonzero;stroke:none" transform="translate(635.025 411.606)"/><path d="M0 0c-2.792.108-5.266 2.728-7.564 4.029-1.428.81-3.748 1.359-4.387 3.001-.181-3.194 7.113-6.918 9.309-9.317-.174 4.013-.512 8.026-.662 12.032.08-4.079-.091-9.402 2.533-12.813C.476-.03-1.351 7.112.963 9.259.33 5.458-.871 2.149-.496-1.867 2.768-.577 6.053 4.28 7.963 7.386 6.429 4.991 4.546.858 6.37-1.494c2.242 1.332 4.716 2.22 6.895 3.662-.609-2.842-2.864-7.008-4.742-9.566 3.541 1.164 6.837 4.21 10.298 5.032-1.471-1.921-3.693-3.508-4.313-5.949 3.29 1.645 8.248 3.466 12.008 3.175-.549-3.867-4.834-6.617-7.124-9.346 2.473.894 4.53 3.234 7.168 3.301-.933-2.4-3.63-6.808-4.513-7.785" style="fill:none;stroke:#231f20;stroke-width:1.84;stroke-linecap:butt;stroke-linejoin:miter;stroke-miterlimit:4;stroke-dasharray:none;stroke-opacity:1" transform="translate(635.025 411.606)"/></g><g clip-path="url(#d)" transform="matrix(.23335 0 0 -.23335 0 105.833)"><path d="M0 0c.078 2.245-3.493 2.927-5.075 1.978.094-.884-.481-1.659.042-2.596.391-.704 1.874-1.927 2.757-2.05C-.012-2.981-.208.418-.718 1.729" style="fill:#231f20;fill-opacity:1;fill-rule:nonzero;stroke:none" transform="translate(624.222 392.484)"/><path d="M0 0c-2.455-.094-4.557-.129-4.515-3.063.025-1.76 1.289-2.251 2.703-1.387C-.478-3.632.79.528-1.979.151" style="fill:none;stroke:#231f20;stroke-width:1.84;stroke-linecap:butt;stroke-linejoin:miter;stroke-miterlimit:4;stroke-dasharray:none;stroke-opacity:1" transform="translate(614.97 364.02)"/><path d="M0 0c-.739-.675-2.371-3.524-1.129-4.382 1.142-.791 2.498.429 2.769 1.379.259.909.197 1.966-.374 2.825C.815.503-.47 1.146-1.111.399" style="fill:none;stroke:#231f20;stroke-width:1.84;stroke-linecap:butt;stroke-linejoin:miter;stroke-miterlimit:4;stroke-dasharray:none;stroke-opacity:1" transform="translate(599.671 368.752)"/><path d="M0 0c3.959-.757 7.996 10.136.857 10.104C-1.459 8.764-7.196 1.375 0 0" style="fill:#fff;fill-opacity:1;fill-rule:nonzero;stroke:none" transform="translate(636.176 385.76)"/><path d="M0 0c3.959-.757 7.996 10.136.857 10.104C-1.459 8.764-7.196 1.375 0 0Z" style="fill:none;stroke:#231f20;stroke-width:1.84;stroke-linecap:butt;stroke-linejoin:miter;stroke-miterlimit:4;stroke-dasharray:none;stroke-opacity:1" transform="translate(636.176 385.76)"/><path d="M0 0c.078 2.244-3.493 2.929-5.075 1.979 0 0-.481-1.66.042-2.597.391-.704 1.874-1.925 2.757-2.049C-.012-2.98-.209.419-.718 1.729" style="fill:#231f20;fill-opacity:1;fill-rule:nonzero;stroke:none" transform="translate(637.823 389.696)"/><path d="M0 0c-2.787-1.932-4.924-5.054-7.532-7.271C-4.835-8.187-2.112-8.293.71-8.44c2.861-.15 4.847-.969 7.537-1.304 3.293-.408 2.726.879 3.014 3.391.218 1.896 1.201 3.931.961 5.758-2.084.428-5.09-.244-7.36-.103-1.726.109-3.146-.128-4.847.26" style="fill:#231f20;fill-opacity:1;fill-rule:nonzero;stroke:none" transform="translate(641.145 265.098)"/><path d="M0 0c1.134 1.418 3.975 1.898 5.797 2.521 1.156.397 2.999 1.7 4.1 1.217-.011-2.603 2.184-4.719 3.08-7.069.357-.936.244-2.095 1.149-2.777C8.542-6.922 2.294-7.683-3.099-7.943-1.042-5.135-1.744-2.785-.438-.015" style="fill:#231f20;fill-opacity:1;fill-rule:nonzero;stroke:none" transform="translate(675.333 265.853)"/><path d="M0 0c2.5.205 5.067-.358 7.429-1.136.333-3.346-.573-6.929-.493-10.322-1.168-.259-2.816.673-4.325.688-.775.007-1.325.06-2.166-.109C-.167-7.137.567-3.673.438.016" style="fill:#231f20;fill-opacity:1;fill-rule:nonzero;stroke:none" transform="translate(706.831 268.269)"/><path d="M0 0c4.114.678 7.913 2.649 12.088 3.166-2.08-3.072.365-6.868-.059-10.138C9.867-7.301-.144-8.73-1.134-6.759-1.688-5.657-.029-.758.423.454" style="fill:#231f20;fill-opacity:1;fill-rule:nonzero;stroke:none" transform="translate(742.742 269.962)"/><path d="M0 0c4.04 1.066 8.38.923 12.529.986C9.972-1.962 7.813-7.01 3.573-7.778c1.914.056 3.916.696 5.803.274-3.066-3.423-9.979-6.79-14.337-8.232 3.969-1.314 9.08.355 13.379-.501-2.321-1.03-4.943-2.706-6.994-4.225 3.323.061 6.91.751 10.335.464-1.535-2.257-5.373-3.472-7.617-5.195 1.995-.182 4.24.025 6.219.339a158.565 158.565 0 0 1-10.28-6.203c3.681 1.025 8.121.836 11.916.69-2.193-3.061-6.998-3.16-9.582-5.934 4.75.821 8.523 1.936 13.388.567-3.345-.548-6.431-2.537-9.819-3.016 1.885.544 3.888.774 5.843.626-1.182-1.826-4.146-3.609-6.198-4.467 2.152.933 4.676 1.223 6.989 1.447-.677-.967-2.583-1.402-3.455-1.414" style="fill:#8e4f32;fill-opacity:1;fill-rule:nonzero;stroke:none" transform="translate(655.494 393.613)"/><path d="M0 0c4.04 1.066 8.38.923 12.529.986C9.972-1.962 7.813-7.01 3.573-7.778c1.914.056 3.916.696 5.803.274-3.066-3.423-9.979-6.79-14.337-8.232 3.969-1.314 9.08.355 13.379-.501-2.321-1.03-4.943-2.706-6.994-4.225 3.323.061 6.91.751 10.335.464-1.535-2.257-5.373-3.472-7.617-5.195 1.995-.182 4.24.025 6.219.339a158.565 158.565 0 0 1-10.28-6.203c3.681 1.025 8.121.836 11.916.69-2.193-3.061-6.998-3.16-9.582-5.934 4.75.821 8.523 1.936 13.388.567-3.345-.548-6.431-2.537-9.819-3.016 1.885.544 3.888.774 5.843.626-1.182-1.826-4.146-3.609-6.198-4.467 2.152.933 4.676 1.223 6.989 1.447-.677-.967-2.583-1.402-3.455-1.414" style="fill:none;stroke:#231f20;stroke-width:1.84;stroke-linecap:butt;stroke-linejoin:miter;stroke-miterlimit:4;stroke-dasharray:none;stroke-opacity:1" transform="translate(655.494 393.613)"/><path d="M0 0c-2.998.028-6.113 1.404-8.683 2.789-.983.386-3.978 2.522-4.533 3.103-1.143 1.028-1.774 1.937-2.611 3.217-1.625 2.489-1.626 5.793.039 8.261 1.293 1.917 2.984 3.532 5.528 3.513 3.858-.029 5.203-3.791 5.687-6.861-.406.932.1 2.392.257 3.323.287 1.705.9 2.671 2.274 3.657 1.818 1.303 5.64 1.276 6.915-.939.758-1.317 1.088-3.003 1.017-4.439-.114-2.303-2.874-6.938-4.019-9.309C1.334 5.202 1.036 4.182.643 2.97.498 2.523.352 2.116.229 1.672.109 1.239-.186.326-.008-.093c.226-.063.342.065.51.225" style="fill:#ed1c24;fill-opacity:1;fill-rule:nonzero;stroke:none" transform="translate(572.5 422.242)"/><path d="M0 0c-2.998.028-6.113 1.404-8.683 2.789-.983.386-3.978 2.522-4.533 3.103-1.143 1.028-1.774 1.937-2.611 3.217-1.625 2.489-1.626 5.793.039 8.261 1.293 1.917 2.984 3.532 5.528 3.513 3.858-.029 5.203-3.791 5.687-6.861-.406.932.1 2.392.257 3.323.287 1.705.9 2.671 2.274 3.657 1.818 1.303 5.64 1.276 6.915-.939.758-1.317 1.088-3.003 1.017-4.439-.114-2.303-2.874-6.938-4.019-9.309C1.334 5.202 1.036 4.182.643 2.97.498 2.523.352 2.116.229 1.672.109 1.239-.186.326-.008-.093c.226-.063.342.065.51.225" style="fill:none;stroke:#231f20;stroke-width:1.84;stroke-linecap:butt;stroke-linejoin:miter;stroke-miterlimit:4;stroke-dasharray:none;stroke-opacity:1" transform="translate(572.5 422.242)"/></g><g clip-path="url(#e)" transform="matrix(.23335 0 0 -.23335 0 105.833)"><path d="M0 0c11.693-.039 23.381-.189 35.038-.43C90.64-1.58 144.904-5.051 200.183-7.152c50.929-1.934 91.096 4.425 134.282 14.371 46.568 10.724 86.537 25.17 133.271 35.941 29.235 6.738 60.039 13.377 93.584 16.145 47.605 3.927 97.032 3.006 145.349 3.463 45.917.431 91.63-.151 137.513.076 27.813.136 48.951.789 74.689 4.82 42.343 6.631 87.546 13.695 123.618 24.719 18.187 5.867 34.653 11.25 50.457 18.078 5.431 1.519 9.897 5.785 11.734 8.086l1.637-36.494c-1.261-2.362-31.201-18.088-36.232-19.805-14.048-7.394-34.15-13.883-50.806-20.41-37.338-12.176-71.386-22.318-111.898-30.506-24.625-4.978-45.764-7.031-73.415-8.205-45.615-1.936-91.259-3.061-136.857-5.205-47.981-2.256-97.406-3.182-143.823-8.873-32.707-4.01-62.192-10.91-88.526-20.539-44.149-16.141-80.226-28.5-124.436-39.838-41.039-10.526-78.947-19.361-130.117-19.332-55.541.031-110.409 1.465-166.037.537-14.66-.244-29.334-.633-43.957-1.207" style="fill:#80d6f7;fill-opacity:1;fill-rule:nonzero;stroke:none" transform="translate(105.03 200.434)"/><path d="M0 0c-54.241-2.953-99.971-14.592-156.416-27.486-49.643-11.34-98.216-24.227-147.334-36.157-45.25-10.992-84.844-11.455-127.15-10.33-45.619 1.213-87.42 6.524-133.206 7.748-28.641.768-57.121 1.012-88.299-2.582-44.247-5.103-88.992-15.621-132.701-23.982-41.538-7.947-82.182-16.592-123.62-24.719-25.116-4.926-45.565-7.445-70.134-8.484-40.421-1.713-82.644-1.244-118.905 2.142-18.386 1.989-35.861 4.623-52.426 7.911-5.413.382-9.337 1.447-11.774 3.185l39.716-40.666c1.939-1.902 5.468-3.168 10.586-3.803 15.175-4.115 31.376-7.601 48.606-10.463 34.104-5.091 76.12-7.611 115.35-5.892 25.106 1.098 43.933 3.039 69.256 7.002 41.776 6.537 73.288 11.806 116.177 19.183 43.759 7.53 84.89 20.5 128.665 23.797 30.844 2.325 78.822 2.467 105.958-.922 41.375-5.166 63.954-12.173 107.851-16.97 40.217-4.395 89.063-6.772 135.18 2.543 50.055 10.113 99.105 21.146 149.488 30.632C-82.09-98.33 0-90.207 52.979-89.838l-.504 91.5" style="fill:#80d6f7;fill-opacity:1;fill-rule:nonzero;stroke:none" transform="translate(53.619 198.92)"/><path d="M0 0c-1.836-2.297-5.471-4.201-10.903-5.719-15.805-6.812-32.803-13.146-50.991-19.002-36.075-10.998-81.175-18.838-123.522-25.453-25.74-4.021-47.29-5.271-75.105-5.408-45.888-.225-91.604.355-137.524-.076-48.322-.453-97.753.467-145.363-3.455-33.549-2.76-64.355-9.387-93.592-16.11-46.739-10.748-86.711-25.162-133.283-35.861-43.19-9.926-83.361-16.27-134.295-14.338-55.283 2.094-109.551 5.557-165.158 6.703a2097.36 2097.36 0 0 1-39.388.453c-28.292.014-53.775-2.011-69.923-3.484-56.073-5.113-81.393-12.574-135.424-24.641-49.736-11.107-97.476-24.062-146.597-35.963-45.256-10.964-83.627-12.521-125.937-11.4-45.623 1.209-86.561 6.963-132.351 8.184-28.644.763-58.668 1.156-89.849-2.432-44.252-5.09-88.497-14.875-132.211-23.217-41.541-7.927-82.553-16.734-123.993-24.844-25.121-4.916-44.971-7.691-69.544-8.726-40.424-1.709-83.746-2.815-120.009.568-18.388 1.983-35.865 4.614-52.432 7.891-5.412.383-9.337 1.443-11.774 3.178" style="fill:none;stroke:#231f20;stroke-width:2.054;stroke-linecap:butt;stroke-linejoin:miter;stroke-miterlimit:4;stroke-dasharray:none;stroke-opacity:1" transform="translate(1213.87 318.313)"/><path d="M0 0c-1.708-2.313-5.233-4.248-10.578-5.813-15.419-6.947-32.055-13.425-49.91-19.437-35.448-11.305-80.095-19.527-122.06-26.502-25.507-4.24-46.981-5.672-74.782-6.045-45.863-.613-91.601-.42-137.485-1.24-48.285-.863-97.755-.361-145.133-4.684-33.384-3.047-63.811-9.933-92.662-16.906-46.122-11.144-85.275-25.896-131.233-36.994-42.621-10.291-82.425-16.979-133.454-15.479-55.388 1.627-109.837 4.633-165.495 5.309-13.901.17-27.839.211-41.834.096-13.694-.239-30.962-1.03-44.222-2.016-54.681-4.055-110.022-12.713-164.277-24.33-49.94-10.691-98-23.264-147.375-34.766-45.489-10.595-83.645-11.779-125.567-10.22-45.204 1.677-85.518 7.882-130.888 9.574-28.38 1.058-58.151 1.754-89.281-1.547-44.179-4.686-88.603-14.1-132.421-22.066-41.641-7.573-82.805-16.034-124.356-23.788-25.187-4.703-45.031-7.3-69.468-8.099-40.202-1.313-83.246-1.99-119.048 1.781-18.139 2.182-35.341 5.01-51.604 8.479-5.35.441-9.188 1.548-11.514 3.322" style="fill:none;stroke:#231f20;stroke-width:2.054;stroke-linecap:butt;stroke-linejoin:miter;stroke-miterlimit:4;stroke-dasharray:none;stroke-opacity:1" transform="translate(1209.512 309.654)"/><path d="M0 0c-1.551-2.328-4.946-4.301-10.184-5.918-14.943-7.105-31.137-13.756-48.58-19.945-34.672-11.67-78.749-20.344-120.227-27.746-25.213-4.5-46.582-6.151-74.348-6.805-45.806-1.078-91.54-1.352-137.353-2.637-48.209-1.355-97.696-1.355-144.765-6.16-33.167-3.387-63.118-10.582-91.49-17.848-45.353-11.617-83.495-26.769-128.689-38.332-41.911-10.726-81.25-17.818-132.362-16.836-55.479 1.065-109.754 5.497-165.438 5.497-16.904.001-33.47-.051-49.956-.368-19.175-.369-40.116-2.027-53.993-3.131-54.309-4.322-99.267-12.742-153.757-23.808-50.156-10.19-98.57-22.297-148.217-33.307-45.74-10.144-83.614-10.881-125.044-8.802-44.675 2.236-84.214 8.984-129.05 11.238-28.047 1.41-57.495 2.472-88.545-.485-44.064-4.197-88.674-13.158-132.591-20.671-41.735-7.141-83.054-15.18-124.712-22.506-25.251-4.442-45.076-6.823-69.335-7.334-39.909-.842-82.593-1.008-117.819 3.228-17.83 2.422-34.69 5.481-50.579 9.18-5.272.51-9.003 1.672-11.194 3.49" style="fill:none;stroke:#231f20;stroke-width:2.054;stroke-linecap:butt;stroke-linejoin:miter;stroke-miterlimit:4;stroke-dasharray:none;stroke-opacity:1" transform="translate(1208.205 298.065)"/><path d="M0 0c-13.731-.52-40.223-1.732-55.256-2.568-54.24-3.008-98.935-10.756-153.562-21.416-50.283-9.813-98.915-21.565-148.727-32.207-45.892-9.807-83.565-10.239-124.653-7.827-44.304 2.602-83.313 9.684-127.779 12.303-27.815 1.639-57.036 2.938-88.021.221-43.974-3.854-88.691-12.485-132.659-19.666-41.783-6.824-83.191-14.555-124.906-21.567-25.285-4.25-45.09-6.478-69.222-6.798-39.7-.524-82.13-.348-116.959 4.181-17.617 2.571-34.243 5.774-49.878 9.61-5.217.55-8.876 1.746-10.976 3.588" style="fill:none;stroke:#231f20;stroke-width:2.054;stroke-linecap:butt;stroke-linejoin:miter;stroke-miterlimit:4;stroke-dasharray:none;stroke-opacity:1" transform="translate(104.847 139.982)"/><path d="M0 0c-1.262-2.357-4.408-4.395-9.439-6.107-14.049-7.379-29.402-14.331-46.059-20.842-33.189-12.311-76.142-21.803-116.657-29.975-24.627-4.967-45.767-7.015-73.419-8.189-45.618-1.93-91.266-3.057-136.866-5.194-47.985-2.252-97.414-3.175-143.833-8.855-32.71-4.004-61.737-11.756-89.176-19.547-43.865-12.453-80.09-28.311-123.801-40.713-40.536-11.502-78.952-19.324-130.125-19.297-55.545.031-110.417 1.465-166.049.539-25.249-.422-50.543-1.074-75.693-1.72-30.1-.772-56.516-2.207-74.681-3.682-53.629-4.348-87.952-10.727-142.775-20.768-50.463-9.246-99.439-20.478-149.498-30.572-46.12-9.297-83.41-9.205-123.865-6.183-43.621 3.259-81.671 10.992-125.45 14.271-27.386 2.051-56.189 3.779-87.036 1.459-43.777-3.289-88.648-11.414-132.669-18.076-41.833-6.334-83.364-13.594-125.143-20.115-25.325-3.955-45.079-5.938-68.968-5.924-39.302.029-81.251.802-115.357 5.883-17.232 2.855-33.435 6.337-48.61 10.443-5.119.635-8.648 1.898-10.587 3.793" style="fill:none;stroke:#231f20;stroke-width:2.054;stroke-linecap:butt;stroke-linejoin:miter;stroke-miterlimit:4;stroke-dasharray:none;stroke-opacity:1" transform="translate(1215.926 277.016)"/><path d="M0 0c19.109.674 38.31 1.01 57.469 1.1 55.679.267 110.414-1.813 165.931-2.5 51.148-.637 90.161 6.713 131.584 17.705 44.665 11.853 82.121 27.242 126.945 39.146 28.04 7.447 57.662 14.834 90.672 18.442 46.845 5.113 96.324 5.451 144.464 7.128 45.748 1.596 91.463 2.174 137.212 3.561 27.732.842 49.024 2.637 74.03 7.299 41.139 7.674 84.819 16.633 118.961 28.519 17.161 6.299 33.053 13.049 47.675 20.243 5.164 1.652 8.47 3.644 9.916 5.978" style="fill:none;stroke:#231f20;stroke-width:2.197;stroke-linecap:butt;stroke-linejoin:miter;stroke-miterlimit:4;stroke-dasharray:none;stroke-opacity:1" transform="translate(104.95 140.488)"/></g></svg>