<svg width="1000" height="500" viewBox="0 0 264.583 132.292" xmlns:xlink="http://www.w3.org/1999/xlink" xmlns="http://www.w3.org/2000/svg"><defs><clipPath clipPathUnits="userSpaceOnUse" id="f"><path d="M0 0h1133.858v1814.173H0Z"/></clipPath><clipPath clipPathUnits="userSpaceOnUse" id="b"><path d="M245.139 1258.24h209v-209h-209z"/></clipPath><clipPath clipPathUnits="userSpaceOnUse" id="c"><path d="M244.059 1258.6h209.88v-210.24h-209.88z"/></clipPath><clipPath clipPathUnits="userSpaceOnUse" id="d"><path d="M244.059 1258.6h209.88v-210.24h-209.88z"/></clipPath><clipPath clipPathUnits="userSpaceOnUse" id="T"><path d="M0 0h1133.858v1814.173H0Z"/></clipPath><clipPath clipPathUnits="userSpaceOnUse" id="h"><path d="M0 0h1133.858v1814.173H0Z"/></clipPath><clipPath clipPathUnits="userSpaceOnUse" id="j"><path d="M0 0h1133.858v1814.173H0Z"/></clipPath><clipPath clipPathUnits="userSpaceOnUse" id="l"><path d="M0 0h1133.858v1814.173H0Z"/></clipPath><clipPath clipPathUnits="userSpaceOnUse" id="n"><path d="M0 0h1133.858v1814.173H0Z"/></clipPath><clipPath clipPathUnits="userSpaceOnUse" id="p"><path d="M0 0h1133.858v1814.173H0Z"/></clipPath><clipPath clipPathUnits="userSpaceOnUse" id="r"><path d="M0 0h1133.858v1814.173H0Z"/></clipPath><clipPath clipPathUnits="userSpaceOnUse" id="t"><path d="M0 0h1133.858v1814.173H0Z"/></clipPath><clipPath clipPathUnits="userSpaceOnUse" id="v"><path d="M0 0h1133.858v1814.173H0Z"/></clipPath><clipPath clipPathUnits="userSpaceOnUse" id="x"><path d="M0 0h1133.858v1814.173H0Z"/></clipPath><clipPath clipPathUnits="userSpaceOnUse" id="z"><path d="M0 0h1133.858v1814.173H0Z"/></clipPath><clipPath clipPathUnits="userSpaceOnUse" id="B"><path d="M0 0h1133.858v1814.173H0Z"/></clipPath><clipPath clipPathUnits="userSpaceOnUse" id="D"><path d="M0 0h1133.858v1814.173H0Z"/></clipPath><clipPath clipPathUnits="userSpaceOnUse" id="E"><path d="M0 0h1133.858v1814.173H0Z"/></clipPath><clipPath clipPathUnits="userSpaceOnUse" id="F"><path d="M0 0h1133.858v1814.173H0Z"/></clipPath><clipPath clipPathUnits="userSpaceOnUse" id="G"><path d="M0 0h1133.858v1814.173H0Z"/></clipPath><clipPath clipPathUnits="userSpaceOnUse" id="I"><path d="M0 0h1133.858v1814.173H0Z"/></clipPath><clipPath clipPathUnits="userSpaceOnUse" id="K"><path d="M0 0h1133.858v1814.173H0Z"/></clipPath><clipPath clipPathUnits="userSpaceOnUse" id="M"><path d="M0 0h1133.858v1814.173H0Z"/></clipPath><clipPath clipPathUnits="userSpaceOnUse" id="O"><path d="M0 0h1133.858v1814.173H0Z"/></clipPath><clipPath clipPathUnits="userSpaceOnUse" id="Q"><path d="M0 0h1133.858v1814.173H0Z"/></clipPath><clipPath clipPathUnits="userSpaceOnUse" id="S"><path d="M0 0h1133.858v1814.173H0Z"/></clipPath><radialGradient fx="0" fy="0" cx="0" cy="0" r="1" gradientUnits="userSpaceOnUse" gradientTransform="matrix(10.6703 0 0 -10.6703 541.628 1644.763)" spreadMethod="pad" id="g"><stop style="stop-opacity:1;stop-color:#fcd205" offset="0"/><stop style="stop-opacity:1;stop-color:#fcd205" offset=".002"/><stop style="stop-opacity:1;stop-color:#fcd205" offset=".004"/><stop style="stop-opacity:1;stop-color:#fcd205" offset=".468"/><stop style="stop-opacity:1;stop-color:#f47216" offset=".967"/><stop style="stop-opacity:1;stop-color:#f47216" offset=".969"/><stop style="stop-opacity:1;stop-color:#f47216" offset="1"/></radialGradient><radialGradient fx="0" fy="0" cx="0" cy="0" r="1" gradientUnits="userSpaceOnUse" gradientTransform="scale(-18.10992 18.10992) rotate(24.2 -225.431 -25.586)" spreadMethod="pad" id="i"><stop style="stop-opacity:1;stop-color:#fcd205" offset="0"/><stop style="stop-opacity:1;stop-color:#fcd205" offset=".001"/><stop style="stop-opacity:1;stop-color:#fcd205" offset=".004"/><stop style="stop-opacity:1;stop-color:#fcd205" offset=".151"/><stop style="stop-opacity:1;stop-color:#9d242a" offset=".982"/><stop style="stop-opacity:1;stop-color:#9d242a" offset=".983"/><stop style="stop-opacity:1;stop-color:#9d242a" offset="1"/></radialGradient><radialGradient fx="0" fy="0" cx="0" cy="0" r="1" gradientUnits="userSpaceOnUse" gradientTransform="scale(-37.85688 37.85688) rotate(71.5 -36.36 7.23)" spreadMethod="pad" id="k"><stop style="stop-opacity:1;stop-color:#fcd205" offset="0"/><stop style="stop-opacity:1;stop-color:#fcd205" offset=".002"/><stop style="stop-opacity:1;stop-color:#fcd205" offset=".004"/><stop style="stop-opacity:1;stop-color:#fcd205" offset=".468"/><stop style="stop-opacity:1;stop-color:#f47216" offset=".967"/><stop style="stop-opacity:1;stop-color:#f47216" offset=".969"/><stop style="stop-opacity:1;stop-color:#f47216" offset="1"/></radialGradient><radialGradient fx="0" fy="0" cx="0" cy="0" r="1" gradientUnits="userSpaceOnUse" gradientTransform="scale(-31.78367 31.78367) rotate(51.1 -59.275 1.387)" spreadMethod="pad" id="m"><stop style="stop-opacity:1;stop-color:#fcd205" offset="0"/><stop style="stop-opacity:1;stop-color:#fcd205" offset=".001"/><stop style="stop-opacity:1;stop-color:#fcd205" offset=".004"/><stop style="stop-opacity:1;stop-color:#fcd205" offset=".151"/><stop style="stop-opacity:1;stop-color:#9d242a" offset=".982"/><stop style="stop-opacity:1;stop-color:#9d242a" offset=".983"/><stop style="stop-opacity:1;stop-color:#9d242a" offset="1"/></radialGradient><radialGradient fx="0" fy="0" cx="0" cy="0" r="1" gradientUnits="userSpaceOnUse" gradientTransform="scale(-23.51284) rotate(8 421.894 -279.48)" spreadMethod="pad" id="o"><stop style="stop-opacity:1;stop-color:#fcd205" offset="0"/><stop style="stop-opacity:1;stop-color:#fcd205" offset=".002"/><stop style="stop-opacity:1;stop-color:#fcd205" offset=".004"/><stop style="stop-opacity:1;stop-color:#fcd205" offset=".468"/><stop style="stop-opacity:1;stop-color:#f47216" offset=".967"/><stop style="stop-opacity:1;stop-color:#f47216" offset=".969"/><stop style="stop-opacity:1;stop-color:#f47216" offset="1"/></radialGradient><radialGradient fx="0" fy="0" cx="0" cy="0" r="1" gradientUnits="userSpaceOnUse" gradientTransform="rotate(-172 463.9 691.019) scale(19.69714)" spreadMethod="pad" id="q"><stop style="stop-opacity:1;stop-color:#fcd205" offset="0"/><stop style="stop-opacity:1;stop-color:#fcd205" offset=".001"/><stop style="stop-opacity:1;stop-color:#fcd205" offset=".004"/><stop style="stop-opacity:1;stop-color:#fcd205" offset=".151"/><stop style="stop-opacity:1;stop-color:#9d242a" offset=".982"/><stop style="stop-opacity:1;stop-color:#9d242a" offset=".983"/><stop style="stop-opacity:1;stop-color:#9d242a" offset="1"/></radialGradient><radialGradient fx="0" fy="0" cx="0" cy="0" r="1" gradientUnits="userSpaceOnUse" gradientTransform="scale(-30.2855 30.2855) rotate(59.5 -51.956 6.66)" spreadMethod="pad" id="s"><stop style="stop-opacity:1;stop-color:#fcd205" offset="0"/><stop style="stop-opacity:1;stop-color:#fcd205" offset=".002"/><stop style="stop-opacity:1;stop-color:#fcd205" offset=".004"/><stop style="stop-opacity:1;stop-color:#fcd205" offset=".468"/><stop style="stop-opacity:1;stop-color:#f47216" offset=".967"/><stop style="stop-opacity:1;stop-color:#f47216" offset=".969"/><stop style="stop-opacity:1;stop-color:#f47216" offset="1"/></radialGradient><radialGradient fx="0" fy="0" cx="0" cy="0" r="1" gradientUnits="userSpaceOnUse" gradientTransform="scale(-25.42694 25.42694) rotate(39.1 -91.683 -4.364)" spreadMethod="pad" id="u"><stop style="stop-opacity:1;stop-color:#fcd205" offset="0"/><stop style="stop-opacity:1;stop-color:#fcd205" offset=".001"/><stop style="stop-opacity:1;stop-color:#fcd205" offset=".004"/><stop style="stop-opacity:1;stop-color:#fcd205" offset=".151"/><stop style="stop-opacity:1;stop-color:#9d242a" offset=".982"/><stop style="stop-opacity:1;stop-color:#9d242a" offset=".983"/><stop style="stop-opacity:1;stop-color:#9d242a" offset="1"/></radialGradient><radialGradient fx="0" fy="0" cx="0" cy="0" r="1" gradientUnits="userSpaceOnUse" gradientTransform="scale(-19.18543) rotate(-22 -224.187 80.405)" spreadMethod="pad" id="w"><stop style="stop-opacity:1;stop-color:#fcd205" offset="0"/><stop style="stop-opacity:1;stop-color:#fcd205" offset=".002"/><stop style="stop-opacity:1;stop-color:#fcd205" offset=".004"/><stop style="stop-opacity:1;stop-color:#fcd205" offset=".468"/><stop style="stop-opacity:1;stop-color:#f47216" offset=".967"/><stop style="stop-opacity:1;stop-color:#f47216" offset=".969"/><stop style="stop-opacity:1;stop-color:#f47216" offset="1"/></radialGradient><radialGradient fx="0" fy="0" cx="0" cy="0" r="1" gradientUnits="userSpaceOnUse" gradientTransform="scale(-16.0512) rotate(-22 -266.981 97.048)" spreadMethod="pad" id="y"><stop style="stop-opacity:1;stop-color:#fcd205" offset="0"/><stop style="stop-opacity:1;stop-color:#fcd205" offset=".001"/><stop style="stop-opacity:1;stop-color:#fcd205" offset=".004"/><stop style="stop-opacity:1;stop-color:#fcd205" offset=".151"/><stop style="stop-opacity:1;stop-color:#9d242a" offset=".982"/><stop style="stop-opacity:1;stop-color:#9d242a" offset=".983"/><stop style="stop-opacity:1;stop-color:#9d242a" offset="1"/></radialGradient><radialGradient fx="0" fy="0" cx="0" cy="0" r="1" gradientUnits="userSpaceOnUse" gradientTransform="scale(-19.18543) rotate(-31 -164.13 49.533)" spreadMethod="pad" id="A"><stop style="stop-opacity:1;stop-color:#fcd205" offset="0"/><stop style="stop-opacity:1;stop-color:#fcd205" offset=".002"/><stop style="stop-opacity:1;stop-color:#fcd205" offset=".004"/><stop style="stop-opacity:1;stop-color:#fcd205" offset=".468"/><stop style="stop-opacity:1;stop-color:#f47216" offset=".967"/><stop style="stop-opacity:1;stop-color:#f47216" offset=".969"/><stop style="stop-opacity:1;stop-color:#f47216" offset="1"/></radialGradient><radialGradient fx="0" fy="0" cx="0" cy="0" r="1" gradientUnits="userSpaceOnUse" gradientTransform="rotate(149 266.289 869.922) scale(16.05121)" spreadMethod="pad" id="C"><stop style="stop-opacity:1;stop-color:#fcd205" offset="0"/><stop style="stop-opacity:1;stop-color:#fcd205" offset=".001"/><stop style="stop-opacity:1;stop-color:#fcd205" offset=".004"/><stop style="stop-opacity:1;stop-color:#fcd205" offset=".151"/><stop style="stop-opacity:1;stop-color:#9d242a" offset=".982"/><stop style="stop-opacity:1;stop-color:#9d242a" offset=".983"/><stop style="stop-opacity:1;stop-color:#9d242a" offset="1"/></radialGradient><radialGradient fx="0" fy="0" cx="0" cy="0" r="1" gradientUnits="userSpaceOnUse" gradientTransform="scale(39.71731 -39.71731) rotate(11 226.66 82.058)" spreadMethod="pad" id="H"><stop style="stop-opacity:1;stop-color:#fcd205" offset="0"/><stop style="stop-opacity:1;stop-color:#fcd205" offset=".002"/><stop style="stop-opacity:1;stop-color:#fcd205" offset=".004"/><stop style="stop-opacity:1;stop-color:#fcd205" offset=".468"/><stop style="stop-opacity:1;stop-color:#f47216" offset=".967"/><stop style="stop-opacity:1;stop-color:#f47216" offset=".969"/><stop style="stop-opacity:1;stop-color:#f47216" offset="1"/></radialGradient><radialGradient fx="0" fy="0" cx="0" cy="0" r="1" gradientUnits="userSpaceOnUse" gradientTransform="scale(33.38974 -33.38974) rotate(11 268.287 95.285)" spreadMethod="pad" id="J"><stop style="stop-opacity:1;stop-color:#fcd205" offset="0"/><stop style="stop-opacity:1;stop-color:#fcd205" offset=".001"/><stop style="stop-opacity:1;stop-color:#fcd205" offset=".004"/><stop style="stop-opacity:1;stop-color:#fcd205" offset=".151"/><stop style="stop-opacity:1;stop-color:#9d242a" offset=".982"/><stop style="stop-opacity:1;stop-color:#9d242a" offset=".983"/><stop style="stop-opacity:1;stop-color:#9d242a" offset="1"/></radialGradient><radialGradient fx="0" fy="0" cx="0" cy="0" r="1" gradientUnits="userSpaceOnUse" gradientTransform="rotate(125 -319.246 760.99) scale(19.18544)" spreadMethod="pad" id="L"><stop style="stop-opacity:1;stop-color:#fcd205" offset="0"/><stop style="stop-opacity:1;stop-color:#fcd205" offset=".002"/><stop style="stop-opacity:1;stop-color:#fcd205" offset=".004"/><stop style="stop-opacity:1;stop-color:#fcd205" offset=".468"/><stop style="stop-opacity:1;stop-color:#f47216" offset=".967"/><stop style="stop-opacity:1;stop-color:#f47216" offset=".969"/><stop style="stop-opacity:1;stop-color:#f47216" offset="1"/></radialGradient><radialGradient fx="0" fy="0" cx="0" cy="0" r="1" gradientUnits="userSpaceOnUse" gradientTransform="rotate(125 -317.087 756.814) scale(16.0512)" spreadMethod="pad" id="N"><stop style="stop-opacity:1;stop-color:#fcd205" offset="0"/><stop style="stop-opacity:1;stop-color:#fcd205" offset=".001"/><stop style="stop-opacity:1;stop-color:#fcd205" offset=".004"/><stop style="stop-opacity:1;stop-color:#fcd205" offset=".151"/><stop style="stop-opacity:1;stop-color:#9d242a" offset=".982"/><stop style="stop-opacity:1;stop-color:#9d242a" offset=".983"/><stop style="stop-opacity:1;stop-color:#9d242a" offset="1"/></radialGradient><radialGradient fx="0" fy="0" cx="0" cy="0" r="1" gradientUnits="userSpaceOnUse" gradientTransform="scale(25.35859 -25.35859) rotate(-34 -88.13 -45.044)" spreadMethod="pad" id="P"><stop style="stop-opacity:1;stop-color:#fcd205" offset="0"/><stop style="stop-opacity:1;stop-color:#fcd205" offset=".002"/><stop style="stop-opacity:1;stop-color:#fcd205" offset=".004"/><stop style="stop-opacity:1;stop-color:#fcd205" offset=".468"/><stop style="stop-opacity:1;stop-color:#f47216" offset=".967"/><stop style="stop-opacity:1;stop-color:#f47216" offset=".969"/><stop style="stop-opacity:1;stop-color:#f47216" offset="1"/></radialGradient><radialGradient fx="0" fy="0" cx="0" cy="0" r="1" gradientUnits="userSpaceOnUse" gradientTransform="scale(21.29044 -21.29044) rotate(-34 -104.264 -53.103)" spreadMethod="pad" id="R"><stop style="stop-opacity:1;stop-color:#fcd205" offset="0"/><stop style="stop-opacity:1;stop-color:#fcd205" offset=".001"/><stop style="stop-opacity:1;stop-color:#fcd205" offset=".004"/><stop style="stop-opacity:1;stop-color:#fcd205" offset=".151"/><stop style="stop-opacity:1;stop-color:#9d242a" offset=".982"/><stop style="stop-opacity:1;stop-color:#9d242a" offset=".983"/><stop style="stop-opacity:1;stop-color:#9d242a" offset="1"/></radialGradient><linearGradient xlink:href="#a" id="e" gradientUnits="userSpaceOnUse" gradientTransform="scale(-129.16765) rotate(89.9 -.035 -1)" x1="0" y1="0" x2="1" y2="0" spreadMethod="pad"/><linearGradient x1="0" y1="0" x2="1" y2="0" gradientUnits="userSpaceOnUse" gradientTransform="scale(-553.54118 553.54118) rotate(89.9 -1.676 .64)" spreadMethod="pad" id="a"><stop style="stop-opacity:1;stop-color:#cceffc" offset="0"/><stop style="stop-opacity:1;stop-color:#99def9" offset="1"/><stop style="stop-opacity:1;stop-color:#99def9" offset="1"/><stop style="stop-opacity:1;stop-color:#99def9" offset="1"/></linearGradient></defs><g style="display:inline"><path style="fill:none;fill-rule:evenodd;stroke-width:.264583" d="M0 0h264.583v105.833H0z" transform="translate(0 26.458)"/><path style="fill:url(#e);stroke:none;stroke-width:.233347" d="M0-26.458V78.67l87.026-8.397 79.745-14.098 97.812-4.71v-77.923z" transform="translate(0 26.458)"/><g clip-path="url(#f)" transform="matrix(.23335 0 0 -.2333 0 449.715)"><path d="M0 0c11.693-.039 23.381-.189 35.038-.43C90.64-1.58 144.904-5.051 200.183-7.152c50.929-1.934 91.096 4.425 134.282 14.371 46.568 10.724 86.537 25.17 133.271 35.941 29.235 6.738 60.039 13.377 93.584 16.145 47.605 3.927 97.032 3.006 145.349 3.463 45.917.431 91.63-.151 137.513.076 27.813.136 48.951.789 74.689 4.82 42.343 6.631 87.546 13.695 123.619 24.719 18.186 5.867 34.652 11.25 50.456 18.078 5.431 1.519 9.897 5.785 11.734 8.086l1.637-36.494c-1.261-2.362-31.201-18.088-36.232-19.805-14.048-7.394-34.15-13.883-50.806-20.41-37.337-12.176-71.386-22.318-111.898-30.506-24.625-4.978-45.764-7.031-73.415-8.205-45.615-1.936-91.259-3.061-136.857-5.205-47.981-2.256-97.406-3.182-143.823-8.873-32.707-4.01-62.192-10.91-88.526-20.539-44.149-16.141-80.226-28.5-124.436-39.838-41.039-10.526-78.947-19.361-130.117-19.332-55.541.031-110.409 1.465-166.037.537-14.66-.244-29.334-.633-43.957-1.207" style="fill:#80d6f7;fill-opacity:1;fill-rule:nonzero;stroke:none" transform="translate(88.022 1541.848)"/><path d="M0 0c-54.241-2.953-99.971-14.592-156.416-27.486-49.643-11.34-98.216-24.227-147.334-36.157-45.25-10.992-84.844-11.455-127.15-10.33-45.619 1.213-87.42 6.524-133.206 7.748-28.641.768-57.121 1.012-88.299-2.582-44.247-5.103-88.992-15.621-132.701-23.982-41.538-7.947-82.182-16.592-123.62-24.719-25.116-4.926-45.565-7.445-70.134-8.484-40.421-1.713-82.644-1.244-118.905 2.142-18.386 1.989-35.861 4.623-52.426 7.911-5.413.382-9.337 1.447-11.774 3.185l39.716-40.666c1.939-1.902 5.468-3.168 10.586-3.803 15.175-4.115 31.376-7.601 48.606-10.463 34.104-5.091 76.12-7.611 115.35-5.892 25.106 1.098 43.933 3.039 69.256 7.002 41.776 6.537 73.288 11.806 116.177 19.183 43.759 7.53 84.89 20.5 128.665 23.797 30.844 2.325 78.822 2.467 105.958-.922 41.375-5.166 63.954-12.173 107.851-16.97 40.217-4.395 89.063-6.772 135.18 2.543 50.055 10.113 99.105 21.146 149.488 30.632C-82.09-98.33 0-90.207 52.979-89.838l-.504 91.5" style="fill:#80d6f7;fill-opacity:1;fill-rule:nonzero;stroke:none" transform="translate(36.61 1540.334)"/><path d="M0 0c-1.836-2.297-5.471-4.201-10.903-5.719-15.805-6.812-32.803-13.146-50.991-19.002-36.075-10.998-81.175-18.838-123.522-25.453-25.74-4.021-47.29-5.271-75.105-5.408-45.888-.225-91.604.355-137.524-.076-48.322-.453-97.753.467-145.363-3.455-33.549-2.76-64.355-9.387-93.592-16.11-46.739-10.748-86.711-25.162-133.283-35.861-43.19-9.926-83.361-16.27-134.295-14.338-55.283 2.094-109.551 5.557-165.158 6.703a2097.36 2097.36 0 0 1-39.388.453c-28.292.014-53.775-2.011-69.923-3.484-56.073-5.113-81.393-12.574-135.424-24.641-49.736-11.107-97.476-24.062-146.597-35.963-45.256-10.964-83.627-12.521-125.937-11.4-45.623 1.209-86.561 6.963-132.351 8.184-28.644.763-58.668 1.156-89.849-2.432-44.252-5.09-88.497-14.875-132.211-23.217-41.541-7.927-82.553-16.734-123.993-24.844-25.121-4.916-44.971-7.691-69.544-8.726-40.424-1.709-83.746-2.815-120.009.568-18.388 1.983-35.865 4.614-52.432 7.891-5.412.383-9.337 1.443-11.774 3.178" style="fill:none;stroke:#231f20;stroke-width:2.054;stroke-linecap:butt;stroke-linejoin:miter;stroke-miterlimit:4;stroke-dasharray:none;stroke-opacity:1" transform="translate(1196.862 1659.727)"/><path d="M0 0c-1.708-2.313-5.233-4.248-10.578-5.813-15.419-6.947-32.055-13.425-49.91-19.437-35.448-11.305-80.095-19.527-122.06-26.502-25.507-4.24-46.981-5.672-74.782-6.045-45.863-.613-91.601-.42-137.485-1.24-48.285-.863-97.755-.361-145.133-4.684-33.384-3.047-63.811-9.933-92.662-16.906-46.122-11.144-85.275-25.896-131.233-36.994-42.621-10.291-82.425-16.979-133.454-15.479-55.388 1.627-109.837 4.633-165.495 5.309-13.901.17-27.839.211-41.834.096-13.694-.239-30.962-1.03-44.222-2.016-54.681-4.055-110.022-12.713-164.277-24.33-49.94-10.691-98-23.264-147.375-34.766-45.489-10.595-83.645-11.779-125.567-10.22-45.204 1.677-85.518 7.882-130.888 9.574-28.38 1.058-58.151 1.754-89.281-1.547-44.179-4.686-88.603-14.1-132.421-22.066-41.641-7.573-82.805-16.034-124.356-23.788-25.187-4.703-45.031-7.3-69.468-8.099-40.202-1.313-83.246-1.99-119.048 1.781-18.139 2.182-35.341 5.01-51.604 8.479-5.35.441-9.188 1.548-11.514 3.322" style="fill:none;stroke:#231f20;stroke-width:2.054;stroke-linecap:butt;stroke-linejoin:miter;stroke-miterlimit:4;stroke-dasharray:none;stroke-opacity:1" transform="translate(1192.504 1651.068)"/><path d="M0 0c-1.551-2.328-4.946-4.301-10.184-5.918-14.943-7.105-31.137-13.756-48.58-19.945-34.672-11.67-78.749-20.344-120.227-27.746-25.213-4.5-46.582-6.151-74.348-6.805-45.806-1.078-91.54-1.352-137.353-2.637-48.209-1.355-97.696-1.355-144.765-6.16-33.167-3.387-63.118-10.582-91.49-17.848-45.353-11.617-83.495-26.769-128.689-38.332-41.911-10.726-81.25-17.818-132.362-16.836-55.479 1.065-109.754 5.497-165.438 5.497-16.904.001-33.47-.051-49.956-.368-19.175-.369-40.116-2.027-53.993-3.131-54.309-4.322-99.267-12.742-153.757-23.808-50.156-10.19-98.57-22.297-148.217-33.307-45.74-10.144-83.614-10.881-125.044-8.802-44.675 2.236-84.214 8.984-129.05 11.238-28.047 1.41-57.495 2.472-88.545-.485-44.064-4.197-88.674-13.158-132.591-20.671-41.735-7.141-83.054-15.18-124.712-22.506-25.251-4.442-45.076-6.823-69.335-7.334-39.909-.842-82.593-1.008-117.819 3.228-17.83 2.422-34.69 5.481-50.579 9.18-5.272.51-9.003 1.672-11.194 3.49" style="fill:none;stroke:#231f20;stroke-width:2.054;stroke-linecap:butt;stroke-linejoin:miter;stroke-miterlimit:4;stroke-dasharray:none;stroke-opacity:1" transform="translate(1191.197 1639.478)"/><path d="M0 0c-13.731-.52-40.223-1.732-55.256-2.568-54.24-3.008-98.935-10.756-153.562-21.416-50.283-9.813-98.915-21.565-148.727-32.207-45.892-9.807-83.565-10.239-124.653-7.827-44.304 2.602-83.313 9.684-127.779 12.303-27.815 1.639-57.036 2.938-88.021.221-43.974-3.854-88.691-12.485-132.659-19.666-41.783-6.824-83.191-14.555-124.906-21.567-25.285-4.25-45.09-6.478-69.222-6.798-39.7-.524-82.13-.348-116.959 4.181-17.617 2.571-34.243 5.774-49.878 9.61-5.217.55-8.876 1.746-10.976 3.588" style="fill:none;stroke:#231f20;stroke-width:2.054;stroke-linecap:butt;stroke-linejoin:miter;stroke-miterlimit:4;stroke-dasharray:none;stroke-opacity:1" transform="translate(87.839 1481.397)"/><path d="M0 0c-1.262-2.357-4.408-4.395-9.439-6.107-14.049-7.379-29.402-14.331-46.059-20.842-33.189-12.311-76.142-21.803-116.657-29.975-24.627-4.967-45.767-7.015-73.419-8.189-45.618-1.93-91.266-3.057-136.866-5.194-47.985-2.252-97.414-3.175-143.833-8.855-32.71-4.004-61.737-11.756-89.176-19.547-43.865-12.453-80.09-28.311-123.801-40.713-40.536-11.502-78.952-19.324-130.125-19.297-55.545.031-110.417 1.465-166.049.539-25.249-.422-50.543-1.074-75.693-1.72-30.1-.772-56.516-2.207-74.681-3.682-53.629-4.348-87.952-10.727-142.775-20.768-50.463-9.246-99.439-20.478-149.498-30.572-46.12-9.297-83.41-9.205-123.865-6.183-43.621 3.259-81.671 10.992-125.45 14.271-27.386 2.051-56.189 3.779-87.036 1.459-43.777-3.289-88.648-11.414-132.669-18.076-41.833-6.334-83.364-13.594-125.143-20.115-25.325-3.955-45.079-5.938-68.968-5.924-39.302.029-81.251.802-115.357 5.883-17.232 2.855-33.435 6.337-48.61 10.443-5.119.635-8.648 1.898-10.587 3.793" style="fill:none;stroke:#231f20;stroke-width:2.054;stroke-linecap:butt;stroke-linejoin:miter;stroke-miterlimit:4;stroke-dasharray:none;stroke-opacity:1" transform="translate(1198.918 1618.43)"/><path d="M0 0c19.109.674 38.31 1.01 57.469 1.1 55.679.267 110.414-1.813 165.931-2.5 51.148-.637 90.161 6.713 131.584 17.705 44.665 11.853 82.121 27.242 126.945 39.146 28.04 7.447 57.662 14.834 90.672 18.442 46.845 5.113 96.324 5.451 144.464 7.128 45.748 1.596 91.463 2.174 137.212 3.561 27.732.842 49.024 2.637 74.03 7.299 41.139 7.674 84.819 16.633 118.961 28.519 17.161 6.299 33.053 13.049 47.675 20.243 5.164 1.652 8.47 3.644 9.916 5.978" style="fill:none;stroke:#231f20;stroke-width:2.197;stroke-linecap:butt;stroke-linejoin:miter;stroke-miterlimit:4;stroke-dasharray:none;stroke-opacity:1" transform="translate(87.942 1481.902)"/></g><path d="M542.291 1653.738c-1.251-.48-1.937-.372-3.19-.855-2.299-.881-1.904-4.2-2.274-6.611-.527-3.211-2.535-5.272-5.099-7.274 6.668-2.967 12.493-1.546 19.9-3.452-.066.032-.1.074.008.116-1.213 1.477-1.833 1.889-2.515 3.663-1.377 3.592 2.254 6.19.874 9.778-1.005 2.623-3.497 4.931-6.119 4.931a4.383 4.383 0 0 1-1.585-.296m9.449-18.221-.112.029c.105-.051.292-.076.112-.029" style="fill:url(#g);stroke:none" transform="matrix(.23335 0 0 -.2333 0 449.715)"/><g clip-path="url(#h)" transform="matrix(.23335 0 0 -.2333 0 449.715)"><path d="M0 0c-2.299-.882-1.904-4.201-2.275-6.612-.526-3.211-2.534-5.272-5.098-7.273 6.701-2.983 12.551-1.532 20.013-3.482.292-.077-.386.038-.105.145-1.213 1.477-1.833 1.889-2.515 3.663-1.378 3.592 2.254 6.19.875 9.779C9.687-.631 6.337 2.065 3.191.854 1.94.374 1.253.482 0 0Z" style="fill:none;stroke:#9d242a;stroke-width:.875;stroke-linecap:butt;stroke-linejoin:miter;stroke-miterlimit:3.864;stroke-dasharray:none;stroke-opacity:1" transform="translate(539.101 1652.884)"/><path d="M0 0c.361 1.711.965 2.343 2.4 3.31l.707.087c.202-.524.309-.808.511-1.331.309-.806-.14-1.444-.239-2.268" style="fill:none;stroke:#9d242a;stroke-width:.875;stroke-linecap:butt;stroke-linejoin:miter;stroke-miterlimit:3.864;stroke-dasharray:none;stroke-opacity:1" transform="translate(542.683 1653.802)"/></g><path d="M530.523 1637.863c-.215-1.755 4.396-3.764 10.302-4.491 5.905-.728 10.868.106 11.083 1.861.215 1.754-4.397 3.767-10.301 4.495a34.049 34.049 0 0 1-4.109.261c-3.94 0-6.812-.8-6.975-2.126" style="fill:url(#i);stroke:none" transform="matrix(.23335 0 0 -.2333 0 449.715)"/><g clip-path="url(#j)" transform="matrix(.23335 0 0 -.2333 0 449.715)"><path d="M0 0c.215 1.755 5.178 2.589 11.083 1.865C16.988 1.136 21.6-.877 21.385-2.63c-.216-1.755-5.179-2.589-11.083-1.861C4.396-3.765-.215-1.755 0 0Z" style="fill:none;stroke:#9d242a;stroke-width:.875;stroke-linecap:butt;stroke-linejoin:miter;stroke-miterlimit:3.864;stroke-dasharray:none;stroke-opacity:1" transform="translate(530.523 1637.863)"/><path d="M0 0c-1.518-3.404-2.263-7.593-5.407-9.772" style="fill:none;stroke:#9d242a;stroke-width:.875;stroke-linecap:butt;stroke-linejoin:miter;stroke-miterlimit:3.864;stroke-dasharray:none;stroke-opacity:1" transform="translate(542.582 1639.696)"/><path d="M0 0a1.566 1.566 0 1 1-2.926-1.123 1.565 1.565 0 0 1 2.025-.902A1.565 1.565 0 0 1 0 0" style="fill:#fcd205;fill-opacity:1;fill-rule:nonzero;stroke:none" transform="translate(538.416 1630.115)"/><path d="M0 0a1.566 1.566 0 1 1-2.926-1.123 1.565 1.565 0 0 1 2.025-.902A1.565 1.565 0 0 1 0 0Z" style="fill:none;stroke:#9d242a;stroke-width:.875;stroke-linecap:butt;stroke-linejoin:miter;stroke-miterlimit:3.864;stroke-dasharray:none;stroke-opacity:1" transform="translate(538.416 1630.115)"/><path d="M0 0c5.426 1.666 8.96 1.596 14.892-1.313" style="fill:none;stroke:#9d242a;stroke-width:.875;stroke-linecap:butt;stroke-linejoin:miter;stroke-miterlimit:3.864;stroke-dasharray:none;stroke-opacity:1" transform="translate(533.993 1641.11)"/></g><path d="M671.763 1526.499c-5.646 0-7.528-7.429-10.302-12.282-3.763-6.439-10.901-9.276-18.032-11.455 11.827-11.827 26.601-13.489 40.897-23.655-.114.123-.152.243.116.243-1.387 4.16-2.379 5.547-2.379 9.906 0 8.815 9.906 11.39 9.906 20.206 0 7.726-5.256 14.101-12.679 16.244-2.473.714-3.75.802-5.544.802-.586 0-1.227-.01-1.983-.01m12.777-47.544a28.17 28.17 0 0 1-.214.152c.183-.196.56-.401.214-.152" style="fill:url(#k);stroke:none" transform="matrix(.23335 0 0 -.2333 0 449.715)"/><g clip-path="url(#l)" transform="matrix(.23335 0 0 -.2333 0 449.715)"><path d="M0 0c-5.646 0-7.528-7.429-10.301-12.282-3.764-6.439-10.901-9.276-18.033-11.455 11.886-11.886 26.749-13.506 41.111-23.807.564-.405-.792.395-.098.395-1.387 4.16-2.378 5.547-2.378 9.906 0 8.815 9.905 11.39 9.905 20.206 0 7.726-5.256 14.101-12.678 16.244C4.246.155 3.071 0 0 0Z" style="fill:none;stroke:#9d242a;stroke-width:1;stroke-linecap:butt;stroke-linejoin:miter;stroke-miterlimit:3.864;stroke-dasharray:none;stroke-opacity:1" transform="translate(671.763 1526.499)"/><path d="M0 0c-6.438 2.08-15.471 2.376-15.471 9.112 0 2.674 3.268 3.565 5.943 3.565 5.646 0 8.221-4.952 10.301-10.301L1.169.791c2.377 3.963.198 10.698 4.755 10.698 3.07 0 4.358-3.665 4.358-6.735 0-4.953-6.933-3.566-11.49-5.547-6.141-2.675-6.636-8.32-11.49-12.679m27.338 2.377C7.904-10.599 7.508-1.189.773-1.189c-10.797-21.594-12.587-35.566-29.595-70.405" style="fill:none;stroke:#087039;stroke-width:1;stroke-linecap:round;stroke-linejoin:miter;stroke-miterlimit:3.864;stroke-dasharray:none;stroke-opacity:1" transform="translate(718.534 1602.571)"/><path d="M0 0c2.179 3.366 4.457 5.051 8.32 5.943l1.585-.396V2.278c0-1.981-2.63-4.059-3.522-5.742" style="fill:none;stroke:#9d242a;stroke-width:1;stroke-linecap:butt;stroke-linejoin:miter;stroke-miterlimit:3.864;stroke-dasharray:none;stroke-opacity:1" transform="translate(679.927 1525.343)"/></g><path d="M641.404 1501.307c-1.904-3.579 6.314-11.67 18.353-18.072 12.037-6.401 23.339-8.69 25.243-5.111 1.902 3.579-6.315 11.67-18.354 18.072-8.183 4.351-16.024 6.802-20.806 6.801-2.253 0-3.827-.544-4.436-1.69" style="fill:url(#m);stroke:none" transform="matrix(.23335 0 0 -.2333 0 449.715)"/><g clip-path="url(#n)" transform="matrix(.23335 0 0 -.2333 0 449.715)"><path d="M0 0c1.903 3.578 13.204 1.29 25.243-5.111 12.039-6.402 20.256-14.493 18.353-18.072-1.903-3.579-13.205-1.29-25.243 5.111C6.314-11.67-1.903-3.579 0 0Z" style="fill:none;stroke:#9d242a;stroke-width:1;stroke-linecap:butt;stroke-linejoin:miter;stroke-miterlimit:3.864;stroke-dasharray:none;stroke-opacity:1" transform="translate(641.404 1501.307)"/><path d="M0 0c-6.042-6.043-11.688-13.768-20.206-15.848" style="fill:none;stroke:#9d242a;stroke-width:1;stroke-linecap:butt;stroke-linejoin:miter;stroke-miterlimit:3.864;stroke-dasharray:none;stroke-opacity:1" transform="translate(668.989 1494.803)"/><path d="M0 0a3.592 3.592 0 1 0 7.184 0A3.592 3.592 0 0 0 0 0" style="fill:#fcd205;fill-opacity:1;fill-rule:nonzero;stroke:none" transform="translate(645.957 1479.377)"/><path d="M0 0a3.592 3.592 0 1 0 7.184 0A3.592 3.592 0 0 0 0 0Z" style="fill:none;stroke:#9d242a;stroke-width:1;stroke-linecap:butt;stroke-linejoin:miter;stroke-miterlimit:3.864;stroke-dasharray:none;stroke-opacity:1" transform="translate(645.957 1479.377)"/><path d="M0 0c12.975-.891 20.377-3.876 30.678-14.97" style="fill:none;stroke:#9d242a;stroke-width:1;stroke-linecap:butt;stroke-linejoin:miter;stroke-miterlimit:3.864;stroke-dasharray:none;stroke-opacity:1" transform="translate(651.16 1505.5)"/><path d="M0 0c3.744 1.819 9.223 2.772 8.646 6.876-.229 1.63-2.297 1.892-3.927 1.663C1.28 8.056.135 4.819-.674 1.381L-.78.382c-1.787 2.211-1.037 6.501-3.813 6.11-1.871-.262-2.341-2.606-2.078-4.476C-6.247-1.002-2.142.437.804-.38 4.774-1.484 5.56-4.881 8.89-7.121m-16.86-.892c4.062.879 3.498 6.646 7.601 7.222 9.564-13.881 51.235-72.312 53.344-75.246" style="fill:none;stroke:#087039;stroke-width:1;stroke-linecap:round;stroke-linejoin:miter;stroke-miterlimit:3.864;stroke-dasharray:none;stroke-opacity:1" transform="translate(756.816 1543.566)"/></g><path d="M820.215 1466.231c-1.871-.262-2.6-.269-4.518-1.127-4.339-1.942-6.996-6.275-6.334-10.983.755-5.371 7.011-6.092 7.765-11.462.373-2.656-.112-3.586-.6-6.239.163.023.15-.053.091-.138 7.839 7.417 16.698 9.695 22.891 17.914-4.531.716-9.122 1.834-11.967 5.434-1.997 2.579-3.703 6.639-6.808 6.638-.169 0-.343-.012-.52-.037m-3.713-30.06c-.179-.171-.003-.043.098.085.006.01.013.017.019.026l-.117-.111" style="fill:url(#o);stroke:none" transform="matrix(.23335 0 0 -.2333 0 449.715)"/><g clip-path="url(#p)" transform="matrix(.23335 0 0 -.2333 0 449.715)"><path d="M0 0c3.44.483 5.222-3.881 7.328-6.601 2.844-3.6 7.436-4.718 11.967-5.435-6.224-8.259-15.14-10.519-23.009-18.025-.308-.295.449.309.026.249.489 2.654.974 3.584.601 6.239-.755 5.371-7.01 6.092-7.765 11.463-.662 4.707 1.995 9.041 6.333 10.982C-2.6-.269-1.871-.263 0 0Z" style="fill:none;stroke:#9d242a;stroke-width:1;stroke-linecap:butt;stroke-linejoin:miter;stroke-miterlimit:3.864;stroke-dasharray:none;stroke-opacity:1" transform="translate(820.215 1466.231)"/><path d="M0 0c-1.616 1.865-3.148 2.696-5.578 2.908l-.932-.377.28-1.991c.17-1.207 1.507-2.017 2.195-2.966" style="fill:none;stroke:#9d242a;stroke-width:1;stroke-linecap:butt;stroke-linejoin:miter;stroke-miterlimit:3.864;stroke-dasharray:none;stroke-opacity:1" transform="translate(816.005 1465.16)"/></g><path d="M825.927 1448.207c-6.787-4.931-11.1-10.565-9.634-12.582 1.465-2.018 8.156.345 14.942 5.275 6.786 4.931 11.1 10.564 9.634 12.582-.355.489-1.018.721-1.914.721-2.801 0-7.886-2.261-13.028-5.996" style="fill:url(#q);stroke:none" transform="matrix(.23335 0 0 -.2333 0 449.715)"/><g clip-path="url(#r)" transform="matrix(.23335 0 0 -.2333 0 449.715)"><path d="M0 0c-1.466 2.017-8.155-.345-14.942-5.275-6.787-4.932-11.1-10.565-9.634-12.583 1.466-2.017 8.156.345 14.942 5.276S1.466-2.018 0 0Z" style="fill:none;stroke:#9d242a;stroke-width:1;stroke-linecap:butt;stroke-linejoin:miter;stroke-miterlimit:3.864;stroke-dasharray:none;stroke-opacity:1" transform="translate(840.869 1453.482)"/><path d="M0 0c4.199-3.164 8.3-7.388 13.668-7.926" style="fill:none;stroke:#9d242a;stroke-width:1;stroke-linecap:butt;stroke-linejoin:miter;stroke-miterlimit:3.864;stroke-dasharray:none;stroke-opacity:1" transform="translate(824.62 1447.158)"/><path d="M0 0a2.21 2.21 0 1 1-4.378-.615A2.211 2.211 0 0 1 0 0" style="fill:#fcd205;fill-opacity:1;fill-rule:nonzero;stroke:none" transform="translate(839.973 1439.731)"/><path d="M0 0a2.21 2.21 0 1 1-4.378-.615A2.211 2.211 0 0 1 0 0Z" style="fill:none;stroke:#9d242a;stroke-width:1;stroke-linecap:butt;stroke-linejoin:miter;stroke-miterlimit:3.864;stroke-dasharray:none;stroke-opacity:1" transform="translate(839.973 1439.731)"/><path d="M0 0c-7.829-1.654-12.083-4.107-17.409-11.748" style="fill:none;stroke:#9d242a;stroke-width:1;stroke-linecap:butt;stroke-linejoin:miter;stroke-miterlimit:3.864;stroke-dasharray:none;stroke-opacity:1" transform="translate(834.565 1455.202)"/></g><path d="M588.809 1480.6c-4.418-.939-4.655-7.065-6.019-11.324-1.873-5.665-6.986-9.072-12.205-11.964 11.222-7.287 23.06-6.13 35.937-11.707-.11.078-.159.165.051.209-1.778 3.025-2.784 3.946-3.509 7.357-1.466 6.897 5.856 10.56 4.39 17.459-1.285 6.045-6.458 10.16-12.622 10.602-.557.04-1.037.058-1.47.058-1.684 0-2.641-.283-4.553-.69m17.906-35.079a8.054 8.054 0 0 1-.193.084c.176-.122.505-.221.193-.084" style="fill:url(#s);stroke:none" transform="matrix(.23335 0 0 -.2333 0 449.715)"/><g clip-path="url(#t)" transform="matrix(.23335 0 0 -.2333 0 449.715)"><path d="M0 0c-4.418-.939-4.655-7.065-6.018-11.324-1.874-5.665-6.987-9.072-12.206-11.963 11.278-7.324 23.178-6.12 36.13-11.792.509-.223-.685.178-.142.293-1.777 3.025-2.784 3.945-3.509 7.356-1.466 6.898 5.857 10.561 4.39 17.459C17.36-3.925 12.187.189 6.023.632 3.297.828 2.403.511 0 0Z" style="fill:none;stroke:#9d242a;stroke-width:.8;stroke-linecap:butt;stroke-linejoin:miter;stroke-miterlimit:3.864;stroke-dasharray:none;stroke-opacity:1" transform="translate(588.809 1480.6)"/><path d="M0 0c-5.384.557-12.502-.714-13.622 4.557-.445 2.093 1.964 3.333 4.058 3.778 4.418.939 7.256-2.507 9.774-6.347L.783.813C1.984 4.31-.841 9.218 2.725 9.975c2.402.511 4.019-2.143 4.53-4.545.824-3.876-4.832-3.943-8.068-6.251-4.361-3.115-3.809-7.615-6.883-11.833m20.998 6.407C7.948-6.979 6.073.318.803-.802c-4.857-18.693-3.934-29.925-11.449-60.016" style="fill:none;stroke:#087039;stroke-width:.8;stroke-linecap:round;stroke-linejoin:miter;stroke-miterlimit:3.864;stroke-dasharray:none;stroke-opacity:1" transform="translate(612.755 1547.907)"/><path d="M0 0c1.145 2.997 2.648 4.694 5.522 6.034l1.306-.046.544-2.558c.33-1.55-1.383-3.614-1.801-5.079" style="fill:none;stroke:#9d242a;stroke-width:.8;stroke-linecap:butt;stroke-linejoin:miter;stroke-miterlimit:3.864;stroke-dasharray:none;stroke-opacity:1" transform="translate(595.39 1481.053)"/></g><path d="M569.243 1455.837c-.895-3.117 6.881-8.082 17.367-11.089 10.484-3.007 19.709-2.917 20.603.199.894 3.118-6.882 8.082-17.367 11.089-5.12 1.468-9.938 2.198-13.634 2.198-3.872 0-6.512-.802-6.969-2.397" style="fill:url(#u);stroke:none" transform="matrix(.23335 0 0 -.2333 0 449.715)"/><g clip-path="url(#v)" transform="matrix(.23335 0 0 -.2333 0 449.715)"><path d="M0 0c.894 3.116 10.118 3.206 20.603.199C31.089-2.808 38.865-7.773 37.97-10.89c-.893-3.117-10.118-3.205-20.603-.199C6.882-8.082-.894-3.117 0 0Z" style="fill:none;stroke:#9d242a;stroke-width:.8;stroke-linecap:butt;stroke-linejoin:miter;stroke-miterlimit:3.864;stroke-dasharray:none;stroke-opacity:1" transform="translate(569.243 1455.837)"/><path d="M0 0c-3.723-5.734-6.856-12.718-13.176-15.762" style="fill:none;stroke:#9d242a;stroke-width:.8;stroke-linecap:butt;stroke-linejoin:miter;stroke-miterlimit:3.864;stroke-dasharray:none;stroke-opacity:1" transform="translate(591.91 1455.336)"/><path d="M0 0a2.873 2.873 0 1 0 5.621 1.194A2.873 2.873 0 0 0 0 0" style="fill:#fcd205;fill-opacity:1;fill-rule:nonzero;stroke:none" transform="translate(576.453 1439.434)"/><path d="M0 0a2.873 2.873 0 1 0 5.621 1.194A2.873 2.873 0 0 0 0 0Z" style="fill:none;stroke:#9d242a;stroke-width:.8;stroke-linecap:butt;stroke-linejoin:miter;stroke-miterlimit:3.864;stroke-dasharray:none;stroke-opacity:1" transform="translate(576.453 1439.434)"/><path d="M0 0c10.301 1.461 16.59.356 26.496-6.612" style="fill:none;stroke:#9d242a;stroke-width:.8;stroke-linecap:butt;stroke-linejoin:miter;stroke-miterlimit:3.864;stroke-dasharray:none;stroke-opacity:1" transform="translate(576.18 1460.742)"/><path d="M0 0c3.375-.24 7.618-1.794 8.881 1.331.501 1.241-.847 2.266-2.087 2.767C4.177 5.155 2.055 3.34.087 1.247L-.394.586C-.752 2.87 1.521 5.587-.592 6.44c-1.423.575-2.707-.885-3.283-2.309C-4.804 1.833-1.33 1.178.411-.594 2.756-2.985 1.927-5.697 3.36-8.628M-8.868-2.407c3.216-1.031 5.165 3.261 8.287 2 1.084-13.665 6.644-71.756 6.935-74.68" style="fill:none;stroke:#087039;stroke-width:1;stroke-linecap:round;stroke-linejoin:miter;stroke-miterlimit:3.864;stroke-dasharray:none;stroke-opacity:1" transform="translate(888.241 1593.718)"/></g><path d="M888.929 1509.148c-1.646-4.071 2.435-7.1.788-11.17-.814-2.012-1.529-2.469-2.945-4.131.124-.05.083-.099.006-.134 8.483 2.037 15.598.058 23.253 3.32-2.877 2.332-5.634 4.968-6.165 8.64-.37 2.756.15 6.536-2.45 7.585-1.414.571-1.926.861-3.615 1.033-.321.032-.64.048-.956.048-3.453 0-6.594-1.924-7.916-5.191m-2.276-15.466c-.205-.05.005-.026.125.031l-.125-.031" style="fill:url(#w);stroke:none" transform="matrix(.23335 0 0 -.2333 0 449.715)"/><g clip-path="url(#x)" transform="matrix(.23335 0 0 -.2333 0 449.715)"><path d="M0 0c2.6-1.049 2.079-4.829 2.45-7.585.531-3.672 3.288-6.308 6.166-8.639-7.694-3.279-14.841-1.265-23.379-3.351-.335-.082.439.035.119.164 1.416 1.663 2.131 2.119 2.945 4.131 1.647 4.07-2.434 7.1-.788 11.17 1.443 3.567 5.054 5.533 8.872 5.143C-1.926.861-1.414.571 0 0Z" style="fill:none;stroke:#9d242a;stroke-width:1;stroke-linecap:butt;stroke-linejoin:miter;stroke-miterlimit:3.864;stroke-dasharray:none;stroke-opacity:1" transform="translate(901.416 1513.258)"/><path d="M0 0c-.37 1.91-1.09 3.082-2.668 4.186l-.785.11-.593-1.469c-.36-.89.235-1.971.332-2.89" style="fill:none;stroke:#9d242a;stroke-width:1;stroke-linecap:butt;stroke-linejoin:miter;stroke-miterlimit:3.864;stroke-dasharray:none;stroke-opacity:1" transform="translate(897.985 1514.32)"/></g><path d="M898.146 1498.236c-6.738-.699-12.028-2.888-11.815-4.889.213-2 5.848-3.055 12.585-2.356 6.739.7 12.028 2.888 11.815 4.89-.168 1.581-3.725 2.571-8.536 2.571-1.275 0-2.638-.069-4.049-.216" style="fill:url(#y);stroke:none" transform="matrix(.23335 0 0 -.2333 0 449.715)"/><g clip-path="url(#z)" transform="matrix(.23335 0 0 -.2333 0 449.715)"><path d="M0 0c-.213 2-5.847 3.055-12.585 2.356-6.738-.7-12.028-2.889-11.815-4.89.213-2 5.848-3.055 12.585-2.355C-5.077-4.19.213-2.001 0 0Z" style="fill:none;stroke:#9d242a;stroke-width:1;stroke-linecap:butt;stroke-linejoin:miter;stroke-miterlimit:3.864;stroke-dasharray:none;stroke-opacity:1" transform="translate(910.731 1495.88)"/><path d="M0 0c1.693-3.88 2.897-8.449 6.455-10.996" style="fill:none;stroke:#9d242a;stroke-width:1;stroke-linecap:butt;stroke-linejoin:miter;stroke-miterlimit:3.864;stroke-dasharray:none;stroke-opacity:1" transform="translate(896.801 1497.977)"/><path d="M0 0a1.71 1.71 0 1 1-3.172 1.28A1.71 1.71 0 0 1 0 0" style="fill:#fcd205;fill-opacity:1;fill-rule:nonzero;stroke:none" transform="translate(904.526 1486.597)"/><path d="M0 0a1.71 1.71 0 1 1-3.172 1.28A1.71 1.71 0 0 1 0 0Z" style="fill:none;stroke:#9d242a;stroke-width:1;stroke-linecap:butt;stroke-linejoin:miter;stroke-miterlimit:3.864;stroke-dasharray:none;stroke-opacity:1" transform="translate(904.526 1486.597)"/><path d="M0 0c-6.158 2.021-10.128 2.038-16.935-1.119" style="fill:none;stroke:#9d242a;stroke-width:1;stroke-linecap:butt;stroke-linejoin:miter;stroke-miterlimit:3.864;stroke-dasharray:none;stroke-opacity:1" transform="translate(907.04 1499.625)"/><path d="M0 0c3.296-.765 7.243-2.964 8.98-.074.689 1.147-.482 2.37-1.628 3.059-2.42 1.453-4.8-.008-7.071-1.767L-.297.64c.003 2.312 2.673 4.64.72 5.813-1.316.79-2.812-.45-3.604-1.767C-4.458 2.562-1.129 1.372.313-.651c1.943-2.729.699-5.277 1.656-8.396M-9.135-.99c3.015-1.522 5.611 2.413 8.497.679C-1.705-13.977-5.3-72.224-5.47-75.157" style="fill:none;stroke:#087039;stroke-width:1;stroke-linecap:round;stroke-linejoin:miter;stroke-miterlimit:3.864;stroke-dasharray:none;stroke-opacity:1" transform="translate(951.26 1580.153)"/></g><path d="M938.709 1496.516c-2.263-3.763 1.293-7.394-.969-11.156-1.119-1.859-1.897-2.199-3.555-3.62.113-.068.067-.109-.013-.132 3.689.29 7.021-.096 10.252-.48 4.386-.522 8.585-1.045 13.233.122-2.478 2.752-4.788 5.788-4.738 9.497.064 2.78 1.17 6.432-1.234 7.874-1.307.786-1.768 1.152-3.409 1.586a9.235 9.235 0 0 1-2.367.311c-2.904 0-5.639-1.406-7.2-4.002m-4.667-14.919c-.212-.018.003-.027.13.011-.043 0-.087-.01-.13-.011" style="fill:url(#A);stroke:none" transform="matrix(.23335 0 0 -.2333 0 449.715)"/><g clip-path="url(#B)" transform="matrix(.23335 0 0 -.2333 0 449.715)"><path d="M0 0c2.404-1.443 1.298-5.095 1.234-7.875-.05-3.71 2.26-6.745 4.738-9.498-8.112-2.034-14.856 1.074-23.615.348-.344-.029.438-.034.143.144 1.658 1.421 2.436 1.759 3.555 3.62 2.263 3.761-1.294 7.392.969 11.155 1.983 3.297 5.857 4.674 9.567 3.692C-1.768 1.151-1.307.785 0 0Z" style="fill:none;stroke:#9d242a;stroke-width:1;stroke-linecap:butt;stroke-linejoin:miter;stroke-miterlimit:3.864;stroke-dasharray:none;stroke-opacity:1" transform="translate(951.685 1498.622)"/><path d="M0 0c-.067 1.944-.595 3.214-1.98 4.552l-.759.232-.815-1.359c-.495-.823-.076-1.983-.124-2.906" style="fill:none;stroke:#9d242a;stroke-width:1;stroke-linecap:butt;stroke-linejoin:miter;stroke-miterlimit:3.864;stroke-dasharray:none;stroke-opacity:1" transform="translate(948.463 1500.208)"/></g><path d="M933.671 1481.316c-.103-2.009 5.298-3.932 12.062-4.295 6.765-.364 12.331.971 12.434 2.98.103 2.009-5.297 3.932-12.062 4.296-.749.04-1.483.06-2.197.06-5.734 0-10.146-1.253-10.237-3.041" style="fill:url(#C);stroke:none" transform="matrix(.23335 0 0 -.2333 0 449.715)"/><g clip-path="url(#D)" transform="matrix(.23335 0 0 -.2333 0 449.715)"><path d="M0 0c.102 2.009-5.297 3.932-12.062 4.296-6.764.363-12.331-.972-12.434-2.981-.103-2.01 5.298-3.933 12.062-4.296C-5.67-3.344-.103-2.01 0 0Z" style="fill:none;stroke:#9d242a;stroke-width:1;stroke-linecap:butt;stroke-linejoin:miter;stroke-miterlimit:3.864;stroke-dasharray:none;stroke-opacity:1" transform="translate(958.167 1480.002)"/><path d="M0 0c1.065-4.097 1.54-8.798 4.655-11.87" style="fill:none;stroke:#9d242a;stroke-width:1;stroke-linecap:butt;stroke-linejoin:miter;stroke-miterlimit:3.864;stroke-dasharray:none;stroke-opacity:1" transform="translate(944.737 1484.25)"/><path d="M0 0a1.71 1.71 0 1 1-2.932 1.762A1.71 1.71 0 1 1 0 0" style="fill:#fcd205;fill-opacity:1;fill-rule:nonzero;stroke:none" transform="translate(950.586 1471.803)"/><path d="M0 0a1.71 1.71 0 1 1-2.932 1.762A1.71 1.71 0 1 1 0 0Z" style="fill:none;stroke:#9d242a;stroke-width:1;stroke-linecap:butt;stroke-linejoin:miter;stroke-miterlimit:3.864;stroke-dasharray:none;stroke-opacity:1" transform="translate(950.586 1471.803)"/><path d="M0 0c-5.766 2.96-9.685 3.598-16.901 1.544" style="fill:none;stroke:#9d242a;stroke-width:1;stroke-linecap:butt;stroke-linejoin:miter;stroke-miterlimit:3.864;stroke-dasharray:none;stroke-opacity:1" transform="translate(955.107 1484.278)"/></g><path d="M819.833 1646.618h145.729v-24.983H819.833Z" style="fill:none;stroke:#231f20;stroke-width:.68;stroke-linecap:butt;stroke-linejoin:miter;stroke-miterlimit:3.864;stroke-dasharray:none;stroke-opacity:1" transform="matrix(.23335 0 0 -.2333 0 449.715)"/><g clip-path="url(#E)" transform="matrix(.23335 0 0 -.2333 0 449.715)"><path d="M0 0c7.78 6.223 32.124 2.015 43.229-1.192 19.783-5.715 39.54-39.227 30.17-36.52-13.189 3.81-31.94 11.834-45.126 15.642-9.719 2.808-25.05 8.322-34.934 9.224z" style="fill:#d4f1fc;fill-opacity:1;fill-rule:nonzero;stroke:none" transform="translate(827.513 1668.691)"/><path d="M0 0c7.78 6.223 32.124 2.015 43.229-1.192 19.783-5.715 39.54-39.227 30.17-36.52-13.189 3.81-31.94 11.834-45.126 15.642-9.719 2.808-25.05 8.322-34.934 9.224z" style="fill:none;stroke:#231f20;stroke-width:.68;stroke-linecap:butt;stroke-linejoin:miter;stroke-miterlimit:3.864;stroke-dasharray:none;stroke-opacity:1" transform="translate(827.513 1668.691)"/><path d="M0 0c6.378 3.92 7.829 2.672 13.039-.521C17.867-3.48 19.703.66 24.09-.099a10.912 10.912 0 0 0-.838-4.116c1.038.049 1.375-.229 2.279.116.023-.196-.166-.915-.035-1.047 1.206.018 1.548-.697 2.875-.193.655-3.141-1.994-5.004-1.681-7.268.392-2.829 7.137-3.517 9.511-3.616-.424-3.78-.098-10.673-3.056-13.464-3.905 2.192-8.412 7.477-12.665 7.863-4.159.378-8.863-.649-13.338.187C-4.378-19.486-1.556-6.975 2.33 1.462" style="fill:#e1c9aa;fill-opacity:1;fill-rule:nonzero;stroke:none" transform="translate(837.67 1673.075)"/><path d="M0 0c6.378 3.92 7.829 2.672 13.039-.521C17.867-3.48 19.703.66 24.09-.099a10.912 10.912 0 0 0-.838-4.116c1.038.049 1.375-.229 2.279.116.023-.196-.166-.915-.035-1.047 1.206.018 1.548-.697 2.875-.193.655-3.141-1.994-5.004-1.681-7.268.392-2.829 7.137-3.517 9.511-3.616-.424-3.78-.098-10.673-3.056-13.464-3.905 2.192-8.412 7.477-12.665 7.863-4.159.378-8.863-.649-13.338.187C-4.378-19.486-1.556-6.975 2.33 1.462" style="fill:none;stroke:#231f20;stroke-width:.5;stroke-linecap:butt;stroke-linejoin:miter;stroke-miterlimit:4;stroke-dasharray:none;stroke-opacity:1" transform="translate(837.67 1673.075)"/><path d="M0 0c-.08-2.425-1.895-5.181-2.464-5.301" style="fill:none;stroke:#231f20;stroke-width:.75;stroke-linecap:butt;stroke-linejoin:miter;stroke-miterlimit:4;stroke-dasharray:none;stroke-opacity:1" transform="translate(853.283 1670.801)"/><path d="M0 0c1.813-1.186-1.451-6.547-3.681-7.482.957 2.04 2.153 3.963 2.729 6.168-2.044-1.087-3.822-2.762-5.451-4.479 1.178 1.144 2.522 2.316 3.43 3.532-1.24-.597-3.097-2.748-3.225-3.033.861 1.268 1.456 2.823 1.847 4.266C-6-2.103-7.807-3.482-8.689-4.968c1.33.644 3.059 1.256 4.277 1.516-.794-1.155-1.027-2.622-1.601-3.743 1.839 1.221 3.379 2.871 4.795 4.637-.488-3.755-.863-6.999-2.701-10.339A94.613 94.613 0 0 0-.592-8.378c-2.158-2.611-2.084-5.928-2.499-9.165.832 3.778 3.138 7.169 3.422 11.081-4.464-5.012-4.163-13.374-5.59-19.234C-3.65-23.484-1.512-21.153.9-19.77c-.679-1.982-1.695-3.921-2.491-5.805.937.924 2.237 1.55 3.147 2.367C.488-25.1-.771-27.052-2.062-28.753c-1.107 2.613-.347 6.031-.806 8.84-1.984-.81-3.405-2.585-4.446-4.512 1.426 1.97 2.549 4.433 2.206 6.921-2.023-.538-3.977-2.213-4.528-4.416 3.015 1.755 4.426 5.963 4.193 9.546-2.347-.552-4.655-2.431-4.574-4.819 2.386 1.436 5.674 9.665 2.18 11.399-1.948.966-3.393-1.681-3.257-3.753 3.462.159 4.519 5.674 4.584 8.682-1.655-.93-3.067-2.552-3.347-4.331 1.612.661 2.413.911 2.617 3.019-2.261-1.387-7.19-4.799-4.198-7.65.085.08.744.561.912.628-2.701-2.548-1.322-6.321 2.224-6.801.139.299.543.764.754 1.078-3.692-4.221 5.127-11.261 6.47-7.799-.093-.233-.651-1.71-.709-1.776.244.126.282.372.481.558-2.435-3.656 4.27-6.466 4.438-1.623-4.005-2.934-4.784-4.174-10.095-1.844-.036 1.493-.827 2.734-.771 4.225-.592-.45-1.666-.44-2.449-1.344 1.333 2.547 1.454 6.656-.549 8.842-7.242-3.69 14.569-16.202 13.608-6.566C1.428-23.038.714-23.256-.1-24.798c1.316 4.947-1.57 12.411-5.666 15.582-5.307-4.753 7.998-11.896 10.978-13.148-2.922 1.601-3.983 5.521-6.102 8.019-.412-3.085 2.051-7.423 4.342-8.959.033.879.225 1.756.271 2.636.468-2.47 1.216-4.859.931-7.386 1.755 1.565 3.524 3.221 4.614 5.392-.433-1.769-.548-3.577-.227-5.317 1.376.64 2.638 1.074 3.635 2.323-.623-7.845-14.749-5.193-14.745 1.808.024-.902-.659-2.589-.718-3.697-1.722.289-3.268 1.213-3.731 2.871-.485-.264-1.14-.457-1.654-.722-1.488 3.239-2.659 6.625-4.301 9.783-.045-.208-.351-.903-.433-1.101C-8.853-15.883-2.167-4.822-.982-.621c-.043-.475-.085-1.011-.174-1.47 1.044.417 1.982.415 2.895 1.133C1.24-1.592.281-2.291-.349-2.742c-.115 4.981-10.946 5.523-8.203-.438.432.084.881.22 1.319.288-2.305-4.512 1.778-9.154 2.415-3.778-7.715-4.237-5.28-18.35 1.662-18.634" style="fill:none;stroke:#231f20;stroke-width:.5;stroke-linecap:butt;stroke-linejoin:miter;stroke-miterlimit:4;stroke-dasharray:none;stroke-opacity:1" transform="translate(845.266 1676.792)"/><path d="M0 0c-.351-3.162 4.67-3.763 6.31-1.702-.025-.619.217-1.225.176-1.831 1.147-.264 1.752-.302 2.597.255C7.265 1.856 1.671-7.513.714 1.15" style="fill:none;stroke:#231f20;stroke-width:.26;stroke-linecap:butt;stroke-linejoin:miter;stroke-miterlimit:4;stroke-dasharray:none;stroke-opacity:1" transform="translate(847.524 1659.686)"/><path d="M0 0c3.305 4.598 17.355 6.132 23.966 6.132 11.777 0 27.892-15.095 22.313-15.095-7.851 0-19.422 1.416-27.271 1.416-5.786 0-15.082.589-20.661-.471z" style="fill:#d4f1fc;fill-opacity:1;fill-rule:nonzero;stroke:none" transform="translate(824.889 1653.73)"/><path d="M0 0c3.305 4.598 17.355 6.132 23.966 6.132 11.777 0 27.892-15.095 22.313-15.095-7.851 0-19.422 1.416-27.271 1.416-5.786 0-15.082.589-20.661-.471z" style="fill:none;stroke:#231f20;stroke-width:.68;stroke-linecap:butt;stroke-linejoin:miter;stroke-miterlimit:3.864;stroke-dasharray:none;stroke-opacity:1" transform="translate(824.889 1653.73)"/></g><path d="M819.833 1646.618h145.729v-24.983H819.833Z" style="fill:#b6242a;fill-opacity:1;fill-rule:nonzero;stroke:none" transform="matrix(.23335 0 0 -.2333 0 449.715)"/><path d="M819.833 1646.618h145.729v-24.983H819.833Z" style="fill:none;stroke:#231f20;stroke-width:.68;stroke-linecap:butt;stroke-linejoin:miter;stroke-miterlimit:10;stroke-dasharray:none;stroke-opacity:1" transform="matrix(.23335 0 0 -.2333 0 449.715)"/><path d="M813.36 1707.026h12.072v-102.882H813.36Z" style="fill:#b6242a;fill-opacity:1;fill-rule:nonzero;stroke:none" transform="matrix(.23335 0 0 -.2333 0 449.715)"/><path d="M813.36 1707.026h12.072v-102.882H813.36Z" style="fill:none;stroke:#231f20;stroke-width:.68;stroke-linecap:butt;stroke-linejoin:miter;stroke-miterlimit:10;stroke-dasharray:none;stroke-opacity:1" transform="matrix(.23335 0 0 -.2333 0 449.715)"/><g clip-path="url(#F)" transform="matrix(.23335 0 0 -.2333 0 449.715)"><path d="M0 0c12.582-5.791 3.981 14.056 12.557 13.93-.563-2.096-.547-4.802-1.467-6.82.388.812 1.24 3.007 2.331 4.733-.538-2.141 1.045-3.028.257-5.045-.133-.151 1.237 2.689 1.232 2.676.453-3.072 1.445-1.193.224-4.237 1.01.476.839-.244 1.837.455.171-1.232-4.545-12.394-5.367-12.953-4.405-2.995-12.964.009-18.062.383-.168.273-6.542 1.999-6.718 2.267.819 3.578 2.812 6.566 6.064 6.246z" style="fill:#e1c9aa;fill-opacity:1;fill-rule:nonzero;stroke:none" transform="translate(976.318 1658.01)"/><path d="M0 0c12.582-5.791 3.981 14.056 12.557 13.93-.563-2.096-.547-4.802-1.467-6.82.388.812 1.24 3.007 2.331 4.733-.538-2.141 1.045-3.028.257-5.045-.133-.151 1.237 2.689 1.232 2.676.453-3.072 1.445-1.193.224-4.237 1.01.476.839-.244 1.837.455.171-1.232-4.545-12.394-5.367-12.953-4.405-2.995-12.964.009-18.062.383-.168.273-6.542 1.999-6.718 2.267.819 3.578 2.812 6.566 6.064 6.246z" style="fill:none;stroke:#231f20;stroke-width:.5;stroke-linecap:butt;stroke-linejoin:miter;stroke-miterlimit:4;stroke-dasharray:none;stroke-opacity:1" transform="translate(976.318 1658.01)"/></g><path d="M961.953 1651.975h11.431v-48.376h-11.431z" style="fill:#b6242a;fill-opacity:1;fill-rule:nonzero;stroke:none" transform="matrix(.23335 0 0 -.2333 0 449.715)"/><path d="M961.953 1651.975h11.431v-48.376h-11.431z" style="fill:none;stroke:#231f20;stroke-width:.68;stroke-linecap:butt;stroke-linejoin:miter;stroke-miterlimit:10;stroke-dasharray:none;stroke-opacity:1" transform="matrix(.23335 0 0 -.2333 0 449.715)"/><g clip-path="url(#G)" transform="matrix(.23335 0 0 -.2333 0 449.715)"><path d="M0 0c13.895.103-2.305 14.427 5.554 17.961.372-2.139 1.528-4.583 1.542-6.804.01.901.641 3.963.906 5.99.414-2.168 1.448-3.009 1.581-5.171-.057-.194-.009 2.961-.007 2.948 1.708-2.591 1.818-.467 1.99-3.742.719.859.867.132 1.481 1.191.675-1.043 1.09-13.16.578-14.018C10.879-6.23 1.82-7.147-2.978-8.978c-.268.176-6.798-.969-7.07-.802-.765 3.591-.212 7.146 2.884 8.237z" style="fill:#e1c9aa;fill-opacity:1;fill-rule:nonzero;stroke:none" transform="translate(969.695 1660.179)"/><path d="M0 0c13.895.103-2.305 14.427 5.554 17.961.372-2.139 1.528-4.583 1.542-6.804.01.901.641 3.963.906 5.99.414-2.168 1.448-3.009 1.581-5.171-.057-.194-.009 2.961-.007 2.948 1.708-2.591 1.818-.467 1.99-3.742.719.859.867.132 1.481 1.191.675-1.043 1.09-13.16.578-14.018C10.879-6.23 1.82-7.147-2.978-8.978c-.268.176-6.798-.969-7.07-.802-.765 3.591-.212 7.146 2.884 8.237z" style="fill:none;stroke:#231f20;stroke-width:.5;stroke-linecap:butt;stroke-linejoin:miter;stroke-miterlimit:4;stroke-dasharray:none;stroke-opacity:1" transform="translate(969.695 1660.179)"/><path d="M0 0c11.631 27.156 44.775 40.192 75.595 40.192 17.445 0 41.869.269 41.869-16.023V2.172L61.639 1.087S23.842-1.087 19.771-1.087C17.736-1.087 0 0 0 0" style="fill:#d4f1fc;fill-opacity:1;fill-rule:nonzero;stroke:none" transform="translate(849.804 1641.753)"/><path d="M0 0c11.631 27.156 44.775 40.192 75.595 40.192 17.445 0 41.869.269 41.869-16.023V2.172L61.639 1.087S23.842-1.087 19.771-1.087C17.736-1.087 0 0 0 0Z" style="fill:none;stroke:#231f20;stroke-width:.68;stroke-linecap:butt;stroke-linejoin:miter;stroke-miterlimit:10;stroke-dasharray:none;stroke-opacity:1" transform="translate(849.804 1641.753)"/><path d="M0 0c-1.187-4.093 4.144-9.323 10.809-8.149 3.953.697 13.048 5.624 12.231 9.14-1.301 6.014-16.357 3.845-21.766.815" style="fill:#918f90;fill-opacity:1;fill-rule:nonzero;stroke:none" transform="translate(911.252 1604.778)"/><path d="M0 0c-1.187-4.093 4.144-9.323 10.809-8.149 3.953.697 13.048 5.624 12.231 9.14-1.301 6.014-16.357 3.845-21.766.815" style="fill:none;stroke:#231f20;stroke-width:.275;stroke-linecap:butt;stroke-linejoin:miter;stroke-miterlimit:4;stroke-dasharray:none;stroke-opacity:1" transform="translate(911.252 1604.778)"/><path d="M0 0c1.713 1.409 10.782 1.946 11.296-9.989.093-2.178-11.186-2.345-14.667-.346C-9.226-6.972-2.858.948 2.736-.324" style="fill:#0b406f;fill-opacity:1;fill-rule:nonzero;stroke:none" transform="translate(910.702 1607.132)"/><path d="M0 0c1.713 1.409 10.782 1.946 11.296-9.989.093-2.178-11.186-2.345-14.667-.346C-9.226-6.972-2.858.948 2.736-.324" style="fill:none;stroke:#231f20;stroke-width:.275;stroke-linecap:butt;stroke-linejoin:miter;stroke-miterlimit:4;stroke-dasharray:none;stroke-opacity:1" transform="translate(910.702 1607.132)"/><path d="M0 0c-.466-4.23 5.684-8.435 12.048-6.112 3.775 1.377 11.888 7.811 10.48 11.122-2.315 5.681-16.775.912-21.583-3.013" style="fill:#918f90;fill-opacity:1;fill-rule:nonzero;stroke:none" transform="translate(930.626 1601.803)"/><path d="M0 0c-.466-4.23 5.684-8.435 12.048-6.112 3.775 1.377 11.888 7.811 10.48 11.122-2.315 5.681-16.775.912-21.583-3.013" style="fill:none;stroke:#231f20;stroke-width:.275;stroke-linecap:butt;stroke-linejoin:miter;stroke-miterlimit:4;stroke-dasharray:none;stroke-opacity:1" transform="translate(930.626 1601.803)"/><path d="M0 0c1.444 1.687 10.279 3.802 12.84-7.86.468-2.129-10.606-4.266-14.378-2.906C-7.881-8.479-2.976.433 2.749.159" style="fill:#0b406f;fill-opacity:1;fill-rule:nonzero;stroke:none" transform="translate(929.672 1604.046)"/><path d="M0 0c1.444 1.687 10.279 3.802 12.84-7.86.468-2.129-10.606-4.266-14.378-2.906C-7.881-8.479-2.976.433 2.749.159" style="fill:none;stroke:#231f20;stroke-width:.275;stroke-linecap:butt;stroke-linejoin:miter;stroke-miterlimit:4;stroke-dasharray:none;stroke-opacity:1" transform="translate(929.672 1604.046)"/><path d="M0 0c-6.683 5.781-17.4 10.742-13.961 18.83 1.365 3.211 5.751 2.614 8.969 1.25C1.801 17.201 2.371 9.942 2.143 2.459L1.81.354C6.693 3.9 7.509 13.098 12.991 10.775c3.694-1.566 3.372-6.623 1.805-10.309C12.268-5.482 4.635-.281-1.858-.336c-8.754-.081-12.231-6.607-20.295-9.366m34.102-11.086C4.098-16.757 8.425-5.256.323-1.822-26.927-25-8.219-9.096-14.158-13.948" style="fill:none;stroke:#231f20;stroke-width:.5;stroke-linecap:round;stroke-linejoin:miter;stroke-miterlimit:3.864;stroke-dasharray:none;stroke-opacity:1" transform="translate(816.198 1709.83)"/></g><path d="M772.35 1684.257c-5.202-5.882-13.171-7.38-21.002-8.201 9.866-14.544 24.841-19.206 37.601-32.531-.093.149-.108.279.17.226-.598 4.563-1.345 6.19-.463 10.68 1.781 9.081 12.566 9.756 14.348 18.838 1.561 7.96-2.597 15.576-9.856 19.265-3.209 1.631-4.459 1.706-7.641 2.319a6.347 6.347 0 0 1-1.2.117c-5.139 0-8.373-6.579-11.957-10.713m16.636-40.786c.161-.224.439-.447.154-.146l-.191.2.037-.054" style="fill:url(#H);stroke:none" transform="matrix(.23335 0 0 -.2333 0 449.715)"/><g clip-path="url(#I)" transform="matrix(.23335 0 0 -.2333 0 449.715)"><path d="M0 0c-5.851 1.127-9.302-6.15-13.157-10.596-5.202-5.882-13.171-7.38-21.003-8.201C-24.244-33.414-9.168-38.05 3.633-51.528c.503-.53-.741.565-.021.426-.597 4.563-1.344 6.19-.463 10.68 1.781 9.081 12.566 9.756 14.348 18.838C19.058-13.625 14.9-6.008 7.641-2.32 4.432-.688 3.182-.613 0 0Z" style="fill:none;stroke:#9d242a;stroke-width:.8;stroke-linecap:butt;stroke-linejoin:miter;stroke-miterlimit:3.864;stroke-dasharray:none;stroke-opacity:1" transform="translate(785.507 1694.853)"/><path d="M0 0c3.081 3.236 5.911 4.603 10.294 4.765l1.636-.771-.696-3.59c-.421-2.176-2.899-3.523-4.225-5.182" style="fill:none;stroke:#9d242a;stroke-width:.8;stroke-linecap:butt;stroke-linejoin:miter;stroke-miterlimit:3.864;stroke-dasharray:none;stroke-opacity:1" transform="translate(792.14 1692.326)"/></g><path d="M749.326 1675.28c-2.684-3.326 4.203-13.384 15.385-22.466 11.181-9.081 22.421-13.748 25.106-10.424 2.685 3.326-4.203 13.384-15.385 22.467-8.736 7.095-17.507 11.495-22.206 11.495-1.316 0-2.312-.345-2.9-1.072" style="fill:url(#J);stroke:none" transform="matrix(.23335 0 0 -.2333 0 449.715)"/><g clip-path="url(#K)" transform="matrix(.23335 0 0 -.2333 0 449.715)"><path d="M0 0c2.685 3.324 13.924-1.342 25.105-10.423 11.182-9.082 18.07-19.141 15.385-22.466-2.685-3.325-13.925 1.342-25.105 10.423C4.203-13.384-2.685-3.325 0 0Z" style="fill:none;stroke:#9d242a;stroke-width:.8;stroke-linecap:butt;stroke-linejoin:miter;stroke-miterlimit:3.864;stroke-dasharray:none;stroke-opacity:1" transform="translate(749.327 1675.28)"/><path d="M0 0c-7.372-5.286-14.674-12.48-23.787-12.943" style="fill:none;stroke:#9d242a;stroke-width:.8;stroke-linecap:butt;stroke-linejoin:miter;stroke-miterlimit:3.864;stroke-dasharray:none;stroke-opacity:1" transform="translate(776.65 1663.258)"/><path d="M0 0a4.145 4.145 0 0 0 4.861 3.278 4.145 4.145 0 1 0-1.582-8.14A4.146 4.146 0 0 0 0 0" style="fill:#fcd205;fill-opacity:1;fill-rule:nonzero;stroke:none" transform="translate(749.634 1651.841)"/><path d="M0 0a4.145 4.145 0 0 0 4.861 3.278 4.145 4.145 0 1 0-1.582-8.14A4.146 4.146 0 0 0 0 0Z" style="fill:none;stroke:#9d242a;stroke-width:.8;stroke-linecap:butt;stroke-linejoin:miter;stroke-miterlimit:3.864;stroke-dasharray:none;stroke-opacity:1" transform="translate(749.634 1651.841)"/><path d="M0 0c13.195-3.599 20.237-8.222 28.679-21.855" style="fill:none;stroke:#9d242a;stroke-width:.8;stroke-linecap:butt;stroke-linejoin:miter;stroke-miterlimit:3.864;stroke-dasharray:none;stroke-opacity:1" transform="translate(760.346 1677.633)"/><path d="M0 0c2.699-2.039 5.412-5.653 8.173-3.72 1.097.767.524 2.361-.243 3.456C6.311 2.048 3.542 1.682.752.998L-.011.706c.943 2.11 4.329 3.151 3.022 5.017C2.131 6.98.259 6.456-1 5.575-3.031 4.153-.473 1.712.021-.722c.665-3.283-1.507-5.106-1.902-8.344M-8.748 2.811C-6.612.195-2.641 2.733-.709-.025c-6.533-12.05-33.509-63.799-34.857-66.409" style="fill:none;stroke:#087039;stroke-width:1;stroke-linecap:round;stroke-linejoin:miter;stroke-miterlimit:3.864;stroke-dasharray:none;stroke-opacity:1" transform="translate(170.28 1540.038)"/></g><path d="M124.796 1468.736c-3.598-2.516-1.825-7.28-5.423-9.796-1.778-1.244-2.627-1.238-4.72-1.861.076-.109.016-.128-.067-.117 8.223-2.911 13.113-8.445 21.309-9.879-1.142 3.523-2.019 7.235-.465 10.604 1.191 2.513 3.686 5.4 2.077 7.696-.876 1.249-1.147 1.771-2.47 2.835-1.63 1.312-3.589 2.003-5.545 2.003a8.147 8.147 0 0 1-4.696-1.485m-10.338-11.741a.687.687 0 0 1 .128-.033 5.914 5.914 0 0 1-.122.043.462.462 0 0 1-.085.026c-.011 0 .026-.018.079-.036" style="fill:url(#L);stroke:none" transform="matrix(.23335 0 0 -.2333 0 449.715)"/><g clip-path="url(#M)" transform="matrix(.23335 0 0 -.2333 0 449.715)"><path d="M0 0c1.609-2.296-.886-5.182-2.076-7.696-1.555-3.368-.678-7.081.465-10.603-8.237 1.44-13.135 7.022-21.432 9.922-.325.114.387-.209.189.073 2.093.624 2.942.617 4.721 1.861 3.597 2.516 1.825 7.28 5.422 9.797 3.153 2.205 7.252 1.888 10.242-.519C-1.147 1.771-.875 1.249 0 0Z" style="fill:none;stroke:#9d242a;stroke-width:1;stroke-linecap:butt;stroke-linejoin:miter;stroke-miterlimit:3.864;stroke-dasharray:none;stroke-opacity:1" transform="translate(137.506 1465.383)"/><path d="M0 0c.73 1.803.764 3.178.042 4.963l-.598.521-1.298-.909c-.786-.551-.875-1.781-1.295-2.605" style="fill:none;stroke:#9d242a;stroke-width:1;stroke-linecap:butt;stroke-linejoin:miter;stroke-miterlimit:3.864;stroke-dasharray:none;stroke-opacity:1" transform="translate(135.208 1468.143)"/></g><path d="M114.011 1456.9c-.911-1.794 3.241-5.747 9.272-8.83 6.032-3.083 11.66-4.129 12.571-2.334.911 1.793-3.239 5.746-9.271 8.83-4.032 2.061-7.885 3.211-10.268 3.211-1.182 0-2.002-.282-2.304-.877" style="fill:url(#N);stroke:none" transform="matrix(.23335 0 0 -.2333 0 449.715)"/><g clip-path="url(#O)" transform="matrix(.23335 0 0 -.2333 0 449.715)"><path d="M0 0c.911 1.794-3.24 5.747-9.272 8.83s-11.66 4.129-12.571 2.334c-.911-1.793 3.24-5.747 9.271-8.83C-6.54-.749-.911-1.794 0 0Z" style="fill:none;stroke:#9d242a;stroke-width:1;stroke-linecap:butt;stroke-linejoin:miter;stroke-miterlimit:3.864;stroke-dasharray:none;stroke-opacity:1" transform="translate(135.855 1445.736)"/><path d="M0 0c-.693-4.176-2.172-8.664-.576-12.738" style="fill:none;stroke:#9d242a;stroke-width:1;stroke-linecap:butt;stroke-linejoin:miter;stroke-miterlimit:3.864;stroke-dasharray:none;stroke-opacity:1" transform="translate(125.314 1455.08)"/><path d="M0 0a1.71 1.71 0 1 1-1.96 2.802A1.71 1.71 0 0 1 0 0" style="fill:#fcd205;fill-opacity:1;fill-rule:nonzero;stroke:none" transform="translate(125.594 1441.33)"/><path d="M0 0a1.71 1.71 0 1 1-1.96 2.802A1.71 1.71 0 0 1 0 0Z" style="fill:none;stroke:#9d242a;stroke-width:1;stroke-linecap:butt;stroke-linejoin:miter;stroke-miterlimit:3.864;stroke-dasharray:none;stroke-opacity:1" transform="translate(125.594 1441.33)"/><path d="M0 0c-4.064 5.049-7.384 7.226-14.812 8.285" style="fill:none;stroke:#9d242a;stroke-width:1;stroke-linecap:butt;stroke-linejoin:miter;stroke-miterlimit:3.864;stroke-dasharray:none;stroke-opacity:1" transform="translate(134.798 1450.887)"/></g><path d="M243.635 1463.234c-2.165-.697-2.756-1.221-4.452-2.365-3.118-2.102-1.385-6.912-1.106-10.629.324-4.962-2.559-9.19-5.684-13.051 6.338-1.238 11.952-.221 17.823.796 4.265.739 8.666 1.477 13.583 1.353-.109.025-.174.077-.026.177-2.318 1.785-3.383 2.182-5.009 4.593-3.288 4.875 1.22 9.989-2.069 14.864-2.145 3.181-5.621 4.864-9.278 4.864-1.254 0-2.53-.198-3.782-.602m20.339-23.901h-.175c.174-.041.459-.014.175 0" style="fill:url(#P);stroke:none" transform="matrix(.23335 0 0 -.2333 0 449.715)"/><g clip-path="url(#Q)" transform="matrix(.23335 0 0 -.2333 0 449.715)"><path d="M0 0c-3.117-2.103-1.385-6.912-1.106-10.629.324-4.963-2.559-9.19-5.683-13.052 10.996-2.147 19.807 2.493 31.58 2.144.462-.014-.585-.076-.201.182-2.318 1.785-3.383 2.183-5.009 4.593-3.288 4.876 1.22 9.989-2.069 14.865C14.63 2.376 9.35 3.944 4.452 2.365 2.287 1.667 1.696 1.144 0 0Z" style="fill:none;stroke:#9d242a;stroke-width:.8;stroke-linecap:butt;stroke-linejoin:miter;stroke-miterlimit:3.864;stroke-dasharray:none;stroke-opacity:1" transform="translate(239.183 1460.87)"/><path d="M0 0c-4.337-1.248-9.441-4.453-11.958-.721-1 1.482.474 3.194 1.953 4.192 3.121 2.105 6.395.322 9.544-1.866L.351.874c-.167 3.082-3.889 6.001-1.369 7.7C.679 9.719 2.76 8.169 3.908 6.468c1.851-2.744-2.5-4.561-4.28-7.358-2.395-3.772-.559-7.084-1.614-11.309M12.24-.688C8.331-2.925 4.595 2.141.872-.37c2.101-15.991 6.333-24.4 9.949-50.045" style="fill:none;stroke:#087039;stroke-width:.8;stroke-linecap:round;stroke-linejoin:miter;stroke-miterlimit:3.864;stroke-dasharray:none;stroke-opacity:1" transform="translate(236.623 1520.632)"/><path d="M0 0c-.053 2.642.568 4.401 2.345 6.31l1.011.366 1.205-1.787c.731-1.083.063-3.187.197-4.435" style="fill:none;stroke:#9d242a;stroke-width:.8;stroke-linecap:butt;stroke-linejoin:miter;stroke-miterlimit:3.864;stroke-dasharray:none;stroke-opacity:1" transform="translate(244.152 1463.359)"/></g><path d="M247.655 1442.14c-9.036-.961-16.135-3.914-15.856-6.597.278-2.683 7.83-4.078 16.866-3.117 9.036.96 16.136 3.913 15.858 6.596-.22 2.108-4.93 3.421-11.323 3.421-1.742 0-3.61-.097-5.545-.303" style="fill:url(#R);stroke:none" transform="matrix(.23335 0 0 -.2333 0 449.715)"/><g clip-path="url(#S)" transform="matrix(.23335 0 0 -.2333 0 449.715)"><path d="M0 0c-.278 2.682 6.821 5.635 15.857 6.596 9.037.961 16.589-.435 16.867-3.118.279-2.683-6.821-5.635-15.857-6.596C7.83-4.079.279-2.683 0 0Z" style="fill:none;stroke:#9d242a;stroke-width:.8;stroke-linecap:butt;stroke-linejoin:miter;stroke-miterlimit:3.864;stroke-dasharray:none;stroke-opacity:1" transform="translate(231.798 1435.544)"/><path d="M0 0c-1.1-5.574-1.358-11.925-5.297-16.245" style="fill:none;stroke:#9d242a;stroke-width:.8;stroke-linecap:butt;stroke-linejoin:miter;stroke-miterlimit:3.864;stroke-dasharray:none;stroke-opacity:1" transform="translate(249.457 1442.211)"/><path d="M0 0a2.341 2.341 0 1 0 3.882 2.618A2.341 2.341 0 0 0 0 0" style="fill:#fcd205;fill-opacity:1;fill-rule:nonzero;stroke:none" transform="translate(242.51 1425.118)"/><path d="M0 0a2.341 2.341 0 1 0 3.882 2.618A2.341 2.341 0 0 0 0 0Z" style="fill:none;stroke:#9d242a;stroke-width:.8;stroke-linecap:butt;stroke-linejoin:miter;stroke-miterlimit:3.864;stroke-dasharray:none;stroke-opacity:1" transform="translate(242.51 1425.118)"/><path d="M0 0c7.518 4.359 12.724 5.485 22.54 3.241" style="fill:none;stroke:#9d242a;stroke-width:.8;stroke-linecap:butt;stroke-linejoin:miter;stroke-miterlimit:3.864;stroke-dasharray:none;stroke-opacity:1" transform="translate(235.6 1441.487)"/><path d="M0 0c2.461 1.051 11.516 4.422 9.108-.021C8.01-2.047 7.122-4.016 5.736-5.939c-1.088-1.51-5.679-9.075-.639-7.428 2.887.947 5.689 1.295 8.643 2.06" style="fill:none;stroke:#0e5f9d;stroke-width:1.4;stroke-linecap:round;stroke-linejoin:miter;stroke-miterlimit:4;stroke-dasharray:none;stroke-opacity:1" transform="translate(862.433 1698.947)"/><path d="M0 0c3.122 1.877 14.698 8.113 12.267 1.736-1.109-2.908-1.946-5.701-3.459-8.531-1.189-2.223-5.99-13.178.495-10.008 3.716 1.815 7.424 2.824 11.26 4.416" style="fill:none;stroke:#0e5f9d;stroke-width:2.1;stroke-linecap:round;stroke-linejoin:miter;stroke-miterlimit:4;stroke-dasharray:none;stroke-opacity:1" transform="translate(875.481 1720.084)"/><path d="M0 0c4.225 1.449 19.709 5.971 15.157-1.016-2.076-3.189-3.795-6.306-6.336-9.298-1.996-2.35-10.563-14.198-1.973-12.055 4.921 1.228 9.628 1.498 14.637 2.428" style="fill:none;stroke:#0e5f9d;stroke-width:2.8;stroke-linecap:round;stroke-linejoin:miter;stroke-miterlimit:4;stroke-dasharray:none;stroke-opacity:1" transform="translate(894.88 1740.545)"/></g><g style="display:inline"><g style="display:inline"><path d="M0 0c2.697-1.19 4.775 2.355 7.371.974C7.106-9.555-61.882-538.838-61.233-543.05" style="fill:none;stroke:#087039;stroke-width:.875;stroke-linecap:round;stroke-linejoin:miter;stroke-miterlimit:3.864;stroke-dasharray:none;stroke-opacity:1" transform="matrix(.23335 0 0 -.2333 141.576 -63.546)"/></g></g></g></svg>