<svg width="1000" height="500" viewBox="0 0 264.583 132.292" xmlns:xlink="http://www.w3.org/1999/xlink" xmlns="http://www.w3.org/2000/svg"><defs><clipPath clipPathUnits="userSpaceOnUse" id="g"><path d="M0 0h1133.858v1814.173H0Z"/></clipPath><clipPath clipPathUnits="userSpaceOnUse" id="b"><path d="M245.139 1258.24h209v-209h-209z"/></clipPath><clipPath clipPathUnits="userSpaceOnUse" id="c"><path d="M244.059 1258.6h209.88v-210.24h-209.88z"/></clipPath><clipPath clipPathUnits="userSpaceOnUse" id="d"><path d="M244.059 1258.6h209.88v-210.24h-209.88z"/></clipPath><clipPath clipPathUnits="userSpaceOnUse" id="f"><path d="M0 0h1133.858v1814.173H0Z"/></clipPath><linearGradient xlink:href="#a" id="e" gradientUnits="userSpaceOnUse" gradientTransform="scale(-129.16765) rotate(89.9 -.035 -1)" x1="0" y1="0" x2="1" y2="0" spreadMethod="pad"/><linearGradient x1="0" y1="0" x2="1" y2="0" gradientUnits="userSpaceOnUse" gradientTransform="scale(-553.54118 553.54118) rotate(89.9 -1.676 .64)" spreadMethod="pad" id="a"><stop style="stop-opacity:1;stop-color:#cceffc" offset="0"/><stop style="stop-opacity:1;stop-color:#99def9" offset="1"/><stop style="stop-opacity:1;stop-color:#99def9" offset="1"/><stop style="stop-opacity:1;stop-color:#99def9" offset="1"/></linearGradient></defs><path style="fill:none;fill-rule:evenodd;stroke-width:.264583" d="M0 0h264.583v105.833H0z" transform="translate(0 26.458)"/><path style="fill:url(#e);stroke:none;stroke-width:.233347" d="M0-26.458V78.67l87.026-8.397 79.745-14.098 97.812-4.71v-77.923z" transform="translate(0 26.458)"/><g clip-path="url(#f)" transform="matrix(.23335 0 0 -.23335 0 449.8)"><g clip-path="url(#g)"><path d="M0 0c11.693-.039 23.381-.189 35.038-.43C90.64-1.58 144.904-5.051 200.183-7.152c50.929-1.934 91.096 4.425 134.282 14.371 46.568 10.724 86.537 25.17 133.271 35.941 29.235 6.738 60.039 13.377 93.584 16.145 47.605 3.927 97.032 3.006 145.349 3.463 45.917.431 91.63-.151 137.513.076 27.813.136 48.951.789 74.689 4.82 42.343 6.631 87.546 13.695 123.619 24.719 18.186 5.867 34.652 11.25 50.456 18.078 5.431 1.519 9.897 5.785 11.734 8.086l1.637-36.494c-1.261-2.362-31.201-18.088-36.232-19.805-14.048-7.394-34.15-13.883-50.806-20.41-37.337-12.176-71.386-22.318-111.898-30.506-24.625-4.978-45.764-7.031-73.415-8.205-45.615-1.936-91.259-3.061-136.857-5.205-47.981-2.256-97.406-3.182-143.823-8.873-32.707-4.01-62.192-10.91-88.526-20.539-44.149-16.141-80.226-28.5-124.436-39.838-41.039-10.526-78.947-19.361-130.117-19.332-55.541.031-110.409 1.465-166.037.537-14.66-.244-29.334-.633-43.957-1.207" style="fill:#80d6f7;fill-opacity:1;fill-rule:nonzero;stroke:none" transform="translate(88.022 1541.848)"/><path d="M0 0c-54.241-2.953-99.971-14.592-156.416-27.486-49.643-11.34-98.216-24.227-147.334-36.157-45.25-10.992-84.844-11.455-127.15-10.33-45.619 1.213-87.42 6.524-133.206 7.748-28.641.768-57.121 1.012-88.299-2.582-44.247-5.103-88.992-15.621-132.701-23.982-41.538-7.947-82.182-16.592-123.62-24.719-25.116-4.926-45.565-7.445-70.134-8.484-40.421-1.713-82.644-1.244-118.905 2.142-18.386 1.989-35.861 4.623-52.426 7.911-5.413.382-9.337 1.447-11.774 3.185l39.716-40.666c1.939-1.902 5.468-3.168 10.586-3.803 15.175-4.115 31.376-7.601 48.606-10.463 34.104-5.091 76.12-7.611 115.35-5.892 25.106 1.098 43.933 3.039 69.256 7.002 41.776 6.537 73.288 11.806 116.177 19.183 43.759 7.53 84.89 20.5 128.665 23.797 30.844 2.325 78.822 2.467 105.958-.922 41.375-5.166 63.954-12.173 107.851-16.97 40.217-4.395 89.063-6.772 135.18 2.543 50.055 10.113 99.105 21.146 149.488 30.632C-82.09-98.33 0-90.207 52.979-89.838l-.504 91.5" style="fill:#80d6f7;fill-opacity:1;fill-rule:nonzero;stroke:none" transform="translate(36.61 1540.334)"/><path d="M0 0c-1.836-2.297-5.471-4.201-10.903-5.719-15.805-6.812-32.803-13.146-50.991-19.002-36.075-10.998-81.175-18.838-123.522-25.453-25.74-4.021-47.29-5.271-75.105-5.408-45.888-.225-91.604.355-137.524-.076-48.322-.453-97.753.467-145.363-3.455-33.549-2.76-64.355-9.387-93.592-16.11-46.739-10.748-86.711-25.162-133.283-35.861-43.19-9.926-83.361-16.27-134.295-14.338-55.283 2.094-109.551 5.557-165.158 6.703a2097.36 2097.36 0 0 1-39.388.453c-28.292.014-53.775-2.011-69.923-3.484-56.073-5.113-81.393-12.574-135.424-24.641-49.736-11.107-97.476-24.062-146.597-35.963-45.256-10.964-83.627-12.521-125.937-11.4-45.623 1.209-86.561 6.963-132.351 8.184-28.644.763-58.668 1.156-89.849-2.432-44.252-5.09-88.497-14.875-132.211-23.217-41.541-7.927-82.553-16.734-123.993-24.844-25.121-4.916-44.971-7.691-69.544-8.726-40.424-1.709-83.746-2.815-120.009.568-18.388 1.983-35.865 4.614-52.432 7.891-5.412.383-9.337 1.443-11.774 3.178" style="fill:none;stroke:#231f20;stroke-width:2.054;stroke-linecap:butt;stroke-linejoin:miter;stroke-miterlimit:4;stroke-dasharray:none;stroke-opacity:1" transform="translate(1196.862 1659.727)"/><path d="M0 0c-1.708-2.313-5.233-4.248-10.578-5.813-15.419-6.947-32.055-13.425-49.91-19.437-35.448-11.305-80.095-19.527-122.06-26.502-25.507-4.24-46.981-5.672-74.782-6.045-45.863-.613-91.601-.42-137.485-1.24-48.285-.863-97.755-.361-145.133-4.684-33.384-3.047-63.811-9.933-92.662-16.906-46.122-11.144-85.275-25.896-131.233-36.994-42.621-10.291-82.425-16.979-133.454-15.479-55.388 1.627-109.837 4.633-165.495 5.309-13.901.17-27.839.211-41.834.096-13.694-.239-30.962-1.03-44.222-2.016-54.681-4.055-110.022-12.713-164.277-24.33-49.94-10.691-98-23.264-147.375-34.766-45.489-10.595-83.645-11.779-125.567-10.22-45.204 1.677-85.518 7.882-130.888 9.574-28.38 1.058-58.151 1.754-89.281-1.547-44.179-4.686-88.603-14.1-132.421-22.066-41.641-7.573-82.805-16.034-124.356-23.788-25.187-4.703-45.031-7.3-69.468-8.099-40.202-1.313-83.246-1.99-119.048 1.781-18.139 2.182-35.341 5.01-51.604 8.479-5.35.441-9.188 1.548-11.514 3.322" style="fill:none;stroke:#231f20;stroke-width:2.054;stroke-linecap:butt;stroke-linejoin:miter;stroke-miterlimit:4;stroke-dasharray:none;stroke-opacity:1" transform="translate(1192.504 1651.068)"/><path d="M0 0c-1.551-2.328-4.946-4.301-10.184-5.918-14.943-7.105-31.137-13.756-48.58-19.945-34.672-11.67-78.749-20.344-120.227-27.746-25.213-4.5-46.582-6.151-74.348-6.805-45.806-1.078-91.54-1.352-137.353-2.637-48.209-1.355-97.696-1.355-144.765-6.16-33.167-3.387-63.118-10.582-91.49-17.848-45.353-11.617-83.495-26.769-128.689-38.332-41.911-10.726-81.25-17.818-132.362-16.836-55.479 1.065-109.754 5.497-165.438 5.497-16.904.001-33.47-.051-49.956-.368-19.175-.369-40.116-2.027-53.993-3.131-54.309-4.322-99.267-12.742-153.757-23.808-50.156-10.19-98.57-22.297-148.217-33.307-45.74-10.144-83.614-10.881-125.044-8.802-44.675 2.236-84.214 8.984-129.05 11.238-28.047 1.41-57.495 2.472-88.545-.485-44.064-4.197-88.674-13.158-132.591-20.671-41.735-7.141-83.054-15.18-124.712-22.506-25.251-4.442-45.076-6.823-69.335-7.334-39.909-.842-82.593-1.008-117.819 3.228-17.83 2.422-34.69 5.481-50.579 9.18-5.272.51-9.003 1.672-11.194 3.49" style="fill:none;stroke:#231f20;stroke-width:2.054;stroke-linecap:butt;stroke-linejoin:miter;stroke-miterlimit:4;stroke-dasharray:none;stroke-opacity:1" transform="translate(1191.197 1639.478)"/><path d="M0 0c-13.731-.52-40.223-1.732-55.256-2.568-54.24-3.008-98.935-10.756-153.562-21.416-50.283-9.813-98.915-21.565-148.727-32.207-45.892-9.807-83.565-10.239-124.653-7.827-44.304 2.602-83.313 9.684-127.779 12.303-27.815 1.639-57.036 2.938-88.021.221-43.974-3.854-88.691-12.485-132.659-19.666-41.783-6.824-83.191-14.555-124.906-21.567-25.285-4.25-45.09-6.478-69.222-6.798-39.7-.524-82.13-.348-116.959 4.181-17.617 2.571-34.243 5.774-49.878 9.61-5.217.55-8.876 1.746-10.976 3.588" style="fill:none;stroke:#231f20;stroke-width:2.054;stroke-linecap:butt;stroke-linejoin:miter;stroke-miterlimit:4;stroke-dasharray:none;stroke-opacity:1" transform="translate(87.839 1481.397)"/><path d="M0 0c-1.262-2.357-4.408-4.395-9.439-6.107-14.049-7.379-29.402-14.331-46.059-20.842-33.189-12.311-76.142-21.803-116.657-29.975-24.627-4.967-45.767-7.015-73.419-8.189-45.618-1.93-91.266-3.057-136.866-5.194-47.985-2.252-97.414-3.175-143.833-8.855-32.71-4.004-61.737-11.756-89.176-19.547-43.865-12.453-80.09-28.311-123.801-40.713-40.536-11.502-78.952-19.324-130.125-19.297-55.545.031-110.417 1.465-166.049.539-25.249-.422-50.543-1.074-75.693-1.72-30.1-.772-56.516-2.207-74.681-3.682-53.629-4.348-87.952-10.727-142.775-20.768-50.463-9.246-99.439-20.478-149.498-30.572-46.12-9.297-83.41-9.205-123.865-6.183-43.621 3.259-81.671 10.992-125.45 14.271-27.386 2.051-56.189 3.779-87.036 1.459-43.777-3.289-88.648-11.414-132.669-18.076-41.833-6.334-83.364-13.594-125.143-20.115-25.325-3.955-45.079-5.938-68.968-5.924-39.302.029-81.251.802-115.357 5.883-17.232 2.855-33.435 6.337-48.61 10.443-5.119.635-8.648 1.898-10.587 3.793" style="fill:none;stroke:#231f20;stroke-width:2.054;stroke-linecap:butt;stroke-linejoin:miter;stroke-miterlimit:4;stroke-dasharray:none;stroke-opacity:1" transform="translate(1198.918 1618.43)"/><path d="M0 0c19.109.674 38.31 1.01 57.469 1.1 55.679.267 110.414-1.813 165.931-2.5 51.148-.637 90.161 6.713 131.584 17.705 44.665 11.853 82.121 27.242 126.945 39.146 28.04 7.447 57.662 14.834 90.672 18.442 46.845 5.113 96.324 5.451 144.464 7.128 45.748 1.596 91.463 2.174 137.212 3.561 27.732.842 49.024 2.637 74.03 7.299 41.139 7.674 84.819 16.633 118.961 28.519 17.161 6.299 33.053 13.049 47.675 20.243 5.164 1.652 8.47 3.644 9.916 5.978" style="fill:none;stroke:#231f20;stroke-width:2.197;stroke-linecap:butt;stroke-linejoin:miter;stroke-miterlimit:4;stroke-dasharray:none;stroke-opacity:1" transform="translate(87.942 1481.902)"/></g><g style="stroke:#07375e;stroke-opacity:1"><path d="M0 0c-.089 13.714 8.7 26.767 23.387 17.23 14.156-9.192 19.043-62.374-4.713-59.54-12.79 1.526 2.889 14.788 13.501 11.961 10.446-2.783 11.007-12.561 24.589-9.386" style="fill:none;stroke:#07375e;stroke-width:7.12;stroke-linecap:round;stroke-linejoin:miter;stroke-miterlimit:4;stroke-dasharray:none;stroke-opacity:1" transform="translate(137.93 1505.427)"/></g><g style="stroke:#07375e;stroke-opacity:1"><path d="M0 0c-6.532-1.43-14.352-8.874-12.423-16.19 6.126-1.436 13.67 1.301 14.958 7.672C4.24-.088-3.308 3.251-7.568-4.415" style="fill:none;stroke:#07375e;stroke-width:7.12;stroke-linecap:round;stroke-linejoin:miter;stroke-miterlimit:4;stroke-dasharray:none;stroke-opacity:1" transform="translate(231.38 1505.782)"/></g><g style="stroke:#07375e;stroke-opacity:1"><path d="M0 0c11.235.762 22.977 6.906 29.036-6.585 4.315-9.609.382-23.075-11.053-25.013 18.083 3.271 21.237-14.065 19.955-27.789C36.166-78.359 14.619-71.453 0-68.116" style="fill:none;stroke:#07375e;stroke-width:7.12;stroke-linecap:round;stroke-linejoin:miter;stroke-miterlimit:4;stroke-dasharray:none;stroke-opacity:1" transform="translate(243.765 1542.79)"/></g><g style="stroke:#07375e;stroke-opacity:1"><path d="M0 0c12.078 4.175 25.119 2.973 36.581 5.676" style="fill:none;stroke:#07375e;stroke-width:7.12;stroke-linecap:round;stroke-linejoin:miter;stroke-miterlimit:4;stroke-dasharray:none;stroke-opacity:1" transform="translate(304.499 1499.829)"/></g><g style="stroke:#07375e;stroke-opacity:1"><path d="M0 0c12.158 1.364 25.729 4.29 37.843 3.784" style="fill:none;stroke:#07375e;stroke-width:7.12;stroke-linecap:round;stroke-linejoin:miter;stroke-miterlimit:4;stroke-dasharray:none;stroke-opacity:1" transform="translate(310.806 1484.691)"/></g><g style="stroke:#07375e;stroke-opacity:1"><path d="M0 0c-6.697-5.521-3.86-18.505-5.234-26.201-1.202-6.732-3.58-14.165-5.022-21.039 16.562.021 40.102-8.221 55.667-5.109" style="fill:none;stroke:#07375e;stroke-width:7.12;stroke-linecap:round;stroke-linejoin:miter;stroke-miterlimit:4;stroke-dasharray:none;stroke-opacity:1" transform="translate(365.561 1566.695)"/></g><g style="stroke:#07375e;stroke-opacity:1"><path d="M0 0c-12.62-15.712-13.196-36.771-20.183-54.241" style="fill:none;stroke:#07375e;stroke-width:7.12;stroke-linecap:round;stroke-linejoin:miter;stroke-miterlimit:4;stroke-dasharray:none;stroke-opacity:1" transform="translate(390.79 1533.898)"/></g><g style="stroke:#07375e;stroke-opacity:1"><path d="M0 0c3.932-10.893 14.216-19.856 16.783-30.711.166.963.644 1.796 1.432 2.5" style="fill:none;stroke:#07375e;stroke-width:4.48;stroke-linecap:butt;stroke-linejoin:miter;stroke-miterlimit:4;stroke-dasharray:none;stroke-opacity:1" transform="translate(527.377 1539.39)"/></g><g style="stroke:#07375e;stroke-opacity:1"><path d="M0 0c7.098 9.073 19.771 10.997 26.904 18.882" style="fill:none;stroke:#07375e;stroke-width:4.48;stroke-linecap:butt;stroke-linejoin:miter;stroke-miterlimit:4;stroke-dasharray:none;stroke-opacity:1" transform="translate(528.259 1513.686)"/></g><g style="stroke:#07375e;stroke-opacity:1"><path d="M0 0c21.343 14.921 47.383-14.506 20.801-23.633 9.888 3.272 24.922-.137 23.95-13.072-.964-12.848-21.196-25.805-32.457-17.342" style="fill:none;stroke:#07375e;stroke-width:5.6;stroke-linecap:butt;stroke-linejoin:miter;stroke-miterlimit:4;stroke-dasharray:none;stroke-opacity:1" transform="translate(556.472 1567.748)"/></g><g style="stroke:#07375e;stroke-opacity:1"><path d="M0 0c6.472 4.585 22.494 11.646 28.483 16.925" style="fill:none;stroke:#07375e;stroke-width:5.6;stroke-linecap:butt;stroke-linejoin:miter;stroke-miterlimit:4;stroke-dasharray:none;stroke-opacity:1" transform="translate(605.06 1561.973)"/></g><g style="stroke:#07375e;stroke-opacity:1"><path d="M0 0c8.684 9.427 24.858 11.75 36.27 16.371" style="fill:none;stroke:#07375e;stroke-width:5.6;stroke-linecap:butt;stroke-linejoin:miter;stroke-miterlimit:4;stroke-dasharray:none;stroke-opacity:1" transform="translate(610.56 1545.3)"/></g><g style="stroke:#07375e;stroke-opacity:1"><path d="M0 0c-10.432.009-24.85-29.299-10.342-30.23C-.624-30.854 3.339-8.828 1.226-2.87c1.976-10.452 3.575-19.456 7.659-29.374 1.545-3.751 7.11-12.406 6.842-16.709-.67-10.743-16.088-16.186-23.949-8.667" style="fill:none;stroke:#07375e;stroke-width:5.6;stroke-linecap:butt;stroke-linejoin:miter;stroke-miterlimit:4;stroke-dasharray:none;stroke-opacity:1" transform="translate(678.51 1623.947)"/></g><g style="stroke:#07375e;stroke-opacity:1"><path d="M0 0c16.13 23.588 35.158-26.893 13.588-21.021 7.791-2.735 26.611-7.563 16.676-20.102-6.461-8.155-27.581-4.679-27.855 6.788" style="fill:none;stroke:#07375e;stroke-width:5.95;stroke-linecap:round;stroke-linejoin:miter;stroke-miterlimit:4;stroke-dasharray:none;stroke-opacity:1" transform="translate(793.841 1609.974)"/></g><g style="stroke:#07375e;stroke-opacity:1"><path d="M0 0c-3.188-1.211-5.742-4.258-4.967-8.373C3.685-12.437 12.123-1.76 3.614 0" style="fill:none;stroke:#07375e;stroke-width:5.95;stroke-linecap:round;stroke-linejoin:miter;stroke-miterlimit:4;stroke-dasharray:none;stroke-opacity:1" transform="translate(851.668 1594.915)"/></g><g style="stroke:#07375e;stroke-opacity:1"><path d="M0 0c8.3 2.634 13.223 3.01 18.079-5.424 3.558-6.18 3.136-15.954-6.9-16.182C34.615-35.682 4.13-52.58-7.228-38.551" style="fill:none;stroke:#07375e;stroke-width:5.95;stroke-linecap:round;stroke-linejoin:miter;stroke-miterlimit:4;stroke-dasharray:none;stroke-opacity:1" transform="translate(882.99 1614.19)"/></g><g style="stroke:#07375e;stroke-opacity:1"><path d="M0 0c4.446 6.168 13.209 2.68 19.276 6.626" style="fill:none;stroke:#07375e;stroke-width:5.95;stroke-linecap:round;stroke-linejoin:miter;stroke-miterlimit:4;stroke-dasharray:none;stroke-opacity:1" transform="translate(931.18 1595.517)"/></g><g style="stroke:#07375e;stroke-opacity:1"><path d="M0 0c8.434.922 16.844 1.763 25.299 2.409" style="fill:none;stroke:#07375e;stroke-width:5.95;stroke-linecap:round;stroke-linejoin:miter;stroke-miterlimit:4;stroke-dasharray:none;stroke-opacity:1" transform="translate(931.18 1584.072)"/></g><g style="stroke:#07375e;stroke-opacity:1"><path d="M0 0c-14.653-10.558-29.358-23.579-27.687-43.837 1.097-13.302 9.125-20.973 22.47-14.427C2.84-54.312 6.413-45.412.465-37.779c-6.274 8.051-19.675 7.297-28.174 4.649" style="fill:none;stroke:#07375e;stroke-width:5.95;stroke-linecap:round;stroke-linejoin:miter;stroke-miterlimit:4;stroke-dasharray:none;stroke-opacity:1" transform="translate(1009.487 1638.285)"/></g></g></svg>