<svg width="100" height="100" viewBox="0 0 26.458 26.458" xmlns="http://www.w3.org/2000/svg"><path d="M0 0c-26.769 0-48.47 21.701-48.47 48.47 0 26.77 21.701 48.471 48.47 48.471S48.47 75.24 48.47 48.47C48.47 21.701 26.769 0 0 0" style="fill:#99d420;fill-opacity:1;fill-rule:nonzero;stroke:none" transform="matrix(.27294 0 0 -.27293 13.23 26.458)"/><path d="M0 0c-21.65 0-39.201 17.551-39.201 39.201 0 21.65 17.551 39.2 39.201 39.2 21.65 0 39.201-17.55 39.201-39.2C39.201 17.551 21.65 0 0 0Z" style="fill:none;stroke:#231f20;stroke-width:1.949;stroke-linecap:butt;stroke-linejoin:miter;stroke-miterlimit:4;stroke-dasharray:none;stroke-opacity:1" transform="matrix(.27294 0 0 -.27293 13.194 23.985)"/><path d="M0 0c-5.416 0-9.807 4.391-9.807 9.807 0 5.417 4.391 9.808 9.807 9.808 5.417 0 9.807-4.391 9.807-9.808C9.807 4.391 5.417 0 0 0" style="fill:#fff;fill-opacity:1;fill-rule:nonzero;stroke:none" transform="matrix(.27294 0 0 -.27293 18.259 13.07)"/><path d="M0 0c-5.416 0-9.807 4.391-9.807 9.807 0 5.417 4.391 9.808 9.807 9.808 5.417 0 9.807-4.391 9.807-9.808C9.807 4.391 5.417 0 0 0Z" style="fill:none;stroke:#231f20;stroke-width:1.929;stroke-linecap:butt;stroke-linejoin:miter;stroke-miterlimit:4;stroke-dasharray:none;stroke-opacity:1" transform="matrix(.27294 0 0 -.27293 18.259 13.07)"/><path d="M0 0c-5.416 0-9.807 4.391-9.807 9.808 0 5.416 4.391 9.807 9.807 9.807s9.807-4.391 9.807-9.807C9.807 4.391 5.416 0 0 0" style="fill:#fff;fill-opacity:1;fill-rule:nonzero;stroke:none" transform="matrix(.27294 0 0 -.27293 8.977 13.688)"/><path d="M0 0c-5.416 0-9.807 4.391-9.807 9.808 0 5.416 4.391 9.807 9.807 9.807s9.807-4.391 9.807-9.807C9.807 4.391 5.416 0 0 0Z" style="fill:none;stroke:#231f20;stroke-width:1.929;stroke-linecap:butt;stroke-linejoin:miter;stroke-miterlimit:4;stroke-dasharray:none;stroke-opacity:1" transform="matrix(.27294 0 0 -.27293 8.977 13.688)"/><path d="M0 0a6.375 6.375 0 1 0 0 12.75A6.375 6.375 0 0 0 0 0" style="fill:#231f20;fill-opacity:1;fill-rule:nonzero;stroke:none" transform="matrix(.27294 0 0 -.27293 17.577 12.8)"/><path d="M0 0a6.375 6.375 0 1 0 0 12.75A6.375 6.375 0 0 0 0 0" style="fill:#231f20;fill-opacity:1;fill-rule:nonzero;stroke:none" transform="matrix(.27294 0 0 -.27293 8.398 13.613)"/><path d="M0 0c-14.915-10.752-28.063-1.895-31.759-.545.146-10.377 19.468-20.223 29.494-4.606C1.6-.636 2.433 1.753 0 0" style="fill:#fff;fill-opacity:1;fill-rule:nonzero;stroke:none" transform="matrix(.27294 0 0 -.27293 17.852 16.566)"/><path d="M0 0c-14.915-10.752-28.063-1.895-31.759-.545.146-10.377 19.468-20.223 29.494-4.606C1.6-.636 2.433 1.753 0 0Z" style="fill:none;stroke:#231f20;stroke-width:1.929;stroke-linecap:butt;stroke-linejoin:miter;stroke-miterlimit:4;stroke-dasharray:none;stroke-opacity:1" transform="matrix(.27294 0 0 -.27293 17.852 16.566)"/></svg>