<svg width="100" height="100" viewBox="0 0 26.458 26.458" xmlns="http://www.w3.org/2000/svg"><defs><clipPath clipPathUnits="userSpaceOnUse" id="a"><path d="M0 0h1133.858v1814.173H0Z"/></clipPath></defs><g clip-path="url(#a)" transform="matrix(.27294 0 0 -.27293 -109.632 278.176)"><path d="M0 0c-26.769 0-48.47 21.701-48.47 48.47 0 26.77 21.701 48.471 48.47 48.471S48.47 75.24 48.47 48.47C48.47 21.701 26.769 0 0 0" style="fill:#f1471d;fill-opacity:1;fill-rule:nonzero;stroke:none" transform="translate(450.15 922.27)"/><path d="M0 0c-21.65 0-39.201 17.551-39.201 39.201 0 21.65 17.551 39.2 39.201 39.2 21.65 0 39.201-17.55 39.201-39.2C39.201 17.551 21.65 0 0 0Z" style="fill:none;stroke:#231f20;stroke-width:1.949;stroke-linecap:butt;stroke-linejoin:miter;stroke-miterlimit:4;stroke-dasharray:none;stroke-opacity:1" transform="translate(450.019 931.332)"/><path d="M0 0c-5.416 0-9.807 4.391-9.807 9.807 0 5.417 4.391 9.808 9.807 9.808 5.417 0 9.807-4.391 9.807-9.808C9.807 4.391 5.417 0 0 0" style="fill:#fff;fill-opacity:1;fill-rule:nonzero;stroke:none" transform="translate(468.578 971.326)"/><path d="M0 0c-5.416 0-9.807 4.391-9.807 9.807 0 5.417 4.391 9.808 9.807 9.808 5.417 0 9.807-4.391 9.807-9.808C9.807 4.391 5.417 0 0 0Z" style="fill:none;stroke:#231f20;stroke-width:1.929;stroke-linecap:butt;stroke-linejoin:miter;stroke-miterlimit:4;stroke-dasharray:none;stroke-opacity:1" transform="translate(468.578 971.326)"/><path d="M0 0c-5.416 0-9.807 4.391-9.807 9.808 0 5.416 4.391 9.807 9.807 9.807s9.807-4.391 9.807-9.807C9.807 4.391 5.416 0 0 0" style="fill:#fff;fill-opacity:1;fill-rule:nonzero;stroke:none" transform="translate(434.57 969.058)"/><path d="M0 0c-5.416 0-9.807 4.391-9.807 9.808 0 5.416 4.391 9.807 9.807 9.807s9.807-4.391 9.807-9.807C9.807 4.391 5.416 0 0 0Z" style="fill:none;stroke:#231f20;stroke-width:1.929;stroke-linecap:butt;stroke-linejoin:miter;stroke-miterlimit:4;stroke-dasharray:none;stroke-opacity:1" transform="translate(434.57 969.058)"/><path d="M0 0a6.375 6.375 0 1 0 0 12.75A6.375 6.375 0 0 0 0 0" style="fill:#231f20;fill-opacity:1;fill-rule:nonzero;stroke:none" transform="translate(465.706 971.638)"/><path d="M0 0a6.375 6.375 0 1 0 0 12.75A6.375 6.375 0 0 0 0 0" style="fill:#231f20;fill-opacity:1;fill-rule:nonzero;stroke:none" transform="translate(436.24 969.405)"/><path d="M0 0c18.794 15.582 28.075 1.413 31.76.2-.066 9.081-19.312 17.864-29.456 4.288C-1.595.571-2.214-1.835 0 0" style="fill:#fff;fill-opacity:1;fill-rule:nonzero;stroke:none" transform="translate(435.674 947.822)"/><path d="M0 0c18.794 15.582 28.075 1.413 31.76.2-.066 9.081-19.312 17.864-29.456 4.288C-1.595.571-2.214-1.835 0 0Z" style="fill:none;stroke:#231f20;stroke-width:1.929;stroke-linecap:butt;stroke-linejoin:miter;stroke-miterlimit:4;stroke-dasharray:none;stroke-opacity:1" transform="translate(435.674 947.822)"/></g></svg>